<svg width="109" height="109" viewBox="0 0 109 109" fill="none" xmlns="http://www.w3.org/2000/svg">
<path fill-rule="evenodd" clip-rule="evenodd" d="M54.5 95.375C59.8678 95.375 65.183 94.3177 70.1422 92.2636C75.1014 90.2094 79.6074 87.1986 83.403 83.403C87.1986 79.6074 90.2094 75.1014 92.2636 70.1422C94.3177 65.183 95.375 59.8678 95.375 54.5C95.375 49.1322 94.3177 43.817 92.2636 38.8578C90.2094 33.8986 87.1986 29.3926 83.403 25.597C79.6074 21.8014 75.1014 18.7906 70.1422 16.7364C65.183 14.6823 59.8678 13.625 54.5 13.625C43.6593 13.625 33.2626 17.9315 25.597 25.597C17.9315 33.2626 13.625 43.6593 13.625 54.5C13.625 65.3407 17.9315 75.7374 25.597 83.403C33.2626 91.0685 43.6593 95.375 54.5 95.375ZM53.4463 71.0317L76.1547 43.7817L69.1787 37.9683L49.6495 61.3988L39.5443 51.289L33.1224 57.711L46.7474 71.336L50.2626 74.8512L53.4463 71.0317Z" fill="#0C8E48"/>
</svg>
