<svg width="228" height="221" viewBox="0 0 228 221" fill="none" xmlns="http://www.w3.org/2000/svg">
<path d="M102.667 176.75H125.333V154.667H102.667V176.75ZM114 0.083252C99.1169 0.083252 84.3795 2.93926 70.6293 8.48822C56.8791 14.0372 44.3853 22.1704 33.8613 32.4235C12.6072 53.1307 0.666748 81.2156 0.666748 110.5C0.666748 139.784 12.6072 167.869 33.8613 188.576C44.3853 198.829 56.8791 206.963 70.6293 212.512C84.3795 218.061 99.1169 220.917 114 220.917C144.058 220.917 172.885 209.283 194.139 188.576C215.393 167.869 227.333 139.784 227.333 110.5C227.333 95.9998 224.402 81.6416 218.706 68.2453C213.011 54.8489 204.663 42.6767 194.139 32.4235C183.615 22.1704 171.121 14.0372 157.371 8.48822C143.621 2.93926 128.883 0.083252 114 0.083252ZM114 198.833C64.0201 198.833 23.3334 159.194 23.3334 110.5C23.3334 61.8062 64.0201 22.1666 114 22.1666C163.98 22.1666 204.667 61.8062 204.667 110.5C204.667 159.194 163.98 198.833 114 198.833ZM114 44.2499C101.977 44.2499 90.4462 48.9032 81.9446 57.186C73.4429 65.4689 68.6668 76.7029 68.6667 88.4166H91.3334C91.3334 82.5597 93.7215 76.9427 97.9723 72.8013C102.223 68.6599 107.989 66.3332 114 66.3333C120.012 66.3332 125.777 68.6599 130.028 72.8013C134.279 76.9427 136.667 82.5597 136.667 88.4166C136.667 110.5 102.667 107.739 102.667 143.625H125.333C125.333 118.781 159.333 116.021 159.333 88.4166C159.333 76.7029 154.557 65.4689 146.056 57.186C137.554 48.9032 126.023 44.2499 114 44.2499Z" fill="white" fill-opacity="0.8"/>
</svg>
