<svg width="75" height="75" viewBox="0 0 75 75" fill="none" xmlns="http://www.w3.org/2000/svg">
<g clip-path="url(#clip0_498_10130)">
<path d="M37.5 0C16.7895 0 0 16.7895 0 37.5C0 58.2117 16.7895 75 37.5 75C58.2117 75 75 58.2117 75 37.5C75 16.7895 58.2117 0 37.5 0ZM37.5 70.3863C19.4074 70.3863 4.6875 55.5926 4.6875 37.4999C4.6875 19.4073 19.4074 4.68735 37.5 4.68735C55.5926 4.68735 70.3125 19.4073 70.3125 37.4999C70.3125 55.5924 55.5926 70.3863 37.5 70.3863ZM52.466 23.7785L30.464 45.9187L20.5558 36.0105C19.6406 35.0953 18.157 35.0953 17.2406 36.0105C16.3253 36.9258 16.3253 38.4094 17.2406 39.3246L28.8409 50.9262C29.7562 51.8402 31.2398 51.8402 32.1562 50.9262C32.2616 50.8207 32.352 50.7058 32.434 50.5863L55.7824 27.0937C56.6965 26.1784 56.6965 24.6948 55.7824 23.7785C54.866 22.8633 53.3824 22.8633 52.466 23.7785Z" fill="black"/>
</g>
<defs>
<clipPath id="clip0_498_10130">
<rect width="75" height="75" fill="white"/>
</clipPath>
</defs>
</svg>
