<svg width="36" height="36" viewBox="0 0 36 36" fill="none" xmlns="http://www.w3.org/2000/svg">
<path d="M33.9388 27.6421C32.6409 26.3345 29.4974 24.4262 27.9723 23.6571C25.9862 22.6568 25.8227 22.575 24.2616 23.7348C23.2203 24.5087 22.5281 25.2001 21.3094 24.9402C20.0908 24.6803 17.4426 23.215 15.1239 20.9037C12.8051 18.5925 11.2547 15.8677 10.9939 14.6532C10.7332 13.4388 11.4361 12.7547 12.2028 11.711C13.2833 10.2399 13.2015 9.99476 12.278 8.00879C11.5579 6.46415 9.59385 3.35034 8.28122 2.05905C6.87705 0.672135 6.87705 0.917317 5.97227 1.29326C5.23567 1.60316 4.529 1.97986 3.86111 2.41865C2.55339 3.28741 1.8276 4.00906 1.32004 5.09358C0.812483 6.1781 0.584448 8.72064 3.20562 13.4821C5.82679 18.2435 7.66577 20.6782 11.4721 24.4736C15.2784 28.269 18.2052 30.3097 22.4839 32.7092C27.7769 35.6735 29.8072 35.0957 30.895 34.5889C31.9829 34.0822 32.7079 33.363 33.5783 32.0554C34.0183 31.3887 34.3958 30.6828 34.7062 29.9468C35.083 29.0454 35.3282 29.0454 33.9388 27.6421Z" fill="white" stroke="black" stroke-width="2" stroke-miterlimit="10"/>
</svg>
