<svg width="32" height="30" viewBox="0 0 32 30" fill="none" xmlns="http://www.w3.org/2000/svg">
<path d="M15.54 0C11.4185 0 7.46588 1.54875 4.55156 4.30553C1.63725 7.06232 0 10.8013 0 14.7C0 18.5987 1.63725 22.3377 4.55156 25.0945C7.46588 27.8513 11.4185 29.4 15.54 29.4C19.6615 29.4 23.6141 27.8513 26.5284 25.0945C29.4428 22.3377 31.08 18.5987 31.08 14.7C31.08 10.8013 29.4428 7.06232 26.5284 4.30553C23.6141 1.54875 19.6615 0 15.54 0ZM24.3996 20.0567L21.201 23.0825L15.54 17.7257L9.87715 23.0807L6.6785 20.055L12.3432 14.7L6.68035 9.34325L9.879 6.31925L15.54 11.6742L21.2028 6.3175L24.4015 9.34325L18.7368 14.7L24.3996 20.0567Z" fill="#CB0606"/>
</svg>
