<svg width="20" height="20" viewBox="0 0 20 20" fill="none" xmlns="http://www.w3.org/2000/svg">
<path d="M17.0198 2.97522C15.6308 1.58682 13.8613 0.641483 11.935 0.258751C10.0087 -0.123981 8.01218 0.0730819 6.19789 0.825021C4.38361 1.57696 2.83303 2.85 1.74225 4.48317C0.651463 6.11634 0.0694566 8.03629 0.0698244 10.0002C0.0698241 12.6343 1.11586 15.1605 2.97795 17.0236C4.84004 18.8866 7.36577 19.9339 9.99982 19.9352C11.3033 19.9353 12.5941 19.6805 13.7998 19.1852C15.0014 18.6777 16.0945 17.9445 17.0198 17.0252C17.9425 16.1027 18.6743 15.0076 19.1737 13.8022C19.673 12.5968 19.93 11.3049 19.93 10.0002C19.93 8.69553 19.673 7.40361 19.1737 6.19825C18.6743 4.99289 17.9425 3.8977 17.0198 2.97522ZM16.3198 16.3152C14.8899 17.7514 13.0136 18.6578 10.9998 18.8852V12.3252H12.8798C13.145 12.3252 13.3994 12.2199 13.5869 12.0323C13.7745 11.8448 13.8798 11.5904 13.8798 11.3252C13.8798 11.06 13.7745 10.8057 13.5869 10.6181C13.3994 10.4306 13.145 10.3252 12.8798 10.3252H10.9998V7.58522C10.9998 7.32001 11.1052 7.06565 11.2927 6.87812C11.4803 6.69058 11.7346 6.58522 11.9998 6.58522H13.1998C13.465 6.58522 13.7194 6.47987 13.9069 6.29233C14.0945 6.10479 14.1998 5.85044 14.1998 5.58522C14.1998 5.32001 14.0945 5.06565 13.9069 4.87812C13.7194 4.69058 13.465 4.58522 13.1998 4.58522H11.4998C10.8368 4.58522 10.2009 4.84862 9.73206 5.31746C9.26322 5.7863 8.99982 6.42218 8.99982 7.08522V10.3252H7.12982C6.86461 10.3252 6.61025 10.4306 6.42272 10.6181C6.23518 10.8057 6.12982 11.06 6.12982 11.3252C6.12982 11.5904 6.23518 11.8448 6.42272 12.0323C6.61025 12.2199 6.86461 12.3252 7.12982 12.3252H8.99982V18.8852C7.14272 18.6734 5.3991 17.8834 4.01527 16.6269C2.63144 15.3704 1.67734 13.7109 1.28772 11.8828C0.898111 10.0547 1.09268 8.15041 1.84396 6.43888C2.59523 4.72735 3.86523 3.2951 5.47457 2.34444C7.08392 1.39378 8.95126 0.97276 10.8128 1.14084C12.6744 1.30892 14.4362 2.05762 15.8492 3.28117C17.2622 4.50472 18.2551 6.14128 18.6877 7.9597C19.1203 9.77812 18.9706 11.6865 18.2598 13.4152C17.8063 14.498 17.1475 15.4827 16.3198 16.3152Z" fill="white"/>
</svg>
