<svg width="80" height="80" viewBox="0 0 80 80" fill="none" xmlns="http://www.w3.org/2000/svg">
<path d="M20 32.055V7.5C20 6.83696 20.2634 6.20107 20.7322 5.73223C21.2011 5.26339 21.837 5 22.5 5C23.163 5 23.7989 5.26339 24.2678 5.73223C24.7366 6.20107 25 6.83696 25 7.5V32.055C26.4629 31.5378 27.7294 30.5796 28.6249 29.3125C29.5204 28.0453 30.0008 26.5316 30 24.98V7.5C30 6.83696 30.2634 6.20107 30.7322 5.73223C31.2011 5.26339 31.837 5 32.5 5C33.163 5 33.7989 5.26339 34.2678 5.73223C34.7366 6.20107 35 6.83696 35 7.5V24.98C35.0006 27.8616 34.0055 30.655 32.1833 32.8873C30.361 35.1195 27.8234 36.6537 25 37.23V72.5C25 73.163 24.7366 73.7989 24.2678 74.2678C23.7989 74.7366 23.163 75 22.5 75C21.837 75 21.2011 74.7366 20.7322 74.2678C20.2634 73.7989 20 73.163 20 72.5V37.23C17.1766 36.6537 14.639 35.1195 12.8167 32.8873C10.9945 30.655 9.99941 27.8616 10 24.98V7.5C10 6.83696 10.2634 6.20107 10.7322 5.73223C11.2011 5.26339 11.837 5 12.5 5C13.163 5 13.7989 5.26339 14.2678 5.73223C14.7366 6.20107 15 6.83696 15 7.5V24.98C14.9992 26.5316 15.4796 28.0453 16.3751 29.3125C17.2706 30.5796 18.5371 31.5378 20 32.055ZM52.5 44.725C45.405 43.135 40 34.91 40 25C40 13.95 46.715 5 55 5C63.285 5 70 13.95 70 25C70 34.91 64.595 43.135 57.5 44.725V72.5C57.5 73.163 57.2366 73.7989 56.7678 74.2678C56.2989 74.7366 55.663 75 55 75C54.337 75 53.7011 74.7366 53.2322 74.2678C52.7634 73.7989 52.5 73.163 52.5 72.5V44.725ZM55 40C60.16 40 65 33.55 65 25C65 16.45 60.16 10 55 10C49.84 10 45 16.45 45 25C45 33.55 49.84 40 55 40Z" fill="black"/>
</svg>
