<svg width="20" height="16" viewBox="0 0 20 16" fill="none" xmlns="http://www.w3.org/2000/svg">
<path d="M17 4.22222V12.7778C17 13.1019 16.8784 13.4128 16.662 13.642C16.4457 13.8712 16.1522 14 15.8462 14H3.15385C2.84783 14 2.55434 13.8712 2.33795 13.642C2.12157 13.4128 2 13.1019 2 12.7778V4.22222M17 4.22222C17 3.89807 16.8784 3.58719 16.662 3.35798C16.4457 3.12877 16.1522 3 15.8462 3H3.15385C2.84783 3 2.55434 3.12877 2.33795 3.35798C2.12157 3.58719 2 3.89807 2 4.22222M17 4.22222L10.1565 9.24067C9.96362 9.38206 9.7346 9.45781 9.5 9.45781C9.2654 9.45781 9.03638 9.38206 8.84346 9.24067L2 4.22222" stroke="white" stroke-linecap="round" stroke-linejoin="round"/>
</svg>
