<svg width="1092" height="774" viewBox="0 0 1092 774" fill="none" xmlns="http://www.w3.org/2000/svg">
<g filter="url(#filter0_d_819_9877)">
<path d="M60 80C60 63.4314 73.4315 50 90 50H1002C1018.57 50 1032 63.4315 1032 80V673.49C1032 690.059 1018.57 703.49 1002 703.49H90C73.4314 703.49 60 690.059 60 673.49V80Z" fill="white"/>
<path d="M62.5 80C62.5 64.8122 74.8122 52.5 90 52.5H1002C1017.19 52.5 1029.5 64.8122 1029.5 80V673.49C1029.5 688.678 1017.19 700.99 1002 700.99H90C74.8122 700.99 62.5 688.678 62.5 673.49V80Z" stroke="#0C0A72" stroke-width="5"/>
</g>
<rect x="879.5" y="195.5" width="107" height="28" rx="3.5" fill="#DEFFC5"/>
<rect x="879.5" y="195.5" width="107" height="28" rx="3.5" stroke="#0C8E48"/>
<path d="M905.916 212.012H901.842L901.142 214H899.476L902.962 204.256H904.81L908.296 214H906.616L905.916 212.012ZM905.468 210.71L903.886 206.188L902.29 210.71H905.468ZM909.14 210.136C909.14 209.343 909.298 208.647 909.616 208.05C909.942 207.443 910.39 206.977 910.96 206.65C911.529 206.323 912.182 206.16 912.92 206.16C913.853 206.16 914.623 206.384 915.23 206.832C915.846 207.271 916.261 207.901 916.476 208.722H914.754C914.614 208.339 914.39 208.041 914.082 207.826C913.774 207.611 913.386 207.504 912.92 207.504C912.266 207.504 911.744 207.737 911.352 208.204C910.969 208.661 910.778 209.305 910.778 210.136C910.778 210.967 910.969 211.615 911.352 212.082C911.744 212.549 912.266 212.782 912.92 212.782C913.844 212.782 914.455 212.376 914.754 211.564H916.476C916.252 212.348 915.832 212.973 915.216 213.44C914.6 213.897 913.834 214.126 912.92 214.126C912.182 214.126 911.529 213.963 910.96 213.636C910.39 213.3 909.942 212.833 909.616 212.236C909.298 211.629 909.14 210.929 909.14 210.136ZM917.394 210.136C917.394 209.343 917.553 208.647 917.87 208.05C918.197 207.443 918.645 206.977 919.214 206.65C919.784 206.323 920.437 206.16 921.174 206.16C922.108 206.16 922.878 206.384 923.484 206.832C924.1 207.271 924.516 207.901 924.73 208.722H923.008C922.868 208.339 922.644 208.041 922.336 207.826C922.028 207.611 921.641 207.504 921.174 207.504C920.521 207.504 919.998 207.737 919.606 208.204C919.224 208.661 919.032 209.305 919.032 210.136C919.032 210.967 919.224 211.615 919.606 212.082C919.998 212.549 920.521 212.782 921.174 212.782C922.098 212.782 922.71 212.376 923.008 211.564H924.73C924.506 212.348 924.086 212.973 923.47 213.44C922.854 213.897 922.089 214.126 921.174 214.126C920.437 214.126 919.784 213.963 919.214 213.636C918.645 213.3 918.197 212.833 917.87 212.236C917.553 211.629 917.394 210.929 917.394 210.136ZM933.251 209.954C933.251 210.243 933.232 210.505 933.195 210.738H927.301C927.347 211.354 927.576 211.849 927.987 212.222C928.397 212.595 928.901 212.782 929.499 212.782C930.357 212.782 930.964 212.423 931.319 211.704H933.041C932.807 212.413 932.383 212.997 931.767 213.454C931.16 213.902 930.404 214.126 929.499 214.126C928.761 214.126 928.099 213.963 927.511 213.636C926.932 213.3 926.475 212.833 926.139 212.236C925.812 211.629 925.649 210.929 925.649 210.136C925.649 209.343 925.807 208.647 926.125 208.05C926.451 207.443 926.904 206.977 927.483 206.65C928.071 206.323 928.743 206.16 929.499 206.16C930.227 206.16 930.875 206.319 931.445 206.636C932.014 206.953 932.457 207.401 932.775 207.98C933.092 208.549 933.251 209.207 933.251 209.954ZM931.585 209.45C931.575 208.862 931.365 208.391 930.955 208.036C930.544 207.681 930.035 207.504 929.429 207.504C928.878 207.504 928.407 207.681 928.015 208.036C927.623 208.381 927.389 208.853 927.315 209.45H931.585ZM936.277 207.42C936.548 207.065 936.917 206.767 937.383 206.524C937.85 206.281 938.377 206.16 938.965 206.16C939.637 206.16 940.249 206.328 940.799 206.664C941.359 206.991 941.798 207.453 942.115 208.05C942.433 208.647 942.591 209.333 942.591 210.108C942.591 210.883 942.433 211.578 942.115 212.194C941.798 212.801 941.359 213.277 940.799 213.622C940.249 213.958 939.637 214.126 938.965 214.126C938.377 214.126 937.855 214.009 937.397 213.776C936.94 213.533 936.567 213.235 936.277 212.88V217.668H934.681V206.286H936.277V207.42ZM940.967 210.108C940.967 209.576 940.855 209.119 940.631 208.736C940.417 208.344 940.127 208.05 939.763 207.854C939.409 207.649 939.026 207.546 938.615 207.546C938.214 207.546 937.831 207.649 937.467 207.854C937.113 208.059 936.823 208.358 936.599 208.75C936.385 209.142 936.277 209.604 936.277 210.136C936.277 210.668 936.385 211.135 936.599 211.536C936.823 211.928 937.113 212.227 937.467 212.432C937.831 212.637 938.214 212.74 938.615 212.74C939.026 212.74 939.409 212.637 939.763 212.432C940.127 212.217 940.417 211.909 940.631 211.508C940.855 211.107 940.967 210.64 940.967 210.108ZM945.892 207.588V211.858C945.892 212.147 945.957 212.357 946.088 212.488C946.228 212.609 946.461 212.67 946.788 212.67H947.768V214H946.508C945.789 214 945.238 213.832 944.856 213.496C944.473 213.16 944.282 212.614 944.282 211.858V207.588H943.372V206.286H944.282V204.368H945.892V206.286H947.768V207.588H945.892ZM956.169 209.954C956.169 210.243 956.15 210.505 956.113 210.738H950.219C950.265 211.354 950.494 211.849 950.905 212.222C951.315 212.595 951.819 212.782 952.417 212.782C953.275 212.782 953.882 212.423 954.237 211.704H955.959C955.725 212.413 955.301 212.997 954.685 213.454C954.078 213.902 953.322 214.126 952.417 214.126C951.679 214.126 951.017 213.963 950.429 213.636C949.85 213.3 949.393 212.833 949.057 212.236C948.73 211.629 948.567 210.929 948.567 210.136C948.567 209.343 948.725 208.647 949.043 208.05C949.369 207.443 949.822 206.977 950.401 206.65C950.989 206.323 951.661 206.16 952.417 206.16C953.145 206.16 953.793 206.319 954.363 206.636C954.932 206.953 955.375 207.401 955.693 207.98C956.01 208.549 956.169 209.207 956.169 209.954ZM954.503 209.45C954.493 208.862 954.283 208.391 953.873 208.036C953.462 207.681 952.953 207.504 952.347 207.504C951.796 207.504 951.325 207.681 950.933 208.036C950.541 208.381 950.307 208.853 950.233 209.45H954.503ZM957.067 210.108C957.067 209.333 957.226 208.647 957.543 208.05C957.87 207.453 958.309 206.991 958.859 206.664C959.419 206.328 960.04 206.16 960.721 206.16C961.225 206.16 961.72 206.272 962.205 206.496C962.7 206.711 963.092 207 963.381 207.364V203.64H964.991V214H963.381V212.838C963.12 213.211 962.756 213.519 962.289 213.762C961.832 214.005 961.305 214.126 960.707 214.126C960.035 214.126 959.419 213.958 958.859 213.622C958.309 213.277 957.87 212.801 957.543 212.194C957.226 211.578 957.067 210.883 957.067 210.108ZM963.381 210.136C963.381 209.604 963.269 209.142 963.045 208.75C962.831 208.358 962.546 208.059 962.191 207.854C961.837 207.649 961.454 207.546 961.043 207.546C960.633 207.546 960.25 207.649 959.895 207.854C959.541 208.05 959.251 208.344 959.027 208.736C958.813 209.119 958.705 209.576 958.705 210.108C958.705 210.64 958.813 211.107 959.027 211.508C959.251 211.909 959.541 212.217 959.895 212.432C960.259 212.637 960.642 212.74 961.043 212.74C961.454 212.74 961.837 212.637 962.191 212.432C962.546 212.227 962.831 211.928 963.045 211.536C963.269 211.135 963.381 210.668 963.381 210.136Z" fill="#0C8E48"/>
<path d="M110.873 87.5398C110.873 88.3611 110.675 89.1311 110.279 89.8498C109.898 90.5685 109.289 91.1478 108.453 91.5878C107.632 92.0278 106.591 92.2478 105.329 92.2478H102.755V98.1438H99.6752V82.7878H105.329C106.517 82.7878 107.529 82.9931 108.365 83.4038C109.201 83.8145 109.825 84.3791 110.235 85.0978C110.661 85.8165 110.873 86.6305 110.873 87.5398ZM105.197 89.7618C106.048 89.7618 106.679 89.5711 107.089 89.1898C107.5 88.7938 107.705 88.2438 107.705 87.5398C107.705 86.0438 106.869 85.2958 105.197 85.2958H102.755V89.7618H105.197ZM124.17 91.7858C124.17 92.2258 124.141 92.6218 124.082 92.9738H115.172C115.245 93.8538 115.553 94.5431 116.096 95.0418C116.639 95.5405 117.306 95.7898 118.098 95.7898C119.242 95.7898 120.056 95.2985 120.54 94.3158H123.862C123.51 95.4891 122.835 96.4571 121.838 97.2198C120.841 97.9678 119.616 98.3418 118.164 98.3418C116.991 98.3418 115.935 98.0851 114.996 97.5718C114.072 97.0438 113.346 96.3031 112.818 95.3498C112.305 94.3965 112.048 93.2965 112.048 92.0498C112.048 90.7885 112.305 89.6811 112.818 88.7278C113.331 87.7745 114.05 87.0411 114.974 86.5278C115.898 86.0145 116.961 85.7578 118.164 85.7578C119.323 85.7578 120.357 86.0071 121.266 86.5058C122.19 87.0045 122.901 87.7158 123.4 88.6398C123.913 89.5491 124.17 90.5978 124.17 91.7858ZM120.98 90.9058C120.965 90.1138 120.679 89.4831 120.122 89.0138C119.565 88.5298 118.883 88.2878 118.076 88.2878C117.313 88.2878 116.668 88.5225 116.14 88.9918C115.627 89.4465 115.311 90.0845 115.194 90.9058H120.98ZM129.278 87.8478C129.674 87.2025 130.187 86.6965 130.818 86.3298C131.463 85.9631 132.197 85.7798 133.018 85.7798V89.0138H132.204C131.236 89.0138 130.503 89.2411 130.004 89.6958C129.52 90.1505 129.278 90.9425 129.278 92.0718V98.1438H126.198V85.9558H129.278V87.8478ZM150.009 85.7798C151.505 85.7798 152.707 86.2418 153.617 87.1658C154.541 88.0751 155.003 89.3511 155.003 90.9938V98.1438H151.923V91.4118C151.923 90.4585 151.681 89.7325 151.197 89.2338C150.713 88.7205 150.053 88.4638 149.217 88.4638C148.381 88.4638 147.713 88.7205 147.215 89.2338C146.731 89.7325 146.489 90.4585 146.489 91.4118V98.1438H143.409V91.4118C143.409 90.4585 143.167 89.7325 142.683 89.2338C142.199 88.7205 141.539 88.4638 140.703 88.4638C139.852 88.4638 139.177 88.7205 138.679 89.2338C138.195 89.7325 137.953 90.4585 137.953 91.4118V98.1438H134.873V85.9558H137.953V87.4298C138.349 86.9165 138.855 86.5131 139.471 86.2198C140.101 85.9265 140.791 85.7798 141.539 85.7798C142.492 85.7798 143.343 85.9851 144.091 86.3958C144.839 86.7918 145.418 87.3638 145.829 88.1118C146.225 87.4078 146.797 86.8431 147.545 86.4178C148.307 85.9925 149.129 85.7798 150.009 85.7798ZM159.267 84.5038C158.725 84.5038 158.27 84.3351 157.903 83.9978C157.551 83.6458 157.375 83.2131 157.375 82.6998C157.375 82.1865 157.551 81.7611 157.903 81.4238C158.27 81.0718 158.725 80.8958 159.267 80.8958C159.81 80.8958 160.257 81.0718 160.609 81.4238C160.976 81.7611 161.159 82.1865 161.159 82.6998C161.159 83.2131 160.976 83.6458 160.609 83.9978C160.257 84.3351 159.81 84.5038 159.267 84.5038ZM160.785 85.9558V98.1438H157.705V85.9558H160.785ZM167.194 88.4858V94.3818C167.194 94.7925 167.29 95.0931 167.48 95.2838C167.686 95.4598 168.023 95.5478 168.492 95.5478H169.922V98.1438H167.986C165.39 98.1438 164.092 96.8825 164.092 94.3598V88.4858H162.64V85.9558H164.092V82.9418H167.194V85.9558H169.922V88.4858H167.194Z" fill="black"/>
<path d="M102.385 160.697C103.421 160.697 104.327 160.898 105.101 161.299C105.885 161.691 106.487 162.261 106.907 163.007C107.337 163.745 107.551 164.608 107.551 165.597C107.551 166.587 107.337 167.445 106.907 168.173C106.487 168.901 105.885 169.461 105.101 169.853C104.327 170.236 103.421 170.427 102.385 170.427H99.2072V160.697H102.385ZM102.385 169.125C103.524 169.125 104.397 168.817 105.003 168.201C105.61 167.585 105.913 166.717 105.913 165.597C105.913 164.468 105.61 163.586 105.003 162.951C104.397 162.317 103.524 161.999 102.385 161.999H100.803V169.125H102.385ZM108.461 166.535C108.461 165.761 108.62 165.075 108.937 164.477C109.264 163.88 109.702 163.418 110.253 163.091C110.813 162.755 111.429 162.587 112.101 162.587C112.708 162.587 113.235 162.709 113.683 162.951C114.14 163.185 114.504 163.479 114.775 163.833V162.713H116.385V170.427H114.775V169.279C114.504 169.643 114.136 169.947 113.669 170.189C113.202 170.432 112.67 170.553 112.073 170.553C111.41 170.553 110.804 170.385 110.253 170.049C109.702 169.704 109.264 169.228 108.937 168.621C108.62 168.005 108.461 167.31 108.461 166.535ZM114.775 166.563C114.775 166.031 114.663 165.569 114.439 165.177C114.224 164.785 113.94 164.487 113.585 164.281C113.23 164.076 112.848 163.973 112.437 163.973C112.026 163.973 111.644 164.076 111.289 164.281C110.934 164.477 110.645 164.771 110.421 165.163C110.206 165.546 110.099 166.003 110.099 166.535C110.099 167.067 110.206 167.534 110.421 167.935C110.645 168.337 110.934 168.645 111.289 168.859C111.653 169.065 112.036 169.167 112.437 169.167C112.848 169.167 113.23 169.065 113.585 168.859C113.94 168.654 114.224 168.355 114.439 167.963C114.663 167.562 114.775 167.095 114.775 166.563ZM120.203 164.015V168.285C120.203 168.575 120.269 168.785 120.399 168.915C120.539 169.037 120.773 169.097 121.099 169.097H122.079V170.427H120.819C120.101 170.427 119.55 170.259 119.167 169.923C118.785 169.587 118.593 169.041 118.593 168.285V164.015H117.683V162.713H118.593V160.795H120.203V162.713H122.079V164.015H120.203ZM130.48 166.381C130.48 166.671 130.462 166.932 130.424 167.165H124.53C124.577 167.781 124.806 168.276 125.216 168.649C125.627 169.023 126.131 169.209 126.728 169.209C127.587 169.209 128.194 168.85 128.548 168.131H130.27C130.037 168.841 129.612 169.424 128.996 169.881C128.39 170.329 127.634 170.553 126.728 170.553C125.991 170.553 125.328 170.39 124.74 170.063C124.162 169.727 123.704 169.261 123.368 168.663C123.042 168.057 122.878 167.357 122.878 166.563C122.878 165.77 123.037 165.075 123.354 164.477C123.681 163.871 124.134 163.404 124.712 163.077C125.3 162.751 125.972 162.587 126.728 162.587C127.456 162.587 128.105 162.746 128.674 163.063C129.244 163.381 129.687 163.829 130.004 164.407C130.322 164.977 130.48 165.635 130.48 166.381ZM128.814 165.877C128.805 165.289 128.595 164.818 128.184 164.463C127.774 164.109 127.265 163.931 126.658 163.931C126.108 163.931 125.636 164.109 125.244 164.463C124.852 164.809 124.619 165.28 124.544 165.877H128.814Z" fill="#B5B7C0"/>
<path d="M519.854 161.168C519.854 161.662 519.737 162.129 519.504 162.568C519.271 163.006 518.897 163.366 518.384 163.646C517.871 163.916 517.213 164.052 516.41 164.052H514.646V168H513.05V158.27H516.41C517.157 158.27 517.787 158.4 518.3 158.662C518.823 158.914 519.21 159.259 519.462 159.698C519.723 160.136 519.854 160.626 519.854 161.168ZM516.41 162.75C517.017 162.75 517.469 162.614 517.768 162.344C518.067 162.064 518.216 161.672 518.216 161.168C518.216 160.104 517.614 159.572 516.41 159.572H514.646V162.75H516.41ZM528.306 163.954C528.306 164.243 528.288 164.504 528.25 164.738H522.356C522.403 165.354 522.632 165.848 523.042 166.222C523.453 166.595 523.957 166.782 524.554 166.782C525.413 166.782 526.02 166.422 526.374 165.704H528.096C527.863 166.413 527.438 166.996 526.822 167.454C526.216 167.902 525.46 168.126 524.554 168.126C523.817 168.126 523.154 167.962 522.566 167.636C521.988 167.3 521.53 166.833 521.194 166.236C520.868 165.629 520.704 164.929 520.704 164.136C520.704 163.342 520.863 162.647 521.18 162.05C521.507 161.443 521.96 160.976 522.538 160.65C523.126 160.323 523.798 160.16 524.554 160.16C525.282 160.16 525.931 160.318 526.5 160.636C527.07 160.953 527.513 161.401 527.83 161.98C528.148 162.549 528.306 163.207 528.306 163.954ZM526.64 163.45C526.631 162.862 526.421 162.39 526.01 162.036C525.6 161.681 525.091 161.504 524.484 161.504C523.934 161.504 523.462 161.681 523.07 162.036C522.678 162.381 522.445 162.852 522.37 163.45H526.64ZM531.333 161.406C531.566 161.014 531.874 160.71 532.257 160.496C532.649 160.272 533.111 160.16 533.643 160.16V161.812H533.237C532.611 161.812 532.135 161.97 531.809 162.288C531.491 162.605 531.333 163.156 531.333 163.94V168H529.737V160.286H531.333V161.406ZM544.308 160.16C544.915 160.16 545.456 160.286 545.932 160.538C546.417 160.79 546.795 161.163 547.066 161.658C547.346 162.152 547.486 162.75 547.486 163.45V168H545.904V163.688C545.904 162.997 545.731 162.47 545.386 162.106C545.041 161.732 544.569 161.546 543.972 161.546C543.375 161.546 542.899 161.732 542.544 162.106C542.199 162.47 542.026 162.997 542.026 163.688V168H540.444V163.688C540.444 162.997 540.271 162.47 539.926 162.106C539.581 161.732 539.109 161.546 538.512 161.546C537.915 161.546 537.439 161.732 537.084 162.106C536.739 162.47 536.566 162.997 536.566 163.688V168H534.97V160.286H536.566V161.168C536.827 160.85 537.159 160.603 537.56 160.426C537.961 160.248 538.391 160.16 538.848 160.16C539.464 160.16 540.015 160.29 540.5 160.552C540.985 160.813 541.359 161.191 541.62 161.686C541.853 161.219 542.217 160.85 542.712 160.58C543.207 160.3 543.739 160.16 544.308 160.16ZM550.189 159.264C549.899 159.264 549.657 159.166 549.461 158.97C549.265 158.774 549.167 158.531 549.167 158.242C549.167 157.952 549.265 157.71 549.461 157.514C549.657 157.318 549.899 157.22 550.189 157.22C550.469 157.22 550.707 157.318 550.903 157.514C551.099 157.71 551.197 157.952 551.197 158.242C551.197 158.531 551.099 158.774 550.903 158.97C550.707 159.166 550.469 159.264 550.189 159.264ZM550.973 160.286V168H549.377V160.286H550.973ZM554.79 161.588V165.858C554.79 166.147 554.855 166.357 554.986 166.488C555.126 166.609 555.359 166.67 555.686 166.67H556.666V168H555.406C554.687 168 554.137 167.832 553.754 167.496C553.371 167.16 553.18 166.614 553.18 165.858V161.588H552.27V160.286H553.18V158.368H554.79V160.286H556.666V161.588H554.79ZM567.78 158.27V159.572H565.19V168H563.594V159.572H560.99V158.27H567.78ZM576.2 160.286L571.468 171.626H569.816L571.384 167.874L568.346 160.286H570.124L572.294 166.166L574.548 160.286H576.2ZM578.861 161.42C579.131 161.065 579.5 160.766 579.967 160.524C580.433 160.281 580.961 160.16 581.549 160.16C582.221 160.16 582.832 160.328 583.383 160.664C583.943 160.99 584.381 161.452 584.699 162.05C585.016 162.647 585.175 163.333 585.175 164.108C585.175 164.882 585.016 165.578 584.699 166.194C584.381 166.8 583.943 167.276 583.383 167.622C582.832 167.958 582.221 168.126 581.549 168.126C580.961 168.126 580.438 168.009 579.981 167.776C579.523 167.533 579.15 167.234 578.861 166.88V171.668H577.265V160.286H578.861V161.42ZM583.551 164.108C583.551 163.576 583.439 163.118 583.215 162.736C583 162.344 582.711 162.05 582.347 161.854C581.992 161.648 581.609 161.546 581.199 161.546C580.797 161.546 580.415 161.648 580.051 161.854C579.696 162.059 579.407 162.358 579.183 162.75C578.968 163.142 578.861 163.604 578.861 164.136C578.861 164.668 578.968 165.134 579.183 165.536C579.407 165.928 579.696 166.226 580.051 166.432C580.415 166.637 580.797 166.74 581.199 166.74C581.609 166.74 581.992 166.637 582.347 166.432C582.711 166.217 583 165.909 583.215 165.508C583.439 165.106 583.551 164.64 583.551 164.108ZM593.683 163.954C593.683 164.243 593.664 164.504 593.627 164.738H587.733C587.78 165.354 588.008 165.848 588.419 166.222C588.83 166.595 589.334 166.782 589.931 166.782C590.79 166.782 591.396 166.422 591.751 165.704H593.473C593.24 166.413 592.815 166.996 592.199 167.454C591.592 167.902 590.836 168.126 589.931 168.126C589.194 168.126 588.531 167.962 587.943 167.636C587.364 167.3 586.907 166.833 586.571 166.236C586.244 165.629 586.081 164.929 586.081 164.136C586.081 163.342 586.24 162.647 586.557 162.05C586.884 161.443 587.336 160.976 587.915 160.65C588.503 160.323 589.175 160.16 589.931 160.16C590.659 160.16 591.308 160.318 591.877 160.636C592.446 160.953 592.89 161.401 593.207 161.98C593.524 162.549 593.683 163.207 593.683 163.954ZM592.017 163.45C592.008 162.862 591.798 162.39 591.387 162.036C590.976 161.681 590.468 161.504 589.861 161.504C589.31 161.504 588.839 161.681 588.447 162.036C588.055 162.381 587.822 162.852 587.747 163.45H592.017Z" fill="#B5B7C0"/>
<path d="M884.736 172.098C884.083 172.098 883.495 171.986 882.972 171.762C882.449 171.528 882.039 171.202 881.74 170.782C881.441 170.362 881.292 169.872 881.292 169.312H883C883.037 169.732 883.201 170.077 883.49 170.348C883.789 170.618 884.204 170.754 884.736 170.754C885.287 170.754 885.716 170.623 886.024 170.362C886.332 170.091 886.486 169.746 886.486 169.326C886.486 168.999 886.388 168.733 886.192 168.528C886.005 168.322 885.767 168.164 885.478 168.052C885.198 167.94 884.806 167.818 884.302 167.688C883.667 167.52 883.149 167.352 882.748 167.184C882.356 167.006 882.02 166.736 881.74 166.372C881.46 166.008 881.32 165.522 881.32 164.916C881.32 164.356 881.46 163.866 881.74 163.446C882.02 163.026 882.412 162.704 882.916 162.48C883.42 162.256 884.003 162.144 884.666 162.144C885.609 162.144 886.379 162.382 886.976 162.858C887.583 163.324 887.919 163.968 887.984 164.79H886.22C886.192 164.435 886.024 164.132 885.716 163.88C885.408 163.628 885.002 163.502 884.498 163.502C884.041 163.502 883.667 163.618 883.378 163.852C883.089 164.085 882.944 164.421 882.944 164.86C882.944 165.158 883.033 165.406 883.21 165.602C883.397 165.788 883.63 165.938 883.91 166.05C884.19 166.162 884.573 166.283 885.058 166.414C885.702 166.591 886.225 166.768 886.626 166.946C887.037 167.123 887.382 167.398 887.662 167.772C887.951 168.136 888.096 168.626 888.096 169.242C888.096 169.736 887.961 170.203 887.69 170.642C887.429 171.08 887.041 171.435 886.528 171.706C886.024 171.967 885.427 172.098 884.736 172.098ZM891.701 165.588V169.858C891.701 170.147 891.767 170.357 891.897 170.488C892.037 170.609 892.271 170.67 892.597 170.67H893.577V172H892.317C891.599 172 891.048 171.832 890.665 171.496C890.283 171.16 890.091 170.614 890.091 169.858V165.588H889.181V164.286H890.091V162.368H891.701V164.286H893.577V165.588H891.701ZM894.376 168.108C894.376 167.333 894.535 166.647 894.852 166.05C895.179 165.452 895.618 164.99 896.168 164.664C896.728 164.328 897.344 164.16 898.016 164.16C898.623 164.16 899.15 164.281 899.598 164.524C900.056 164.757 900.42 165.051 900.69 165.406V164.286H902.3V172H900.69V170.852C900.42 171.216 900.051 171.519 899.584 171.762C899.118 172.004 898.586 172.126 897.988 172.126C897.326 172.126 896.719 171.958 896.168 171.622C895.618 171.276 895.179 170.8 894.852 170.194C894.535 169.578 894.376 168.882 894.376 168.108ZM900.69 168.136C900.69 167.604 900.578 167.142 900.354 166.75C900.14 166.358 899.855 166.059 899.5 165.854C899.146 165.648 898.763 165.546 898.352 165.546C897.942 165.546 897.559 165.648 897.204 165.854C896.85 166.05 896.56 166.344 896.336 166.736C896.122 167.118 896.014 167.576 896.014 168.108C896.014 168.64 896.122 169.106 896.336 169.508C896.56 169.909 896.85 170.217 897.204 170.432C897.568 170.637 897.951 170.74 898.352 170.74C898.763 170.74 899.146 170.637 899.5 170.432C899.855 170.226 900.14 169.928 900.354 169.536C900.578 169.134 900.69 168.668 900.69 168.136ZM906.119 165.588V169.858C906.119 170.147 906.184 170.357 906.315 170.488C906.455 170.609 906.688 170.67 907.015 170.67H907.995V172H906.735C906.016 172 905.465 171.832 905.083 171.496C904.7 171.16 904.509 170.614 904.509 169.858V165.588H903.599V164.286H904.509V162.368H906.119V164.286H907.995V165.588H906.119ZM916.312 164.286V172H914.716V171.09C914.464 171.407 914.132 171.659 913.722 171.846C913.32 172.023 912.891 172.112 912.434 172.112C911.827 172.112 911.281 171.986 910.796 171.734C910.32 171.482 909.942 171.108 909.662 170.614C909.391 170.119 909.256 169.522 909.256 168.822V164.286H910.838V168.584C910.838 169.274 911.01 169.806 911.356 170.18C911.701 170.544 912.172 170.726 912.77 170.726C913.367 170.726 913.838 170.544 914.184 170.18C914.538 169.806 914.716 169.274 914.716 168.584V164.286H916.312ZM921.077 172.126C920.471 172.126 919.925 172.018 919.439 171.804C918.963 171.58 918.585 171.281 918.305 170.908C918.025 170.525 917.876 170.1 917.857 169.634H919.509C919.537 169.96 919.691 170.236 919.971 170.46C920.261 170.674 920.62 170.782 921.049 170.782C921.497 170.782 921.843 170.698 922.085 170.53C922.337 170.352 922.463 170.128 922.463 169.858C922.463 169.568 922.323 169.354 922.043 169.214C921.773 169.074 921.339 168.92 920.741 168.752C920.163 168.593 919.691 168.439 919.327 168.29C918.963 168.14 918.646 167.912 918.375 167.604C918.114 167.296 917.983 166.89 917.983 166.386C917.983 165.975 918.105 165.602 918.347 165.266C918.59 164.92 918.935 164.65 919.383 164.454C919.841 164.258 920.363 164.16 920.951 164.16C921.829 164.16 922.533 164.384 923.065 164.832C923.607 165.27 923.896 165.872 923.933 166.638H922.337C922.309 166.292 922.169 166.017 921.917 165.812C921.665 165.606 921.325 165.504 920.895 165.504C920.475 165.504 920.153 165.583 919.929 165.742C919.705 165.9 919.593 166.11 919.593 166.372C919.593 166.577 919.668 166.75 919.817 166.89C919.967 167.03 920.149 167.142 920.363 167.226C920.578 167.3 920.895 167.398 921.315 167.52C921.875 167.669 922.333 167.823 922.687 167.982C923.051 168.131 923.364 168.355 923.625 168.654C923.887 168.952 924.022 169.349 924.031 169.844C924.031 170.282 923.91 170.674 923.667 171.02C923.425 171.365 923.079 171.636 922.631 171.832C922.193 172.028 921.675 172.126 921.077 172.126Z" fill="#B5B7C0"/>
<path d="M99.722 218.83C100.618 218.055 101.323 217.421 101.836 216.926C102.359 216.422 102.793 215.899 103.138 215.358C103.483 214.817 103.656 214.275 103.656 213.734C103.656 213.174 103.521 212.735 103.25 212.418C102.989 212.101 102.573 211.942 102.004 211.942C101.453 211.942 101.024 212.119 100.716 212.474C100.417 212.819 100.259 213.286 100.24 213.874H98.7C98.728 212.81 99.0453 211.998 99.652 211.438C100.268 210.869 101.047 210.584 101.99 210.584C103.007 210.584 103.801 210.864 104.37 211.424C104.949 211.984 105.238 212.731 105.238 213.664C105.238 214.336 105.065 214.985 104.72 215.61C104.384 216.226 103.978 216.781 103.502 217.276C103.035 217.761 102.438 218.326 101.71 218.97L101.08 219.53H105.518V220.86H98.714V219.698L99.722 218.83ZM108.768 218.228C108.861 218.695 109.062 219.049 109.37 219.292C109.678 219.535 110.093 219.656 110.616 219.656C111.279 219.656 111.764 219.395 112.072 218.872C112.38 218.349 112.534 217.458 112.534 216.198C112.31 216.515 111.993 216.763 111.582 216.94C111.181 217.108 110.742 217.192 110.266 217.192C109.659 217.192 109.109 217.071 108.614 216.828C108.119 216.576 107.727 216.207 107.438 215.722C107.158 215.227 107.018 214.63 107.018 213.93C107.018 212.903 107.317 212.087 107.914 211.48C108.521 210.864 109.351 210.556 110.406 210.556C111.675 210.556 112.576 210.981 113.108 211.83C113.649 212.67 113.92 213.963 113.92 215.708C113.92 216.912 113.817 217.897 113.612 218.662C113.416 219.427 113.071 220.006 112.576 220.398C112.081 220.79 111.395 220.986 110.518 220.986C109.519 220.986 108.749 220.725 108.208 220.202C107.667 219.679 107.363 219.021 107.298 218.228H108.768ZM110.546 215.848C111.106 215.848 111.545 215.675 111.862 215.33C112.189 214.975 112.352 214.509 112.352 213.93C112.352 213.286 112.179 212.787 111.834 212.432C111.498 212.068 111.036 211.886 110.448 211.886C109.86 211.886 109.393 212.073 109.048 212.446C108.712 212.81 108.544 213.291 108.544 213.888C108.544 214.457 108.707 214.929 109.034 215.302C109.37 215.666 109.874 215.848 110.546 215.848ZM129.482 211.27V221H127.886V214.336L124.918 221H123.812L120.83 214.336V221H119.234V211.27H120.956L124.372 218.9L127.774 211.27H129.482ZM130.907 217.108C130.907 216.333 131.066 215.647 131.383 215.05C131.71 214.453 132.149 213.991 132.699 213.664C133.259 213.328 133.875 213.16 134.547 213.16C135.154 213.16 135.681 213.281 136.129 213.524C136.587 213.757 136.951 214.051 137.221 214.406V213.286H138.831V221H137.221V219.852C136.951 220.216 136.582 220.519 136.115 220.762C135.649 221.005 135.117 221.126 134.519 221.126C133.857 221.126 133.25 220.958 132.699 220.622C132.149 220.277 131.71 219.801 131.383 219.194C131.066 218.578 130.907 217.883 130.907 217.108ZM137.221 217.136C137.221 216.604 137.109 216.142 136.885 215.75C136.671 215.358 136.386 215.059 136.031 214.854C135.677 214.649 135.294 214.546 134.883 214.546C134.473 214.546 134.09 214.649 133.735 214.854C133.381 215.05 133.091 215.344 132.867 215.736C132.653 216.119 132.545 216.576 132.545 217.108C132.545 217.64 132.653 218.107 132.867 218.508C133.091 218.909 133.381 219.217 133.735 219.432C134.099 219.637 134.482 219.74 134.883 219.74C135.294 219.74 135.677 219.637 136.031 219.432C136.386 219.227 136.671 218.928 136.885 218.536C137.109 218.135 137.221 217.668 137.221 217.136ZM142.383 214.406C142.617 214.014 142.925 213.711 143.307 213.496C143.699 213.272 144.161 213.16 144.693 213.16V214.812H144.287C143.662 214.812 143.186 214.971 142.859 215.288C142.542 215.605 142.383 216.156 142.383 216.94V221H140.787V213.286H142.383V214.406ZM153.091 216.954C153.091 217.243 153.072 217.505 153.035 217.738H147.141C147.187 218.354 147.416 218.849 147.827 219.222C148.237 219.595 148.741 219.782 149.339 219.782C150.197 219.782 150.804 219.423 151.159 218.704H152.881C152.647 219.413 152.223 219.997 151.607 220.454C151 220.902 150.244 221.126 149.339 221.126C148.601 221.126 147.939 220.963 147.351 220.636C146.772 220.3 146.315 219.833 145.979 219.236C145.652 218.629 145.489 217.929 145.489 217.136C145.489 216.343 145.647 215.647 145.965 215.05C146.291 214.443 146.744 213.977 147.323 213.65C147.911 213.323 148.583 213.16 149.339 213.16C150.067 213.16 150.715 213.319 151.285 213.636C151.854 213.953 152.297 214.401 152.615 214.98C152.932 215.549 153.091 216.207 153.091 216.954ZM151.425 216.45C151.415 215.862 151.205 215.391 150.795 215.036C150.384 214.681 149.875 214.504 149.269 214.504C148.718 214.504 148.247 214.681 147.855 215.036C147.463 215.381 147.229 215.853 147.155 216.45H151.425ZM156.383 214.588V218.858C156.383 219.147 156.449 219.357 156.579 219.488C156.719 219.609 156.953 219.67 157.279 219.67H158.259V221H156.999C156.281 221 155.73 220.832 155.347 220.496C154.965 220.16 154.773 219.614 154.773 218.858V214.588H153.863V213.286H154.773V211.368H156.383V213.286H158.259V214.588H156.383ZM163.759 218.83C164.655 218.055 165.36 217.421 165.873 216.926C166.396 216.422 166.83 215.899 167.175 215.358C167.52 214.817 167.693 214.275 167.693 213.734C167.693 213.174 167.558 212.735 167.287 212.418C167.026 212.101 166.61 211.942 166.041 211.942C165.49 211.942 165.061 212.119 164.753 212.474C164.454 212.819 164.296 213.286 164.277 213.874H162.737C162.765 212.81 163.082 211.998 163.689 211.438C164.305 210.869 165.084 210.584 166.027 210.584C167.044 210.584 167.838 210.864 168.407 211.424C168.986 211.984 169.275 212.731 169.275 213.664C169.275 214.336 169.102 214.985 168.757 215.61C168.421 216.226 168.015 216.781 167.539 217.276C167.072 217.761 166.475 218.326 165.747 218.97L165.117 219.53H169.555V220.86H162.751V219.698L163.759 218.83ZM170.817 215.764C170.817 214.149 171.088 212.889 171.629 211.984C172.18 211.069 173.122 210.612 174.457 210.612C175.792 210.612 176.73 211.069 177.271 211.984C177.822 212.889 178.097 214.149 178.097 215.764C178.097 217.397 177.822 218.676 177.271 219.6C176.73 220.515 175.792 220.972 174.457 220.972C173.122 220.972 172.18 220.515 171.629 219.6C171.088 218.676 170.817 217.397 170.817 215.764ZM176.529 215.764C176.529 215.008 176.478 214.369 176.375 213.846C176.282 213.323 176.086 212.899 175.787 212.572C175.488 212.236 175.045 212.068 174.457 212.068C173.869 212.068 173.426 212.236 173.127 212.572C172.828 212.899 172.628 213.323 172.525 213.846C172.432 214.369 172.385 215.008 172.385 215.764C172.385 216.548 172.432 217.206 172.525 217.738C172.618 218.27 172.814 218.699 173.113 219.026C173.421 219.353 173.869 219.516 174.457 219.516C175.045 219.516 175.488 219.353 175.787 219.026C176.095 218.699 176.296 218.27 176.389 217.738C176.482 217.206 176.529 216.548 176.529 215.764ZM180.528 218.83C181.424 218.055 182.128 217.421 182.642 216.926C183.164 216.422 183.598 215.899 183.944 215.358C184.289 214.817 184.462 214.275 184.462 213.734C184.462 213.174 184.326 212.735 184.056 212.418C183.794 212.101 183.379 211.942 182.81 211.942C182.259 211.942 181.83 212.119 181.522 212.474C181.223 212.819 181.064 213.286 181.046 213.874H179.506C179.534 212.81 179.851 211.998 180.458 211.438C181.074 210.869 181.853 210.584 182.796 210.584C183.813 210.584 184.606 210.864 185.176 211.424C185.754 211.984 186.044 212.731 186.044 213.664C186.044 214.336 185.871 214.985 185.526 215.61C185.19 216.226 184.784 216.781 184.308 217.276C183.841 217.761 183.244 218.326 182.516 218.97L181.886 219.53H186.324V220.86H179.52V219.698L180.528 218.83ZM188.468 218.83C189.364 218.055 190.068 217.421 190.582 216.926C191.104 216.422 191.538 215.899 191.884 215.358C192.229 214.817 192.402 214.275 192.402 213.734C192.402 213.174 192.266 212.735 191.996 212.418C191.734 212.101 191.319 211.942 190.75 211.942C190.199 211.942 189.77 212.119 189.462 212.474C189.163 212.819 189.004 213.286 188.986 213.874H187.446C187.474 212.81 187.791 211.998 188.398 211.438C189.014 210.869 189.793 210.584 190.736 210.584C191.753 210.584 192.546 210.864 193.116 211.424C193.694 211.984 193.984 212.731 193.984 213.664C193.984 214.336 193.811 214.985 193.466 215.61C193.13 216.226 192.724 216.781 192.248 217.276C191.781 217.761 191.184 218.326 190.456 218.97L189.826 219.53H194.264V220.86H187.46V219.698L188.468 218.83ZM195.33 218.872V217.668L200.034 210.92H201.966V217.486H203.268V218.872H201.966V221H200.398V218.872H195.33ZM200.468 212.544L197.164 217.486H200.468V212.544Z" fill="#292D32"/>
<path d="M514.646 212.558V215.414H518.006V216.716H514.646V219.698H518.426V221H513.05V211.256H518.426V212.558H514.646ZM523.556 217.094L526.048 221H524.242L522.576 218.382L521.008 221H519.342L521.834 217.206L519.342 213.286H521.148L522.814 215.904L524.382 213.286H526.048L523.556 217.094ZM527.91 212.264C527.621 212.264 527.378 212.166 527.182 211.97C526.986 211.774 526.888 211.532 526.888 211.242C526.888 210.953 526.986 210.71 527.182 210.514C527.378 210.318 527.621 210.22 527.91 210.22C528.19 210.22 528.428 210.318 528.624 210.514C528.82 210.71 528.918 210.953 528.918 211.242C528.918 211.532 528.82 211.774 528.624 211.97C528.428 212.166 528.19 212.264 527.91 212.264ZM528.694 213.286V221H527.098V213.286H528.694ZM532.512 214.588V218.858C532.512 219.148 532.577 219.358 532.708 219.488C532.848 219.61 533.081 219.67 533.408 219.67H534.388V221H533.128C532.409 221 531.858 220.832 531.476 220.496C531.093 220.16 530.902 219.614 530.902 218.858V214.588H529.992V213.286H530.902V211.368H532.512V213.286H534.388V214.588H532.512Z" fill="#292D32"/>
<path d="M104.328 267.16C104.225 266.731 104.039 266.409 103.768 266.194C103.497 265.979 103.119 265.872 102.634 265.872C101.897 265.872 101.346 266.157 100.982 266.726C100.618 267.286 100.427 268.219 100.408 269.526C100.651 269.115 101.005 268.798 101.472 268.574C101.939 268.35 102.443 268.238 102.984 268.238C103.6 268.238 104.141 268.373 104.608 268.644C105.084 268.905 105.453 269.288 105.714 269.792C105.985 270.296 106.12 270.898 106.12 271.598C106.12 272.251 105.989 272.835 105.728 273.348C105.476 273.861 105.098 274.267 104.594 274.566C104.09 274.855 103.483 275 102.774 275C101.813 275 101.057 274.79 100.506 274.37C99.9647 273.941 99.582 273.339 99.358 272.564C99.1433 271.789 99.036 270.823 99.036 269.666C99.036 266.25 100.24 264.542 102.648 264.542C103.581 264.542 104.314 264.794 104.846 265.298C105.387 265.802 105.705 266.423 105.798 267.16H104.328ZM102.634 269.582C102.065 269.582 101.579 269.755 101.178 270.1C100.786 270.436 100.59 270.926 100.59 271.57C100.59 272.214 100.772 272.727 101.136 273.11C101.509 273.483 102.027 273.67 102.69 273.67C103.278 273.67 103.74 273.488 104.076 273.124C104.421 272.76 104.594 272.275 104.594 271.668C104.594 271.033 104.426 270.529 104.09 270.156C103.763 269.773 103.278 269.582 102.634 269.582ZM117.255 273.012H113.181L112.481 275H110.815L114.301 265.256H116.149L119.635 275H117.955L117.255 273.012ZM116.807 271.71L115.225 267.188L113.629 271.71H116.807ZM122.607 268.42C122.878 268.065 123.246 267.767 123.713 267.524C124.18 267.281 124.707 267.16 125.295 267.16C125.967 267.16 126.578 267.328 127.129 267.664C127.689 267.991 128.128 268.453 128.445 269.05C128.762 269.647 128.921 270.333 128.921 271.108C128.921 271.883 128.762 272.578 128.445 273.194C128.128 273.801 127.689 274.277 127.129 274.622C126.578 274.958 125.967 275.126 125.295 275.126C124.707 275.126 124.184 275.009 123.727 274.776C123.27 274.533 122.896 274.235 122.607 273.88V278.668H121.011V267.286H122.607V268.42ZM127.297 271.108C127.297 270.576 127.185 270.119 126.961 269.736C126.746 269.344 126.457 269.05 126.093 268.854C125.738 268.649 125.356 268.546 124.945 268.546C124.544 268.546 124.161 268.649 123.797 268.854C123.442 269.059 123.153 269.358 122.929 269.75C122.714 270.142 122.607 270.604 122.607 271.136C122.607 271.668 122.714 272.135 122.929 272.536C123.153 272.928 123.442 273.227 123.797 273.432C124.161 273.637 124.544 273.74 124.945 273.74C125.356 273.74 125.738 273.637 126.093 273.432C126.457 273.217 126.746 272.909 126.961 272.508C127.185 272.107 127.297 271.64 127.297 271.108ZM131.955 268.406C132.188 268.014 132.496 267.711 132.879 267.496C133.271 267.272 133.733 267.16 134.265 267.16V268.812H133.859C133.234 268.812 132.758 268.971 132.431 269.288C132.114 269.605 131.955 270.156 131.955 270.94V275H130.359V267.286H131.955V268.406ZM136.404 266.264C136.115 266.264 135.872 266.166 135.676 265.97C135.48 265.774 135.382 265.531 135.382 265.242C135.382 264.953 135.48 264.71 135.676 264.514C135.872 264.318 136.115 264.22 136.404 264.22C136.684 264.22 136.922 264.318 137.118 264.514C137.314 264.71 137.412 264.953 137.412 265.242C137.412 265.531 137.314 265.774 137.118 265.97C136.922 266.166 136.684 266.264 136.404 266.264ZM137.188 267.286V275H135.592V267.286H137.188ZM140.74 264.64V275H139.144V264.64H140.74ZM146.864 272.83C147.76 272.055 148.464 271.421 148.978 270.926C149.5 270.422 149.934 269.899 150.28 269.358C150.625 268.817 150.798 268.275 150.798 267.734C150.798 267.174 150.662 266.735 150.392 266.418C150.13 266.101 149.715 265.942 149.146 265.942C148.595 265.942 148.166 266.119 147.858 266.474C147.559 266.819 147.4 267.286 147.382 267.874H145.842C145.87 266.81 146.187 265.998 146.794 265.438C147.41 264.869 148.189 264.584 149.132 264.584C150.149 264.584 150.942 264.864 151.512 265.424C152.09 265.984 152.38 266.731 152.38 267.664C152.38 268.336 152.207 268.985 151.862 269.61C151.526 270.226 151.12 270.781 150.644 271.276C150.177 271.761 149.58 272.326 148.852 272.97L148.222 273.53H152.66V274.86H145.856V273.698L146.864 272.83ZM153.922 269.764C153.922 268.149 154.192 266.889 154.734 265.984C155.284 265.069 156.227 264.612 157.562 264.612C158.896 264.612 159.834 265.069 160.376 265.984C160.926 266.889 161.202 268.149 161.202 269.764C161.202 271.397 160.926 272.676 160.376 273.6C159.834 274.515 158.896 274.972 157.562 274.972C156.227 274.972 155.284 274.515 154.734 273.6C154.192 272.676 153.922 271.397 153.922 269.764ZM159.634 269.764C159.634 269.008 159.582 268.369 159.48 267.846C159.386 267.323 159.19 266.899 158.892 266.572C158.593 266.236 158.15 266.068 157.562 266.068C156.974 266.068 156.53 266.236 156.232 266.572C155.933 266.899 155.732 267.323 155.63 267.846C155.536 268.369 155.49 269.008 155.49 269.764C155.49 270.548 155.536 271.206 155.63 271.738C155.723 272.27 155.919 272.699 156.218 273.026C156.526 273.353 156.974 273.516 157.562 273.516C158.15 273.516 158.593 273.353 158.892 273.026C159.2 272.699 159.4 272.27 159.494 271.738C159.587 271.206 159.634 270.548 159.634 269.764ZM163.633 272.83C164.529 272.055 165.233 271.421 165.747 270.926C166.269 270.422 166.703 269.899 167.049 269.358C167.394 268.817 167.567 268.275 167.567 267.734C167.567 267.174 167.431 266.735 167.161 266.418C166.899 266.101 166.484 265.942 165.915 265.942C165.364 265.942 164.935 266.119 164.627 266.474C164.328 266.819 164.169 267.286 164.151 267.874H162.611C162.639 266.81 162.956 265.998 163.563 265.438C164.179 264.869 164.958 264.584 165.901 264.584C166.918 264.584 167.711 264.864 168.281 265.424C168.859 265.984 169.149 266.731 169.149 267.664C169.149 268.336 168.976 268.985 168.631 269.61C168.295 270.226 167.889 270.781 167.413 271.276C166.946 271.761 166.349 272.326 165.621 272.97L164.991 273.53H169.429V274.86H162.625V273.698L163.633 272.83ZM170.495 272.872V271.668L175.199 264.92H177.131V271.486H178.433V272.872H177.131V275H175.563V272.872H170.495ZM175.633 266.544L172.329 271.486H175.633V266.544Z" fill="#292D32"/>
<path d="M514.646 266.558V269.414H518.006V270.716H514.646V273.698H518.426V275H513.05V265.256H518.426V266.558H514.646ZM523.556 271.094L526.048 275H524.242L522.576 272.382L521.008 275H519.342L521.834 271.206L519.342 267.286H521.148L522.814 269.904L524.382 267.286H526.048L523.556 271.094ZM527.91 266.264C527.621 266.264 527.378 266.166 527.182 265.97C526.986 265.774 526.888 265.531 526.888 265.242C526.888 264.953 526.986 264.71 527.182 264.514C527.378 264.318 527.621 264.22 527.91 264.22C528.19 264.22 528.428 264.318 528.624 264.514C528.82 264.71 528.918 264.953 528.918 265.242C528.918 265.531 528.82 265.774 528.624 265.97C528.428 266.166 528.19 266.264 527.91 266.264ZM528.694 267.286V275H527.098V267.286H528.694ZM532.512 268.588V272.858C532.512 273.147 532.577 273.357 532.708 273.488C532.848 273.609 533.081 273.67 533.408 273.67H534.388V275H533.128C532.409 275 531.858 274.832 531.476 274.496C531.093 274.16 530.902 273.614 530.902 272.858V268.588H529.992V267.286H530.902V265.368H532.512V267.286H534.388V268.588H532.512Z" fill="#292D32"/>
<rect x="880.5" y="250.5" width="107" height="28" rx="3.5" fill="#FFC5C5"/>
<rect x="880.5" y="250.5" width="107" height="28" rx="3.5" stroke="#DF0404"/>
<path d="M913.354 262.168C913.354 262.663 913.237 263.129 913.004 263.568C912.771 264.007 912.397 264.366 911.884 264.646C911.371 264.917 910.713 265.052 909.91 265.052H908.146V269H906.55V259.27H909.91C910.657 259.27 911.287 259.401 911.8 259.662C912.323 259.914 912.71 260.259 912.962 260.698C913.223 261.137 913.354 261.627 913.354 262.168ZM909.91 263.75C910.517 263.75 910.969 263.615 911.268 263.344C911.567 263.064 911.716 262.672 911.716 262.168C911.716 261.104 911.114 260.572 909.91 260.572H908.146V263.75H909.91ZM921.806 264.954C921.806 265.243 921.788 265.505 921.75 265.738H915.856C915.903 266.354 916.132 266.849 916.542 267.222C916.953 267.595 917.457 267.782 918.054 267.782C918.913 267.782 919.52 267.423 919.874 266.704H921.596C921.363 267.413 920.938 267.997 920.322 268.454C919.716 268.902 918.96 269.126 918.054 269.126C917.317 269.126 916.654 268.963 916.066 268.636C915.488 268.3 915.03 267.833 914.694 267.236C914.368 266.629 914.204 265.929 914.204 265.136C914.204 264.343 914.363 263.647 914.68 263.05C915.007 262.443 915.46 261.977 916.038 261.65C916.626 261.323 917.298 261.16 918.054 261.16C918.782 261.16 919.431 261.319 920 261.636C920.57 261.953 921.013 262.401 921.33 262.98C921.648 263.549 921.806 264.207 921.806 264.954ZM920.14 264.45C920.131 263.862 919.921 263.391 919.51 263.036C919.1 262.681 918.591 262.504 917.984 262.504C917.434 262.504 916.962 262.681 916.57 263.036C916.178 263.381 915.945 263.853 915.87 264.45H920.14ZM927.129 261.16C927.735 261.16 928.277 261.286 928.753 261.538C929.238 261.79 929.616 262.163 929.887 262.658C930.157 263.153 930.293 263.75 930.293 264.45V269H928.711V264.688C928.711 263.997 928.538 263.47 928.193 263.106C927.847 262.733 927.376 262.546 926.779 262.546C926.181 262.546 925.705 262.733 925.351 263.106C925.005 263.47 924.833 263.997 924.833 264.688V269H923.237V261.286H924.833V262.168C925.094 261.851 925.425 261.603 925.827 261.426C926.237 261.249 926.671 261.16 927.129 261.16ZM931.657 265.108C931.657 264.333 931.815 263.647 932.133 263.05C932.459 262.453 932.898 261.991 933.449 261.664C934.009 261.328 934.629 261.16 935.311 261.16C935.815 261.16 936.309 261.272 936.795 261.496C937.289 261.711 937.681 262 937.971 262.364V258.64H939.581V269H937.971V267.838C937.709 268.211 937.345 268.519 936.879 268.762C936.421 269.005 935.894 269.126 935.297 269.126C934.625 269.126 934.009 268.958 933.449 268.622C932.898 268.277 932.459 267.801 932.133 267.194C931.815 266.578 931.657 265.883 931.657 265.108ZM937.971 265.136C937.971 264.604 937.859 264.142 937.635 263.75C937.42 263.358 937.135 263.059 936.781 262.854C936.426 262.649 936.043 262.546 935.633 262.546C935.222 262.546 934.839 262.649 934.485 262.854C934.13 263.05 933.841 263.344 933.617 263.736C933.402 264.119 933.295 264.576 933.295 265.108C933.295 265.64 933.402 266.107 933.617 266.508C933.841 266.909 934.13 267.217 934.485 267.432C934.849 267.637 935.231 267.74 935.633 267.74C936.043 267.74 936.426 267.637 936.781 267.432C937.135 267.227 937.42 266.928 937.635 266.536C937.859 266.135 937.971 265.668 937.971 265.136ZM942.349 260.264C942.06 260.264 941.817 260.166 941.621 259.97C941.425 259.774 941.327 259.531 941.327 259.242C941.327 258.953 941.425 258.71 941.621 258.514C941.817 258.318 942.06 258.22 942.349 258.22C942.629 258.22 942.867 258.318 943.063 258.514C943.259 258.71 943.357 258.953 943.357 259.242C943.357 259.531 943.259 259.774 943.063 259.97C942.867 260.166 942.629 260.264 942.349 260.264ZM943.133 261.286V269H941.537V261.286H943.133ZM948.98 261.16C949.587 261.16 950.128 261.286 950.604 261.538C951.09 261.79 951.468 262.163 951.738 262.658C952.009 263.153 952.144 263.75 952.144 264.45V269H950.562V264.688C950.562 263.997 950.39 263.47 950.044 263.106C949.699 262.733 949.228 262.546 948.63 262.546C948.033 262.546 947.557 262.733 947.202 263.106C946.857 263.47 946.684 263.997 946.684 264.688V269H945.088V261.286H946.684V262.168C946.946 261.851 947.277 261.603 947.678 261.426C948.089 261.249 948.523 261.16 948.98 261.16ZM957.148 261.16C957.745 261.16 958.273 261.281 958.73 261.524C959.197 261.757 959.561 262.051 959.822 262.406V261.286H961.432V269.126C961.432 269.835 961.283 270.465 960.984 271.016C960.685 271.576 960.251 272.015 959.682 272.332C959.122 272.649 958.45 272.808 957.666 272.808C956.621 272.808 955.753 272.561 955.062 272.066C954.371 271.581 953.979 270.918 953.886 270.078H955.468C955.589 270.479 955.846 270.801 956.238 271.044C956.639 271.296 957.115 271.422 957.666 271.422C958.31 271.422 958.828 271.226 959.22 270.834C959.621 270.442 959.822 269.873 959.822 269.126V267.838C959.551 268.202 959.183 268.51 958.716 268.762C958.259 269.005 957.736 269.126 957.148 269.126C956.476 269.126 955.86 268.958 955.3 268.622C954.749 268.277 954.311 267.801 953.984 267.194C953.667 266.578 953.508 265.883 953.508 265.108C953.508 264.333 953.667 263.647 953.984 263.05C954.311 262.453 954.749 261.991 955.3 261.664C955.86 261.328 956.476 261.16 957.148 261.16ZM959.822 265.136C959.822 264.604 959.71 264.142 959.486 263.75C959.271 263.358 958.987 263.059 958.632 262.854C958.277 262.649 957.895 262.546 957.484 262.546C957.073 262.546 956.691 262.649 956.336 262.854C955.981 263.05 955.692 263.344 955.468 263.736C955.253 264.119 955.146 264.576 955.146 265.108C955.146 265.64 955.253 266.107 955.468 266.508C955.692 266.909 955.981 267.217 956.336 267.432C956.7 267.637 957.083 267.74 957.484 267.74C957.895 267.74 958.277 267.637 958.632 267.432C958.987 267.227 959.271 266.928 959.486 266.536C959.71 266.135 959.822 265.668 959.822 265.136Z" fill="#DF0404"/>
<path d="M99.8787 327.83C100.775 327.055 101.479 326.421 101.993 325.926C102.515 325.422 102.949 324.899 103.295 324.358C103.64 323.817 103.813 323.275 103.813 322.734C103.813 322.174 103.677 321.735 103.407 321.418C103.145 321.101 102.73 320.942 102.161 320.942C101.61 320.942 101.181 321.119 100.873 321.474C100.574 321.819 100.415 322.286 100.397 322.874H98.8567C98.8847 321.81 99.2021 320.998 99.8087 320.438C100.425 319.869 101.204 319.584 102.147 319.584C103.164 319.584 103.957 319.864 104.527 320.424C105.105 320.984 105.395 321.731 105.395 322.664C105.395 323.336 105.222 323.985 104.877 324.61C104.541 325.226 104.135 325.781 103.659 326.276C103.192 326.761 102.595 327.326 101.867 327.97L101.237 328.53H105.675V329.86H98.8707V328.698L99.8787 327.83ZM106.727 321.25V319.794H109.639V330H108.029V321.25H106.727ZM121.264 328.012H117.19L116.49 330H114.824L118.31 320.256H120.158L123.644 330H121.964L121.264 328.012ZM120.816 326.71L119.234 322.188L117.638 326.71H120.816ZM126.616 323.42C126.886 323.065 127.255 322.767 127.722 322.524C128.188 322.281 128.716 322.16 129.304 322.16C129.976 322.16 130.587 322.328 131.138 322.664C131.698 322.991 132.136 323.453 132.454 324.05C132.771 324.647 132.93 325.333 132.93 326.108C132.93 326.883 132.771 327.578 132.454 328.194C132.136 328.801 131.698 329.277 131.138 329.622C130.587 329.958 129.976 330.126 129.304 330.126C128.716 330.126 128.193 330.009 127.736 329.776C127.278 329.533 126.905 329.235 126.616 328.88V333.668H125.02V322.286H126.616V323.42ZM131.306 326.108C131.306 325.576 131.194 325.119 130.97 324.736C130.755 324.344 130.466 324.05 130.102 323.854C129.747 323.649 129.364 323.546 128.954 323.546C128.552 323.546 128.17 323.649 127.806 323.854C127.451 324.059 127.162 324.358 126.938 324.75C126.723 325.142 126.616 325.604 126.616 326.136C126.616 326.668 126.723 327.135 126.938 327.536C127.162 327.928 127.451 328.227 127.806 328.432C128.17 328.637 128.552 328.74 128.954 328.74C129.364 328.74 129.747 328.637 130.102 328.432C130.466 328.217 130.755 327.909 130.97 327.508C131.194 327.107 131.306 326.64 131.306 326.108ZM135.964 323.406C136.197 323.014 136.505 322.711 136.888 322.496C137.28 322.272 137.742 322.16 138.274 322.16V323.812H137.868C137.243 323.812 136.767 323.971 136.44 324.288C136.123 324.605 135.964 325.156 135.964 325.94V330H134.368V322.286H135.964V323.406ZM140.413 321.264C140.124 321.264 139.881 321.166 139.685 320.97C139.489 320.774 139.391 320.531 139.391 320.242C139.391 319.953 139.489 319.71 139.685 319.514C139.881 319.318 140.124 319.22 140.413 319.22C140.693 319.22 140.931 319.318 141.127 319.514C141.323 319.71 141.421 319.953 141.421 320.242C141.421 320.531 141.323 320.774 141.127 320.97C140.931 321.166 140.693 321.264 140.413 321.264ZM141.197 322.286V330H139.601V322.286H141.197ZM144.749 319.64V330H143.153V319.64H144.749ZM150.873 327.83C151.769 327.055 152.473 326.421 152.987 325.926C153.509 325.422 153.943 324.899 154.289 324.358C154.634 323.817 154.807 323.275 154.807 322.734C154.807 322.174 154.671 321.735 154.401 321.418C154.139 321.101 153.724 320.942 153.155 320.942C152.604 320.942 152.175 321.119 151.867 321.474C151.568 321.819 151.409 322.286 151.391 322.874H149.851C149.879 321.81 150.196 320.998 150.803 320.438C151.419 319.869 152.198 319.584 153.141 319.584C154.158 319.584 154.951 319.864 155.521 320.424C156.099 320.984 156.389 321.731 156.389 322.664C156.389 323.336 156.216 323.985 155.871 324.61C155.535 325.226 155.129 325.781 154.653 326.276C154.186 326.761 153.589 327.326 152.861 327.97L152.231 328.53H156.669V329.86H149.865V328.698L150.873 327.83ZM157.931 324.764C157.931 323.149 158.201 321.889 158.743 320.984C159.293 320.069 160.236 319.612 161.571 319.612C162.905 319.612 163.843 320.069 164.385 320.984C164.935 321.889 165.211 323.149 165.211 324.764C165.211 326.397 164.935 327.676 164.385 328.6C163.843 329.515 162.905 329.972 161.571 329.972C160.236 329.972 159.293 329.515 158.743 328.6C158.201 327.676 157.931 326.397 157.931 324.764ZM163.643 324.764C163.643 324.008 163.591 323.369 163.489 322.846C163.395 322.323 163.199 321.899 162.901 321.572C162.602 321.236 162.159 321.068 161.571 321.068C160.983 321.068 160.539 321.236 160.241 321.572C159.942 321.899 159.741 322.323 159.639 322.846C159.545 323.369 159.499 324.008 159.499 324.764C159.499 325.548 159.545 326.206 159.639 326.738C159.732 327.27 159.928 327.699 160.227 328.026C160.535 328.353 160.983 328.516 161.571 328.516C162.159 328.516 162.602 328.353 162.901 328.026C163.209 327.699 163.409 327.27 163.503 326.738C163.596 326.206 163.643 325.548 163.643 324.764ZM167.641 327.83C168.537 327.055 169.242 326.421 169.755 325.926C170.278 325.422 170.712 324.899 171.057 324.358C171.403 323.817 171.575 323.275 171.575 322.734C171.575 322.174 171.44 321.735 171.169 321.418C170.908 321.101 170.493 320.942 169.923 320.942C169.373 320.942 168.943 321.119 168.635 321.474C168.337 321.819 168.178 322.286 168.159 322.874H166.619C166.647 321.81 166.965 320.998 167.571 320.438C168.187 319.869 168.967 319.584 169.909 319.584C170.927 319.584 171.72 319.864 172.289 320.424C172.868 320.984 173.157 321.731 173.157 322.664C173.157 323.336 172.985 323.985 172.639 324.61C172.303 325.226 171.897 325.781 171.421 326.276C170.955 326.761 170.357 327.326 169.629 327.97L168.999 328.53H173.437V329.86H166.633V328.698L167.641 327.83ZM174.504 327.872V326.668L179.208 319.92H181.14V326.486H182.442V327.872H181.14V330H179.572V327.872H174.504ZM179.642 321.544L176.338 326.486H179.642V321.544Z" fill="#292D32"/>
<path d="M514.646 321.558V324.414H518.006V325.716H514.646V328.698H518.426V330H513.05V320.256H518.426V321.558H514.646ZM524.143 322.16C524.75 322.16 525.291 322.286 525.767 322.538C526.253 322.79 526.631 323.163 526.901 323.658C527.172 324.152 527.307 324.75 527.307 325.45V330H525.725V325.688C525.725 324.997 525.553 324.47 525.207 324.106C524.862 323.732 524.391 323.546 523.793 323.546C523.196 323.546 522.72 323.732 522.365 324.106C522.02 324.47 521.847 324.997 521.847 325.688V330H520.251V322.286H521.847V323.168C522.109 322.85 522.44 322.603 522.841 322.426C523.252 322.248 523.686 322.16 524.143 322.16ZM531.065 323.588V327.858C531.065 328.147 531.13 328.357 531.261 328.488C531.401 328.609 531.634 328.67 531.961 328.67H532.941V330H531.681C530.962 330 530.412 329.832 530.029 329.496C529.646 329.16 529.455 328.614 529.455 327.858V323.588H528.545V322.286H529.455V320.368H531.065V322.286H532.941V323.588H531.065ZM535.868 323.406C536.101 323.014 536.409 322.71 536.792 322.496C537.184 322.272 537.646 322.16 538.178 322.16V323.812H537.772C537.147 323.812 536.671 323.97 536.344 324.288C536.027 324.605 535.868 325.156 535.868 325.94V330H534.272V322.286H535.868V323.406ZM546.449 322.286L541.717 333.626H540.065L541.633 329.874L538.595 322.286H540.373L542.543 328.166L544.797 322.286H546.449Z" fill="#292D32"/>
<rect x="879.5" y="307.5" width="108" height="28" rx="3.5" fill="#FFC5C5"/>
<rect x="879.5" y="307.5" width="108" height="28" rx="3.5" stroke="#DF0404"/>
<path d="M912.854 319.168C912.854 319.662 912.737 320.129 912.504 320.568C912.271 321.006 911.897 321.366 911.384 321.646C910.871 321.916 910.213 322.052 909.41 322.052H907.646V326H906.05V316.27H909.41C910.157 316.27 910.787 316.4 911.3 316.662C911.823 316.914 912.21 317.259 912.462 317.698C912.723 318.136 912.854 318.626 912.854 319.168ZM909.41 320.75C910.017 320.75 910.469 320.614 910.768 320.344C911.067 320.064 911.216 319.672 911.216 319.168C911.216 318.104 910.614 317.572 909.41 317.572H907.646V320.75H909.41ZM921.306 321.954C921.306 322.243 921.288 322.504 921.25 322.738H915.356C915.403 323.354 915.632 323.848 916.042 324.222C916.453 324.595 916.957 324.782 917.554 324.782C918.413 324.782 919.02 324.422 919.374 323.704H921.096C920.863 324.413 920.438 324.996 919.822 325.454C919.216 325.902 918.46 326.126 917.554 326.126C916.817 326.126 916.154 325.962 915.566 325.636C914.988 325.3 914.53 324.833 914.194 324.236C913.868 323.629 913.704 322.929 913.704 322.136C913.704 321.342 913.863 320.647 914.18 320.05C914.507 319.443 914.96 318.976 915.538 318.65C916.126 318.323 916.798 318.16 917.554 318.16C918.282 318.16 918.931 318.318 919.5 318.636C920.07 318.953 920.513 319.401 920.83 319.98C921.148 320.549 921.306 321.207 921.306 321.954ZM919.64 321.45C919.631 320.862 919.421 320.39 919.01 320.036C918.6 319.681 918.091 319.504 917.484 319.504C916.934 319.504 916.462 319.681 916.07 320.036C915.678 320.381 915.445 320.852 915.37 321.45H919.64ZM926.629 318.16C927.235 318.16 927.777 318.286 928.253 318.538C928.738 318.79 929.116 319.163 929.387 319.658C929.657 320.152 929.793 320.75 929.793 321.45V326H928.211V321.688C928.211 320.997 928.038 320.47 927.693 320.106C927.347 319.732 926.876 319.546 926.279 319.546C925.681 319.546 925.205 319.732 924.851 320.106C924.505 320.47 924.333 320.997 924.333 321.688V326H922.737V318.286H924.333V319.168C924.594 318.85 924.925 318.603 925.327 318.426C925.737 318.248 926.171 318.16 926.629 318.16ZM931.157 322.108C931.157 321.333 931.315 320.647 931.633 320.05C931.959 319.452 932.398 318.99 932.949 318.664C933.509 318.328 934.129 318.16 934.811 318.16C935.315 318.16 935.809 318.272 936.295 318.496C936.789 318.71 937.181 319 937.471 319.364V315.64H939.081V326H937.471V324.838C937.209 325.211 936.845 325.519 936.379 325.762C935.921 326.004 935.394 326.126 934.797 326.126C934.125 326.126 933.509 325.958 932.949 325.622C932.398 325.276 931.959 324.8 931.633 324.194C931.315 323.578 931.157 322.882 931.157 322.108ZM937.471 322.136C937.471 321.604 937.359 321.142 937.135 320.75C936.92 320.358 936.635 320.059 936.281 319.854C935.926 319.648 935.543 319.546 935.133 319.546C934.722 319.546 934.339 319.648 933.985 319.854C933.63 320.05 933.341 320.344 933.117 320.736C932.902 321.118 932.795 321.576 932.795 322.108C932.795 322.64 932.902 323.106 933.117 323.508C933.341 323.909 933.63 324.217 933.985 324.432C934.349 324.637 934.731 324.74 935.133 324.74C935.543 324.74 935.926 324.637 936.281 324.432C936.635 324.226 936.92 323.928 937.135 323.536C937.359 323.134 937.471 322.668 937.471 322.136ZM941.849 317.264C941.56 317.264 941.317 317.166 941.121 316.97C940.925 316.774 940.827 316.531 940.827 316.242C940.827 315.952 940.925 315.71 941.121 315.514C941.317 315.318 941.56 315.22 941.849 315.22C942.129 315.22 942.367 315.318 942.563 315.514C942.759 315.71 942.857 315.952 942.857 316.242C942.857 316.531 942.759 316.774 942.563 316.97C942.367 317.166 942.129 317.264 941.849 317.264ZM942.633 318.286V326H941.037V318.286H942.633ZM948.48 318.16C949.087 318.16 949.628 318.286 950.104 318.538C950.59 318.79 950.968 319.163 951.238 319.658C951.509 320.152 951.644 320.75 951.644 321.45V326H950.062V321.688C950.062 320.997 949.89 320.47 949.544 320.106C949.199 319.732 948.728 319.546 948.13 319.546C947.533 319.546 947.057 319.732 946.702 320.106C946.357 320.47 946.184 320.997 946.184 321.688V326H944.588V318.286H946.184V319.168C946.446 318.85 946.777 318.603 947.178 318.426C947.589 318.248 948.023 318.16 948.48 318.16ZM956.648 318.16C957.245 318.16 957.773 318.281 958.23 318.524C958.697 318.757 959.061 319.051 959.322 319.406V318.286H960.932V326.126C960.932 326.835 960.783 327.465 960.484 328.016C960.185 328.576 959.751 329.014 959.182 329.332C958.622 329.649 957.95 329.808 957.166 329.808C956.121 329.808 955.253 329.56 954.562 329.066C953.871 328.58 953.479 327.918 953.386 327.078H954.968C955.089 327.479 955.346 327.801 955.738 328.044C956.139 328.296 956.615 328.422 957.166 328.422C957.81 328.422 958.328 328.226 958.72 327.834C959.121 327.442 959.322 326.872 959.322 326.126V324.838C959.051 325.202 958.683 325.51 958.216 325.762C957.759 326.004 957.236 326.126 956.648 326.126C955.976 326.126 955.36 325.958 954.8 325.622C954.249 325.276 953.811 324.8 953.484 324.194C953.167 323.578 953.008 322.882 953.008 322.108C953.008 321.333 953.167 320.647 953.484 320.05C953.811 319.452 954.249 318.99 954.8 318.664C955.36 318.328 955.976 318.16 956.648 318.16ZM959.322 322.136C959.322 321.604 959.21 321.142 958.986 320.75C958.771 320.358 958.487 320.059 958.132 319.854C957.777 319.648 957.395 319.546 956.984 319.546C956.573 319.546 956.191 319.648 955.836 319.854C955.481 320.05 955.192 320.344 954.968 320.736C954.753 321.118 954.646 321.576 954.646 322.108C954.646 322.64 954.753 323.106 954.968 323.508C955.192 323.909 955.481 324.217 955.836 324.432C956.2 324.637 956.583 324.74 956.984 324.74C957.395 324.74 957.777 324.637 958.132 324.432C958.487 324.226 958.771 323.928 958.986 323.536C959.21 323.134 959.322 322.668 959.322 322.136Z" fill="#DF0404"/>
<line x1="60" y1="183.095" x2="1032" y2="183.095" stroke="#0C0A72"/>
<line x1="60" y1="183.095" x2="1032" y2="183.095" stroke="#0C0A72"/>
<line x1="100.166" y1="238.626" x2="991.835" y2="238.626" stroke="#528FD6" stroke-opacity="0.8"/>
<line x1="100.166" y1="294.156" x2="991.835" y2="294.156" stroke="#528FD6" stroke-opacity="0.8"/>
<line x1="100.166" y1="349.687" x2="991.835" y2="349.687" stroke="#528FD6" stroke-opacity="0.8"/>
<defs>
<filter id="filter0_d_819_9877" x="0" y="0" width="1092" height="773.49" filterUnits="userSpaceOnUse" color-interpolation-filters="sRGB">
<feFlood flood-opacity="0" result="BackgroundImageFix"/>
<feColorMatrix in="SourceAlpha" type="matrix" values="0 0 0 0 0 0 0 0 0 0 0 0 0 0 0 0 0 0 127 0" result="hardAlpha"/>
<feOffset dy="10"/>
<feGaussianBlur stdDeviation="30"/>
<feComposite in2="hardAlpha" operator="out"/>
<feColorMatrix type="matrix" values="0 0 0 0 0.885625 0 0 0 0 0.92625 0 0 0 0 0.975 0 0 0 0.5 0"/>
<feBlend mode="normal" in2="BackgroundImageFix" result="effect1_dropShadow_819_9877"/>
<feBlend mode="normal" in="SourceGraphic" in2="effect1_dropShadow_819_9877" result="shape"/>
</filter>
</defs>
</svg>
