<svg width="80" height="80" viewBox="0 0 80 80" fill="none" xmlns="http://www.w3.org/2000/svg">
<path d="M28.125 15V5C28.125 4.50272 28.3226 4.02581 28.6742 3.67417C29.0258 3.32254 29.5027 3.125 30 3.125C30.4973 3.125 30.9742 3.32254 31.3258 3.67417C31.6775 4.02581 31.875 4.50272 31.875 5V15C31.875 15.4973 31.6775 15.9742 31.3258 16.3258C30.9742 16.6775 30.4973 16.875 30 16.875C29.5027 16.875 29.0258 16.6775 28.6742 16.3258C28.3226 15.9742 28.125 15.4973 28.125 15ZM40 16.875C40.4973 16.875 40.9742 16.6775 41.3258 16.3258C41.6775 15.9742 41.875 15.4973 41.875 15V5C41.875 4.50272 41.6775 4.02581 41.3258 3.67417C40.9742 3.32254 40.4973 3.125 40 3.125C39.5027 3.125 39.0258 3.32254 38.6742 3.67417C38.3226 4.02581 38.125 4.50272 38.125 5V15C38.125 15.4973 38.3226 15.9742 38.6742 16.3258C39.0258 16.6775 39.5027 16.875 40 16.875ZM50 16.875C50.4973 16.875 50.9742 16.6775 51.3258 16.3258C51.6775 15.9742 51.875 15.4973 51.875 15V5C51.875 4.50272 51.6775 4.02581 51.3258 3.67417C50.9742 3.32254 50.4973 3.125 50 3.125C49.5027 3.125 49.0258 3.32254 48.6742 3.67417C48.3226 4.02581 48.125 4.50272 48.125 5V15C48.125 15.4973 48.3226 15.9742 48.6742 16.3258C49.0258 16.6775 49.5027 16.875 50 16.875ZM78.625 31.5L69.375 38.4375V57.5C69.375 59.9864 68.3873 62.371 66.6291 64.1291C64.871 65.8873 62.4864 66.875 60 66.875H20C17.5136 66.875 15.129 65.8873 13.3709 64.1291C11.6127 62.371 10.625 59.9864 10.625 57.5V38.4375L1.37501 31.5C0.977183 31.2016 0.714178 30.7574 0.643852 30.2652C0.573526 29.7729 0.701639 29.2728 1.00001 28.875C1.29838 28.4772 1.74256 28.2142 2.23484 28.1438C2.72713 28.0735 3.22718 28.2016 3.62501 28.5L10.625 33.75V27.5C10.625 26.3397 11.0859 25.2269 11.9064 24.4064C12.7269 23.5859 13.8397 23.125 15 23.125H65C66.1603 23.125 67.2731 23.5859 68.0936 24.4064C68.9141 25.2269 69.375 26.3397 69.375 27.5V33.75L76.375 28.5C76.7728 28.2016 77.2729 28.0735 77.7652 28.1438C78.2575 28.2142 78.7016 28.4772 79 28.875C79.2984 29.2728 79.4265 29.7729 79.3562 30.2652C79.2858 30.7574 79.0228 31.2016 78.625 31.5ZM65.625 27.5C65.625 27.3342 65.5592 27.1753 65.442 27.0581C65.3247 26.9408 65.1658 26.875 65 26.875H15C14.8342 26.875 14.6753 26.9408 14.5581 27.0581C14.4409 27.1753 14.375 27.3342 14.375 27.5V57.5C14.375 58.9918 14.9676 60.4226 16.0225 61.4775C17.0774 62.5324 18.5082 63.125 20 63.125H60C61.4919 63.125 62.9226 62.5324 63.9775 61.4775C65.0324 60.4226 65.625 58.9918 65.625 57.5V27.5Z" fill="black"/>
</svg>
