<svg width="438" height="325" viewBox="0 0 438 325" fill="none" xmlns="http://www.w3.org/2000/svg">
<path d="M143.928 39V22.2H144.96L152.76 35.664H152.208L159.984 22.2H160.992L161.016 39H159.816L159.792 24.048H160.128L152.76 36.768H152.16L144.768 24.048H145.128V39H143.928ZM173.665 39V36.144L173.617 35.712V31.008C173.617 29.84 173.297 28.952 172.657 28.344C172.033 27.736 171.113 27.432 169.897 27.432C169.033 27.432 168.225 27.584 167.473 27.888C166.737 28.176 166.105 28.552 165.577 29.016L164.977 28.152C165.601 27.592 166.353 27.16 167.233 26.856C168.113 26.536 169.033 26.376 169.993 26.376C171.545 26.376 172.737 26.768 173.569 27.552C174.401 28.336 174.817 29.504 174.817 31.056V39H173.665ZM169.153 39.096C168.225 39.096 167.417 38.952 166.729 38.664C166.057 38.36 165.537 37.936 165.169 37.392C164.817 36.848 164.641 36.224 164.641 35.52C164.641 34.88 164.785 34.304 165.073 33.792C165.377 33.264 165.873 32.84 166.561 32.52C167.249 32.184 168.169 32.016 169.321 32.016H173.929V32.952H169.345C168.049 32.952 167.137 33.192 166.609 33.672C166.097 34.152 165.841 34.752 165.841 35.472C165.841 36.272 166.145 36.912 166.753 37.392C167.361 37.872 168.217 38.112 169.321 38.112C170.377 38.112 171.265 37.872 171.985 37.392C172.721 36.912 173.265 36.216 173.617 35.304L173.953 36.12C173.617 37.032 173.041 37.76 172.225 38.304C171.425 38.832 170.401 39.096 169.153 39.096ZM179.042 39V26.472H180.194V29.904L180.074 29.52C180.426 28.512 181.018 27.736 181.85 27.192C182.682 26.648 183.722 26.376 184.97 26.376V27.552C184.922 27.552 184.874 27.552 184.826 27.552C184.778 27.536 184.73 27.528 184.682 27.528C183.29 27.528 182.202 27.968 181.418 28.848C180.634 29.712 180.242 30.92 180.242 32.472V39H179.042ZM192.407 39.096C191.191 39.096 190.103 38.824 189.143 38.28C188.199 37.736 187.447 36.984 186.887 36.024C186.343 35.064 186.071 33.968 186.071 32.736C186.071 31.488 186.343 30.384 186.887 29.424C187.447 28.464 188.199 27.72 189.143 27.192C190.103 26.648 191.191 26.376 192.407 26.376C193.415 26.376 194.327 26.568 195.143 26.952C195.975 27.336 196.647 27.912 197.159 28.68L196.271 29.328C195.823 28.688 195.263 28.216 194.591 27.912C193.919 27.608 193.191 27.456 192.407 27.456C191.431 27.456 190.551 27.68 189.767 28.128C188.999 28.56 188.391 29.176 187.943 29.976C187.511 30.76 187.295 31.68 187.295 32.736C187.295 33.792 187.511 34.72 187.943 35.52C188.391 36.304 188.999 36.92 189.767 37.368C190.551 37.8 191.431 38.016 192.407 38.016C193.191 38.016 193.919 37.864 194.591 37.56C195.263 37.256 195.823 36.784 196.271 36.144L197.159 36.792C196.647 37.56 195.975 38.136 195.143 38.52C194.327 38.904 193.415 39.096 192.407 39.096ZM205.94 26.376C206.964 26.376 207.852 26.576 208.604 26.976C209.372 27.36 209.964 27.952 210.38 28.752C210.812 29.536 211.028 30.512 211.028 31.68V39H209.828V31.776C209.828 30.368 209.468 29.296 208.748 28.56C208.044 27.824 207.052 27.456 205.772 27.456C204.796 27.456 203.948 27.656 203.228 28.056C202.508 28.456 201.956 29.016 201.572 29.736C201.204 30.456 201.02 31.32 201.02 32.328V39H199.82V21.192H201.02V29.952L200.804 29.568C201.188 28.576 201.82 27.8 202.7 27.24C203.58 26.664 204.66 26.376 205.94 26.376ZM220.337 39.096C219.073 39.096 217.953 38.824 216.977 38.28C216.017 37.736 215.257 36.984 214.697 36.024C214.153 35.064 213.881 33.968 213.881 32.736C213.881 31.488 214.137 30.392 214.649 29.448C215.177 28.488 215.897 27.736 216.809 27.192C217.721 26.648 218.745 26.376 219.881 26.376C221.017 26.376 222.033 26.64 222.929 27.168C223.841 27.696 224.553 28.44 225.065 29.4C225.593 30.344 225.857 31.44 225.857 32.688C225.857 32.736 225.849 32.792 225.833 32.856C225.833 32.904 225.833 32.96 225.833 33.024H214.769V32.088H225.185L224.705 32.544C224.721 31.568 224.513 30.696 224.081 29.928C223.665 29.144 223.097 28.536 222.377 28.104C221.657 27.656 220.825 27.432 219.881 27.432C218.953 27.432 218.121 27.656 217.385 28.104C216.665 28.536 216.097 29.144 215.681 29.928C215.265 30.696 215.057 31.576 215.057 32.568V32.784C215.057 33.808 215.281 34.72 215.729 35.52C216.193 36.304 216.825 36.92 217.625 37.368C218.425 37.8 219.337 38.016 220.361 38.016C221.161 38.016 221.905 37.872 222.593 37.584C223.297 37.296 223.889 36.856 224.369 36.264L225.065 37.056C224.521 37.728 223.833 38.24 223.001 38.592C222.185 38.928 221.297 39.096 220.337 39.096ZM228.849 39V21.192H230.049V39H228.849Z" fill="#0C0A72"/>
<path d="M143.928 103V86.2H149.952C151.36 86.2 152.568 86.424 153.576 86.872C154.584 87.32 155.36 87.968 155.904 88.816C156.448 89.648 156.72 90.664 156.72 91.864C156.72 93.032 156.448 94.04 155.904 94.888C155.36 95.736 154.584 96.384 153.576 96.832C152.568 97.28 151.36 97.504 149.952 97.504H144.6L145.152 96.928V103H143.928ZM145.152 97L144.6 96.4H149.952C151.76 96.4 153.128 96.008 154.056 95.224C155 94.424 155.472 93.304 155.472 91.864C155.472 90.408 155 89.288 154.056 88.504C153.128 87.704 151.76 87.304 149.952 87.304H144.6L145.152 86.704V97ZM160.13 103V86.2H166.154C167.562 86.2 168.77 86.424 169.778 86.872C170.786 87.32 171.562 87.968 172.106 88.816C172.65 89.648 172.922 90.664 172.922 91.864C172.922 93.032 172.65 94.04 172.106 94.888C171.562 95.736 170.786 96.384 169.778 96.832C168.77 97.28 167.562 97.504 166.154 97.504H160.802L161.354 96.928V103H160.13ZM161.354 97L160.802 96.4H166.154C167.962 96.4 169.33 96.008 170.258 95.224C171.202 94.424 171.674 93.304 171.674 91.864C171.674 90.408 171.202 89.288 170.258 88.504C169.33 87.704 167.962 87.304 166.154 87.304H160.802L161.354 86.704V97ZM178.962 103V87.304H172.914V86.2H186.234V87.304H180.186V103H178.962ZM188.549 103V86.2H189.773V103H188.549ZM198.911 97.096V96.016H205.079V97.096H198.911ZM215.608 103V86.728L216.16 87.304H211.504V86.2H216.832V103H215.608ZM226.589 103.12C225.261 103.12 224.125 102.928 223.181 102.544C222.237 102.16 221.509 101.616 220.997 100.912C220.501 100.208 220.253 99.368 220.253 98.392C220.253 97.448 220.501 96.64 220.997 95.968C221.493 95.296 222.213 94.784 223.157 94.432C224.101 94.064 225.245 93.88 226.589 93.88C227.933 93.88 229.077 94.064 230.021 94.432C230.981 94.784 231.709 95.296 232.205 95.968C232.717 96.64 232.973 97.448 232.973 98.392C232.973 99.368 232.717 100.208 232.205 100.912C231.693 101.616 230.957 102.16 229.997 102.544C229.053 102.928 227.917 103.12 226.589 103.12ZM226.589 102.064C228.205 102.064 229.469 101.736 230.381 101.08C231.293 100.424 231.749 99.528 231.749 98.392C231.749 97.272 231.293 96.384 230.381 95.728C229.469 95.072 228.205 94.744 226.589 94.744C224.973 94.744 223.717 95.072 222.821 95.728C221.925 96.384 221.477 97.272 221.477 98.392C221.477 99.528 221.925 100.424 222.821 101.08C223.717 101.736 224.973 102.064 226.589 102.064ZM226.589 94.576C225.373 94.576 224.333 94.416 223.469 94.096C222.621 93.76 221.973 93.28 221.525 92.656C221.077 92.032 220.853 91.288 220.853 90.424C220.853 89.528 221.085 88.76 221.549 88.12C222.029 87.464 222.701 86.96 223.565 86.608C224.429 86.256 225.437 86.08 226.589 86.08C227.757 86.08 228.773 86.256 229.637 86.608C230.501 86.96 231.173 87.464 231.653 88.12C232.133 88.76 232.373 89.528 232.373 90.424C232.373 91.288 232.141 92.032 231.677 92.656C231.229 93.28 230.573 93.76 229.709 94.096C228.845 94.416 227.805 94.576 226.589 94.576ZM226.589 93.736C228.029 93.736 229.149 93.44 229.949 92.848C230.749 92.256 231.149 91.464 231.149 90.472C231.149 89.432 230.733 88.616 229.901 88.024C229.085 87.432 227.981 87.136 226.589 87.136C225.213 87.136 224.117 87.432 223.301 88.024C222.485 88.616 222.077 89.424 222.077 90.448C222.077 91.456 222.469 92.256 223.253 92.848C224.053 93.44 225.165 93.736 226.589 93.736Z" fill="#0C0A72"/>
<path d="M145.32 173V156.728L145.872 157.304H141.216V156.2H146.544V173H145.32ZM155.125 156.08C156.597 156.08 157.829 156.416 158.821 157.088C159.829 157.76 160.589 158.728 161.101 159.992C161.613 161.24 161.869 162.744 161.869 164.504C161.869 166.392 161.557 167.976 160.933 169.256C160.309 170.536 159.437 171.504 158.317 172.16C157.197 172.8 155.893 173.12 154.405 173.12C153.685 173.12 152.997 173.056 152.341 172.928C151.701 172.8 151.117 172.576 150.589 172.256L151.093 171.272C151.525 171.544 152.029 171.744 152.605 171.872C153.181 171.984 153.781 172.04 154.405 172.04C156.293 172.04 157.805 171.432 158.941 170.216C160.077 168.984 160.645 167.144 160.645 164.696C160.645 164.312 160.621 163.84 160.573 163.28C160.525 162.72 160.421 162.168 160.261 161.624L160.693 161.744C160.581 162.672 160.269 163.464 159.757 164.12C159.245 164.76 158.589 165.256 157.789 165.608C157.005 165.96 156.125 166.136 155.149 166.136C154.029 166.136 153.045 165.936 152.197 165.536C151.365 165.12 150.709 164.536 150.229 163.784C149.765 163.032 149.533 162.152 149.533 161.144C149.533 160.12 149.773 159.232 150.253 158.48C150.749 157.712 151.413 157.12 152.245 156.704C153.093 156.288 154.053 156.08 155.125 156.08ZM155.173 157.136C154.293 157.136 153.525 157.304 152.869 157.64C152.213 157.96 151.693 158.416 151.309 159.008C150.941 159.6 150.757 160.304 150.757 161.12C150.757 162.32 151.165 163.28 151.981 164C152.797 164.72 153.909 165.08 155.317 165.08C156.229 165.08 157.037 164.904 157.741 164.552C158.445 164.2 158.989 163.72 159.373 163.112C159.773 162.504 159.973 161.824 159.973 161.072C159.973 160.416 159.789 159.792 159.421 159.2C159.053 158.592 158.517 158.096 157.813 157.712C157.109 157.328 156.229 157.136 155.173 157.136Z" fill="#0C0A72"/>
<path d="M159.144 217.376C160.152 217.376 161.024 217.576 161.76 217.976C162.512 218.36 163.096 218.952 163.512 219.752C163.928 220.536 164.136 221.512 164.136 222.68V230H162.936V222.776C162.936 221.368 162.592 220.296 161.904 219.56C161.216 218.824 160.256 218.456 159.024 218.456C158.08 218.456 157.264 218.656 156.576 219.056C155.888 219.456 155.36 220.016 154.992 220.736C154.624 221.456 154.44 222.32 154.44 223.328V230H153.24V222.776C153.24 221.368 152.896 220.296 152.208 219.56C151.52 218.824 150.56 218.456 149.328 218.456C148.384 218.456 147.568 218.656 146.88 219.056C146.192 219.456 145.664 220.016 145.296 220.736C144.928 221.456 144.744 222.32 144.744 223.328V230H143.544V217.472H144.696V220.928L144.528 220.544C144.896 219.568 145.512 218.8 146.376 218.24C147.24 217.664 148.28 217.376 149.496 217.376C150.744 217.376 151.792 217.696 152.64 218.336C153.504 218.96 154.048 219.896 154.272 221.144L153.864 220.976C154.2 219.904 154.832 219.04 155.76 218.384C156.688 217.712 157.816 217.376 159.144 217.376ZM176.267 230V227.144L176.219 226.712V222.008C176.219 220.84 175.899 219.952 175.259 219.344C174.635 218.736 173.715 218.432 172.499 218.432C171.635 218.432 170.827 218.584 170.075 218.888C169.339 219.176 168.707 219.552 168.179 220.016L167.579 219.152C168.203 218.592 168.955 218.16 169.835 217.856C170.715 217.536 171.635 217.376 172.595 217.376C174.147 217.376 175.339 217.768 176.171 218.552C177.003 219.336 177.419 220.504 177.419 222.056V230H176.267ZM171.755 230.096C170.827 230.096 170.019 229.952 169.331 229.664C168.659 229.36 168.139 228.936 167.771 228.392C167.419 227.848 167.243 227.224 167.243 226.52C167.243 225.88 167.387 225.304 167.675 224.792C167.979 224.264 168.475 223.84 169.163 223.52C169.851 223.184 170.771 223.016 171.923 223.016H176.531V223.952H171.947C170.651 223.952 169.739 224.192 169.211 224.672C168.699 225.152 168.443 225.752 168.443 226.472C168.443 227.272 168.747 227.912 169.355 228.392C169.963 228.872 170.819 229.112 171.923 229.112C172.979 229.112 173.867 228.872 174.587 228.392C175.323 227.912 175.867 227.216 176.219 226.304L176.555 227.12C176.219 228.032 175.643 228.76 174.827 229.304C174.027 229.832 173.003 230.096 171.755 230.096ZM181.643 230V217.472H182.795V220.904L182.675 220.52C183.027 219.512 183.619 218.736 184.451 218.192C185.283 217.648 186.323 217.376 187.571 217.376V218.552C187.523 218.552 187.475 218.552 187.427 218.552C187.379 218.536 187.331 218.528 187.283 218.528C185.891 218.528 184.803 218.968 184.019 219.848C183.235 220.712 182.843 221.92 182.843 223.472V230H181.643ZM195.008 230.096C193.792 230.096 192.704 229.824 191.744 229.28C190.8 228.736 190.048 227.984 189.488 227.024C188.944 226.064 188.672 224.968 188.672 223.736C188.672 222.488 188.944 221.384 189.488 220.424C190.048 219.464 190.8 218.72 191.744 218.192C192.704 217.648 193.792 217.376 195.008 217.376C196.016 217.376 196.928 217.568 197.744 217.952C198.576 218.336 199.248 218.912 199.76 219.68L198.872 220.328C198.424 219.688 197.864 219.216 197.192 218.912C196.52 218.608 195.792 218.456 195.008 218.456C194.032 218.456 193.152 218.68 192.368 219.128C191.6 219.56 190.992 220.176 190.544 220.976C190.112 221.76 189.896 222.68 189.896 223.736C189.896 224.792 190.112 225.72 190.544 226.52C190.992 227.304 191.6 227.92 192.368 228.368C193.152 228.8 194.032 229.016 195.008 229.016C195.792 229.016 196.52 228.864 197.192 228.56C197.864 228.256 198.424 227.784 198.872 227.144L199.76 227.792C199.248 228.56 198.576 229.136 197.744 229.52C196.928 229.904 196.016 230.096 195.008 230.096ZM208.542 217.376C209.566 217.376 210.454 217.576 211.206 217.976C211.974 218.36 212.566 218.952 212.982 219.752C213.414 220.536 213.63 221.512 213.63 222.68V230H212.43V222.776C212.43 221.368 212.07 220.296 211.35 219.56C210.646 218.824 209.654 218.456 208.374 218.456C207.398 218.456 206.55 218.656 205.83 219.056C205.11 219.456 204.558 220.016 204.174 220.736C203.806 221.456 203.622 222.32 203.622 223.328V230H202.422V212.192H203.622V220.952L203.406 220.568C203.79 219.576 204.422 218.8 205.302 218.24C206.182 217.664 207.262 217.376 208.542 217.376ZM222.938 230.096C221.674 230.096 220.554 229.824 219.578 229.28C218.618 228.736 217.858 227.984 217.298 227.024C216.754 226.064 216.482 224.968 216.482 223.736C216.482 222.488 216.738 221.392 217.25 220.448C217.778 219.488 218.498 218.736 219.41 218.192C220.322 217.648 221.346 217.376 222.482 217.376C223.618 217.376 224.634 217.64 225.53 218.168C226.442 218.696 227.154 219.44 227.666 220.4C228.194 221.344 228.458 222.44 228.458 223.688C228.458 223.736 228.45 223.792 228.434 223.856C228.434 223.904 228.434 223.96 228.434 224.024H217.37V223.088H227.786L227.306 223.544C227.322 222.568 227.114 221.696 226.682 220.928C226.266 220.144 225.698 219.536 224.978 219.104C224.258 218.656 223.426 218.432 222.482 218.432C221.554 218.432 220.722 218.656 219.986 219.104C219.266 219.536 218.698 220.144 218.282 220.928C217.866 221.696 217.658 222.576 217.658 223.568V223.784C217.658 224.808 217.882 225.72 218.33 226.52C218.794 227.304 219.426 227.92 220.226 228.368C221.026 228.8 221.938 229.016 222.962 229.016C223.762 229.016 224.506 228.872 225.194 228.584C225.898 228.296 226.49 227.856 226.97 227.264L227.666 228.056C227.122 228.728 226.434 229.24 225.602 229.592C224.786 229.928 223.898 230.096 222.938 230.096ZM231.451 230V212.192H232.651V230H231.451ZM246.78 234.776C245.164 234.776 243.676 234.504 242.316 233.96C240.972 233.432 239.804 232.68 238.812 231.704C237.836 230.744 237.084 229.608 236.556 228.296C236.028 226.968 235.764 225.504 235.764 223.904C235.764 222.304 236.028 220.84 236.556 219.512C237.1 218.184 237.868 217.04 238.86 216.08C239.852 215.12 241.028 214.384 242.388 213.872C243.748 213.344 245.244 213.08 246.876 213.08C248.492 213.08 249.972 213.336 251.316 213.848C252.66 214.36 253.828 215.088 254.82 216.032C255.812 216.96 256.572 218.08 257.1 219.392C257.644 220.688 257.916 222.12 257.916 223.688C257.916 225.048 257.764 226.208 257.46 227.168C257.156 228.112 256.724 228.84 256.164 229.352C255.604 229.848 254.956 230.096 254.22 230.096C253.468 230.096 252.86 229.872 252.396 229.424C251.932 228.976 251.7 228.344 251.7 227.528V225.416L251.916 223.808L251.676 221.72V217.736H252.78V227.216C252.78 227.904 252.932 228.392 253.236 228.68C253.54 228.968 253.916 229.112 254.364 229.112C254.892 229.112 255.348 228.904 255.732 228.488C256.132 228.056 256.436 227.44 256.644 226.64C256.868 225.84 256.98 224.864 256.98 223.712C256.98 222.256 256.732 220.936 256.236 219.752C255.756 218.552 255.06 217.52 254.148 216.656C253.252 215.792 252.188 215.136 250.956 214.688C249.724 214.224 248.364 213.992 246.876 213.992C245.388 213.992 244.02 214.232 242.772 214.712C241.524 215.192 240.452 215.872 239.556 216.752C238.66 217.632 237.964 218.68 237.468 219.896C236.988 221.096 236.748 222.432 236.748 223.904C236.748 225.36 236.988 226.696 237.468 227.912C237.948 229.128 238.628 230.176 239.508 231.056C240.404 231.952 241.468 232.64 242.7 233.12C243.932 233.6 245.292 233.84 246.78 233.84C247.5 233.84 248.268 233.752 249.084 233.576C249.916 233.416 250.676 233.152 251.364 232.784L251.676 233.672C250.972 234.04 250.172 234.312 249.276 234.488C248.38 234.68 247.548 234.776 246.78 234.776ZM246.588 230.096C245.452 230.096 244.428 229.832 243.516 229.304C242.62 228.76 241.908 228.016 241.38 227.072C240.868 226.128 240.612 225.056 240.612 223.856C240.612 222.64 240.868 221.568 241.38 220.64C241.908 219.712 242.62 218.984 243.516 218.456C244.428 217.912 245.452 217.64 246.588 217.64C247.708 217.64 248.7 217.896 249.564 218.408C250.444 218.92 251.132 219.64 251.628 220.568C252.14 221.496 252.396 222.592 252.396 223.856C252.396 225.104 252.14 226.2 251.628 227.144C251.132 228.088 250.452 228.816 249.588 229.328C248.724 229.84 247.724 230.096 246.588 230.096ZM246.708 229.088C247.668 229.088 248.524 228.872 249.276 228.44C250.028 227.992 250.62 227.376 251.052 226.592C251.484 225.808 251.7 224.896 251.7 223.856C251.7 222.8 251.484 221.888 251.052 221.12C250.62 220.336 250.028 219.728 249.276 219.296C248.524 218.864 247.668 218.648 246.708 218.648C245.764 218.648 244.916 218.864 244.164 219.296C243.412 219.728 242.82 220.336 242.388 221.12C241.956 221.904 241.74 222.816 241.74 223.856C241.74 224.88 241.956 225.792 242.388 226.592C242.82 227.376 243.412 227.992 244.164 228.44C244.916 228.872 245.764 229.088 246.708 229.088ZM267.353 230.096C266.249 230.096 265.249 229.84 264.353 229.328C263.473 228.816 262.769 228.08 262.241 227.12C261.729 226.16 261.473 225.032 261.473 223.736C261.473 222.408 261.729 221.272 262.241 220.328C262.769 219.384 263.473 218.656 264.353 218.144C265.249 217.632 266.249 217.376 267.353 217.376C268.537 217.376 269.593 217.648 270.521 218.192C271.465 218.72 272.201 219.464 272.729 220.424C273.273 221.368 273.545 222.472 273.545 223.736C273.545 224.984 273.273 226.088 272.729 227.048C272.201 228.008 271.465 228.76 270.521 229.304C269.593 229.832 268.537 230.096 267.353 230.096ZM261.065 230V212.192H262.265V221.528L262.025 223.712L262.217 225.896V230H261.065ZM267.281 229.016C268.241 229.016 269.105 228.8 269.873 228.368C270.641 227.92 271.241 227.296 271.673 226.496C272.121 225.696 272.345 224.776 272.345 223.736C272.345 222.68 272.121 221.76 271.673 220.976C271.241 220.176 270.641 219.56 269.873 219.128C269.105 218.68 268.241 218.456 267.281 218.456C266.321 218.456 265.457 218.68 264.689 219.128C263.937 219.56 263.337 220.176 262.889 220.976C262.457 221.76 262.241 222.68 262.241 223.736C262.241 224.776 262.457 225.696 262.889 226.496C263.337 227.296 263.937 227.92 264.689 228.368C265.457 228.8 266.321 229.016 267.281 229.016ZM276.541 230V217.472H277.741V230H276.541ZM277.141 214.424C276.869 214.424 276.637 214.328 276.445 214.136C276.253 213.944 276.157 213.72 276.157 213.464C276.157 213.192 276.253 212.96 276.445 212.768C276.637 212.576 276.869 212.48 277.141 212.48C277.429 212.48 277.661 212.576 277.837 212.768C278.029 212.944 278.125 213.168 278.125 213.44C278.125 213.712 278.029 213.944 277.837 214.136C277.661 214.328 277.429 214.424 277.141 214.424ZM288.198 217.376C289.222 217.376 290.11 217.576 290.862 217.976C291.63 218.36 292.222 218.952 292.638 219.752C293.07 220.536 293.286 221.512 293.286 222.68V230H292.086V222.776C292.086 221.368 291.726 220.296 291.006 219.56C290.302 218.824 289.31 218.456 288.03 218.456C287.054 218.456 286.206 218.656 285.486 219.056C284.766 219.456 284.214 220.016 283.83 220.736C283.462 221.456 283.278 222.32 283.278 223.328V230H282.078V217.472H283.23V220.952L283.062 220.568C283.446 219.576 284.078 218.8 284.958 218.24C285.838 217.664 286.918 217.376 288.198 217.376ZM302.595 230.096C301.523 230.096 300.595 229.904 299.811 229.52C299.027 229.12 298.419 228.528 297.987 227.744C297.571 226.944 297.363 225.96 297.363 224.792V217.472H298.563V224.696C298.563 226.104 298.923 227.176 299.643 227.912C300.363 228.648 301.379 229.016 302.691 229.016C303.635 229.016 304.451 228.816 305.139 228.416C305.827 228.016 306.355 227.456 306.723 226.736C307.091 226 307.275 225.136 307.275 224.144V217.472H308.475V230H307.323V226.52L307.491 226.928C307.123 227.904 306.507 228.68 305.643 229.256C304.795 229.816 303.779 230.096 302.595 230.096ZM316.01 230.096C314.97 230.096 313.994 229.944 313.082 229.64C312.186 229.336 311.49 228.952 310.994 228.488L311.546 227.528C312.026 227.944 312.666 228.304 313.466 228.608C314.266 228.896 315.13 229.04 316.058 229.04C317.37 229.04 318.314 228.824 318.89 228.392C319.466 227.96 319.754 227.392 319.754 226.688C319.754 226.176 319.602 225.776 319.298 225.488C319.01 225.184 318.618 224.952 318.122 224.792C317.626 224.632 317.082 224.504 316.49 224.408C315.898 224.296 315.306 224.176 314.714 224.048C314.122 223.92 313.578 223.736 313.082 223.496C312.586 223.256 312.186 222.928 311.882 222.512C311.594 222.08 311.45 221.512 311.45 220.808C311.45 220.168 311.626 219.592 311.978 219.08C312.33 218.568 312.858 218.16 313.562 217.856C314.266 217.536 315.146 217.376 316.202 217.376C316.986 217.376 317.77 217.488 318.554 217.712C319.354 217.936 320.002 218.232 320.498 218.6L319.946 219.56C319.418 219.16 318.826 218.872 318.17 218.696C317.514 218.52 316.85 218.432 316.178 218.432C314.962 218.432 314.066 218.656 313.49 219.104C312.93 219.552 312.65 220.112 312.65 220.784C312.65 221.312 312.794 221.736 313.082 222.056C313.386 222.36 313.786 222.6 314.282 222.776C314.778 222.936 315.322 223.072 315.914 223.184C316.506 223.28 317.098 223.392 317.69 223.52C318.282 223.648 318.826 223.832 319.322 224.072C319.818 224.296 320.21 224.616 320.498 225.032C320.802 225.432 320.954 225.976 320.954 226.664C320.954 227.352 320.762 227.952 320.378 228.464C320.01 228.976 319.458 229.376 318.722 229.664C317.986 229.952 317.082 230.096 316.01 230.096ZM323.438 230.096C323.166 230.096 322.926 230 322.718 229.808C322.526 229.6 322.43 229.352 322.43 229.064C322.43 228.776 322.526 228.536 322.718 228.344C322.926 228.152 323.166 228.056 323.438 228.056C323.71 228.056 323.942 228.152 324.134 228.344C324.342 228.536 324.446 228.776 324.446 229.064C324.446 229.352 324.342 229.6 324.134 229.808C323.942 230 323.71 230.096 323.438 230.096ZM335.797 230V227.144L335.749 226.712V222.008C335.749 220.84 335.429 219.952 334.789 219.344C334.165 218.736 333.245 218.432 332.029 218.432C331.165 218.432 330.357 218.584 329.605 218.888C328.869 219.176 328.237 219.552 327.709 220.016L327.109 219.152C327.733 218.592 328.485 218.16 329.365 217.856C330.245 217.536 331.165 217.376 332.125 217.376C333.677 217.376 334.869 217.768 335.701 218.552C336.533 219.336 336.949 220.504 336.949 222.056V230H335.797ZM331.285 230.096C330.357 230.096 329.549 229.952 328.861 229.664C328.189 229.36 327.669 228.936 327.301 228.392C326.949 227.848 326.773 227.224 326.773 226.52C326.773 225.88 326.917 225.304 327.205 224.792C327.509 224.264 328.005 223.84 328.693 223.52C329.381 223.184 330.301 223.016 331.453 223.016H336.061V223.952H331.477C330.181 223.952 329.269 224.192 328.741 224.672C328.229 225.152 327.973 225.752 327.973 226.472C327.973 227.272 328.277 227.912 328.885 228.392C329.493 228.872 330.349 229.112 331.453 229.112C332.509 229.112 333.397 228.872 334.117 228.392C334.853 227.912 335.397 227.216 335.749 226.304L336.085 227.12C335.749 228.032 335.173 228.76 334.357 229.304C333.557 229.832 332.533 230.096 331.285 230.096ZM346.142 230.096C344.926 230.096 343.838 229.824 342.878 229.28C341.934 228.736 341.182 227.984 340.622 227.024C340.078 226.064 339.806 224.968 339.806 223.736C339.806 222.488 340.078 221.384 340.622 220.424C341.182 219.464 341.934 218.72 342.878 218.192C343.838 217.648 344.926 217.376 346.142 217.376C347.15 217.376 348.062 217.568 348.878 217.952C349.71 218.336 350.382 218.912 350.894 219.68L350.006 220.328C349.558 219.688 348.998 219.216 348.326 218.912C347.654 218.608 346.926 218.456 346.142 218.456C345.166 218.456 344.286 218.68 343.502 219.128C342.734 219.56 342.126 220.176 341.678 220.976C341.246 221.76 341.03 222.68 341.03 223.736C341.03 224.792 341.246 225.72 341.678 226.52C342.126 227.304 342.734 227.92 343.502 228.368C344.286 228.8 345.166 229.016 346.142 229.016C346.926 229.016 347.654 228.864 348.326 228.56C348.998 228.256 349.558 227.784 350.006 227.144L350.894 227.792C350.382 228.56 349.71 229.136 348.878 229.52C348.062 229.904 347.15 230.096 346.142 230.096ZM354.091 230.096C353.819 230.096 353.579 230 353.371 229.808C353.179 229.6 353.083 229.352 353.083 229.064C353.083 228.776 353.179 228.536 353.371 228.344C353.579 228.152 353.819 228.056 354.091 228.056C354.363 228.056 354.595 228.152 354.787 228.344C354.995 228.536 355.099 228.776 355.099 229.064C355.099 229.352 354.995 229.6 354.787 229.808C354.595 230 354.363 230.096 354.091 230.096ZM358.32 230V217.472H359.52V230H358.32ZM358.92 214.424C358.648 214.424 358.416 214.328 358.224 214.136C358.032 213.944 357.936 213.72 357.936 213.464C357.936 213.192 358.032 212.96 358.224 212.768C358.416 212.576 358.648 212.48 358.92 212.48C359.208 212.48 359.44 212.576 359.616 212.768C359.808 212.944 359.904 213.168 359.904 213.44C359.904 213.712 359.808 213.944 359.616 214.136C359.44 214.328 359.208 214.424 358.92 214.424ZM368.681 230.096C367.513 230.096 366.457 229.832 365.513 229.304C364.585 228.76 363.849 228.008 363.305 227.048C362.761 226.088 362.489 224.984 362.489 223.736C362.489 222.472 362.761 221.368 363.305 220.424C363.849 219.464 364.585 218.72 365.513 218.192C366.457 217.648 367.513 217.376 368.681 217.376C369.785 217.376 370.777 217.632 371.657 218.144C372.553 218.656 373.257 219.384 373.769 220.328C374.297 221.272 374.561 222.408 374.561 223.736C374.561 225.032 374.305 226.16 373.793 227.12C373.281 228.08 372.577 228.816 371.681 229.328C370.801 229.84 369.801 230.096 368.681 230.096ZM368.753 229.016C369.713 229.016 370.569 228.8 371.321 228.368C372.089 227.92 372.689 227.296 373.121 226.496C373.569 225.696 373.793 224.776 373.793 223.736C373.793 222.68 373.569 221.76 373.121 220.976C372.689 220.176 372.089 219.56 371.321 219.128C370.569 218.68 369.713 218.456 368.753 218.456C367.793 218.456 366.929 218.68 366.161 219.128C365.409 219.56 364.809 220.176 364.361 220.976C363.929 221.76 363.713 222.68 363.713 223.736C363.713 224.776 363.929 225.696 364.361 226.496C364.809 227.296 365.409 227.92 366.161 228.368C366.929 228.8 367.793 229.016 368.753 229.016ZM373.817 230V225.896L374.033 223.712L373.793 221.528V212.192H374.993V230H373.817Z" fill="#0C0A72"/>
<path d="M2.8902 39V18H6.9102L19.3002 33.12H17.3502V18H22.1502V39H18.1602L5.7402 23.88H7.6902V39H2.8902ZM35.7887 39V35.85L35.4887 35.16V29.52C35.4887 28.52 35.1787 27.74 34.5587 27.18C33.9587 26.62 33.0287 26.34 31.7687 26.34C30.9087 26.34 30.0587 26.48 29.2187 26.76C28.3987 27.02 27.6987 27.38 27.1187 27.84L25.4387 24.57C26.3187 23.95 27.3787 23.47 28.6187 23.13C29.8587 22.79 31.1187 22.62 32.3987 22.62C34.8587 22.62 36.7687 23.2 38.1287 24.36C39.4887 25.52 40.1687 27.33 40.1687 29.79V39H35.7887ZM30.8687 39.24C29.6087 39.24 28.5287 39.03 27.6287 38.61C26.7287 38.17 26.0387 37.58 25.5587 36.84C25.0787 36.1 24.8387 35.27 24.8387 34.35C24.8387 33.39 25.0687 32.55 25.5287 31.83C26.0087 31.11 26.7587 30.55 27.7787 30.15C28.7987 29.73 30.1287 29.52 31.7687 29.52H36.0587V32.25H32.2787C31.1787 32.25 30.4187 32.43 29.9987 32.79C29.5987 33.15 29.3987 33.6 29.3987 34.14C29.3987 34.74 29.6287 35.22 30.0887 35.58C30.5687 35.92 31.2187 36.09 32.0387 36.09C32.8187 36.09 33.5187 35.91 34.1387 35.55C34.7587 35.17 35.2087 34.62 35.4887 33.9L36.2087 36.06C35.8687 37.1 35.2487 37.89 34.3487 38.43C33.4487 38.97 32.2887 39.24 30.8687 39.24ZM64.1743 22.62C65.4543 22.62 66.5843 22.88 67.5643 23.4C68.5643 23.9 69.3443 24.68 69.9043 25.74C70.4843 26.78 70.7743 28.12 70.7743 29.76V39H66.0943V30.48C66.0943 29.18 65.8243 28.22 65.2843 27.6C64.7443 26.98 63.9843 26.67 63.0043 26.67C62.3243 26.67 61.7143 26.83 61.1743 27.15C60.6343 27.45 60.2143 27.91 59.9143 28.53C59.6143 29.15 59.4643 29.94 59.4643 30.9V39H54.7843V30.48C54.7843 29.18 54.5143 28.22 53.9743 27.6C53.4543 26.98 52.7043 26.67 51.7243 26.67C51.0443 26.67 50.4343 26.83 49.8943 27.15C49.3543 27.45 48.9343 27.91 48.6343 28.53C48.3343 29.15 48.1843 29.94 48.1843 30.9V39H43.5043V22.86H47.9743V27.27L47.1343 25.98C47.6943 24.88 48.4843 24.05 49.5043 23.49C50.5443 22.91 51.7243 22.62 53.0443 22.62C54.5243 22.62 55.8143 23 56.9143 23.76C58.0343 24.5 58.7743 25.64 59.1343 27.18L57.4843 26.73C58.0243 25.47 58.8843 24.47 60.0643 23.73C61.2643 22.99 62.6343 22.62 64.1743 22.62ZM82.1964 39.24C80.3564 39.24 78.7364 38.88 77.3364 38.16C75.9564 37.44 74.8864 36.46 74.1264 35.22C73.3664 33.96 72.9864 32.53 72.9864 30.93C72.9864 29.31 73.3564 27.88 74.0964 26.64C74.8564 25.38 75.8864 24.4 77.1864 23.7C78.4864 22.98 79.9564 22.62 81.5964 22.62C83.1764 22.62 84.5964 22.96 85.8564 23.64C87.1364 24.3 88.1464 25.26 88.8864 26.52C89.6264 27.76 89.9964 29.25 89.9964 30.99C89.9964 31.17 89.9864 31.38 89.9664 31.62C89.9464 31.84 89.9264 32.05 89.9064 32.25H76.7964V29.52H87.4464L85.6464 30.33C85.6464 29.49 85.4764 28.76 85.1364 28.14C84.7964 27.52 84.3264 27.04 83.7264 26.7C83.1264 26.34 82.4264 26.16 81.6264 26.16C80.8264 26.16 80.1164 26.34 79.4964 26.7C78.8964 27.04 78.4264 27.53 78.0864 28.17C77.7464 28.79 77.5764 29.53 77.5764 30.39V31.11C77.5764 31.99 77.7664 32.77 78.1464 33.45C78.5464 34.11 79.0964 34.62 79.7964 34.98C80.5164 35.32 81.3564 35.49 82.3164 35.49C83.1764 35.49 83.9264 35.36 84.5664 35.1C85.2264 34.84 85.8264 34.45 86.3664 33.93L88.8564 36.63C88.1164 37.47 87.1864 38.12 86.0664 38.58C84.9464 39.02 83.6564 39.24 82.1964 39.24ZM101.578 28.47C100.778 28.47 100.088 28.2 99.5082 27.66C98.9482 27.1 98.6682 26.39 98.6682 25.53C98.6682 24.67 98.9482 23.98 99.5082 23.46C100.088 22.92 100.778 22.65 101.578 22.65C102.398 22.65 103.088 22.92 103.648 23.46C104.208 23.98 104.488 24.67 104.488 25.53C104.488 26.39 104.208 27.1 103.648 27.66C103.088 28.2 102.398 28.47 101.578 28.47ZM101.578 39.24C100.778 39.24 100.088 38.97 99.5082 38.43C98.9482 37.87 98.6682 37.16 98.6682 36.3C98.6682 35.44 98.9482 34.75 99.5082 34.23C100.088 33.69 100.778 33.42 101.578 33.42C102.398 33.42 103.088 33.69 103.648 34.23C104.208 34.75 104.488 35.44 104.488 36.3C104.488 37.16 104.208 37.87 103.648 38.43C103.088 38.97 102.398 39.24 101.578 39.24Z" fill="#0C0A72"/>
<path d="M16.0101 103.36C14.3901 103.36 12.8801 103.1 11.4801 102.58C10.1001 102.04 8.90012 101.28 7.88012 100.3C6.86012 99.32 6.06012 98.17 5.48012 96.85C4.92012 95.53 4.64012 94.08 4.64012 92.5C4.64012 90.92 4.92012 89.47 5.48012 88.15C6.06012 86.83 6.86012 85.68 7.88012 84.7C8.92012 83.72 10.1301 82.97 11.5101 82.45C12.8901 81.91 14.4001 81.64 16.0401 81.64C17.8601 81.64 19.5001 81.96 20.9601 82.6C22.4401 83.22 23.6801 84.14 24.6801 85.36L21.5601 88.24C20.8401 87.42 20.0401 86.81 19.1601 86.41C18.2801 85.99 17.3201 85.78 16.2801 85.78C15.3001 85.78 14.4001 85.94 13.5801 86.26C12.7601 86.58 12.0501 87.04 11.4501 87.64C10.8501 88.24 10.3801 88.95 10.0401 89.77C9.72012 90.59 9.56012 91.5 9.56012 92.5C9.56012 93.5 9.72012 94.41 10.0401 95.23C10.3801 96.05 10.8501 96.76 11.4501 97.36C12.0501 97.96 12.7601 98.42 13.5801 98.74C14.4001 99.06 15.3001 99.22 16.2801 99.22C17.3201 99.22 18.2801 99.02 19.1601 98.62C20.0401 98.2 20.8401 97.57 21.5601 96.73L24.6801 99.61C23.6801 100.83 22.4401 101.76 20.9601 102.4C19.5001 103.04 17.8501 103.36 16.0101 103.36ZM26.7321 103V80.74H31.4121V103H26.7321ZM44.7555 103V99.85L44.4555 99.16V93.52C44.4555 92.52 44.1455 91.74 43.5255 91.18C42.9255 90.62 41.9955 90.34 40.7355 90.34C39.8755 90.34 39.0255 90.48 38.1855 90.76C37.3655 91.02 36.6655 91.38 36.0855 91.84L34.4055 88.57C35.2855 87.95 36.3455 87.47 37.5855 87.13C38.8255 86.79 40.0855 86.62 41.3655 86.62C43.8255 86.62 45.7355 87.2 47.0955 88.36C48.4555 89.52 49.1355 91.33 49.1355 93.79V103H44.7555ZM39.8355 103.24C38.5755 103.24 37.4955 103.03 36.5955 102.61C35.6955 102.17 35.0055 101.58 34.5255 100.84C34.0455 100.1 33.8055 99.27 33.8055 98.35C33.8055 97.39 34.0355 96.55 34.4955 95.83C34.9755 95.11 35.7255 94.55 36.7455 94.15C37.7655 93.73 39.0955 93.52 40.7355 93.52H45.0255V96.25H41.2455C40.1455 96.25 39.3855 96.43 38.9655 96.79C38.5655 97.15 38.3655 97.6 38.3655 98.14C38.3655 98.74 38.5955 99.22 39.0555 99.58C39.5355 99.92 40.1855 100.09 41.0055 100.09C41.7855 100.09 42.4855 99.91 43.1055 99.55C43.7255 99.17 44.1755 98.62 44.4555 97.9L45.1755 100.06C44.8355 101.1 44.2155 101.89 43.3155 102.43C42.4155 102.97 41.2555 103.24 39.8355 103.24ZM57.9011 103.24C56.5211 103.24 55.1911 103.08 53.9111 102.76C52.6511 102.42 51.6511 102 50.9111 101.5L52.4711 98.14C53.2111 98.6 54.0811 98.98 55.0811 99.28C56.1011 99.56 57.1011 99.7 58.0811 99.7C59.1611 99.7 59.9211 99.57 60.3611 99.31C60.8211 99.05 61.0511 98.69 61.0511 98.23C61.0511 97.85 60.8711 97.57 60.5111 97.39C60.1711 97.19 59.7111 97.04 59.1311 96.94C58.5511 96.84 57.9111 96.74 57.2111 96.64C56.5311 96.54 55.8411 96.41 55.1411 96.25C54.4411 96.07 53.8011 95.81 53.2211 95.47C52.6411 95.13 52.1711 94.67 51.8111 94.09C51.4711 93.51 51.3011 92.76 51.3011 91.84C51.3011 90.82 51.5911 89.92 52.1711 89.14C52.7711 88.36 53.6311 87.75 54.7511 87.31C55.8711 86.85 57.2111 86.62 58.7711 86.62C59.8711 86.62 60.9911 86.74 62.1311 86.98C63.2711 87.22 64.2211 87.57 64.9811 88.03L63.4211 91.36C62.6411 90.9 61.8511 90.59 61.0511 90.43C60.2711 90.25 59.5111 90.16 58.7711 90.16C57.7311 90.16 56.9711 90.3 56.4911 90.58C56.0111 90.86 55.7711 91.22 55.7711 91.66C55.7711 92.06 55.9411 92.36 56.2811 92.56C56.6411 92.76 57.1111 92.92 57.6911 93.04C58.2711 93.16 58.9011 93.27 59.5811 93.37C60.2811 93.45 60.9811 93.58 61.6811 93.76C62.3811 93.94 63.0111 94.2 63.5711 94.54C64.1511 94.86 64.6211 95.31 64.9811 95.89C65.3411 96.45 65.5211 97.19 65.5211 98.11C65.5211 99.11 65.2211 100 64.6211 100.78C64.0211 101.54 63.1511 102.14 62.0111 102.58C60.8911 103.02 59.5211 103.24 57.9011 103.24ZM72.9386 103.24C71.5586 103.24 70.2286 103.08 68.9486 102.76C67.6886 102.42 66.6886 102 65.9486 101.5L67.5086 98.14C68.2486 98.6 69.1186 98.98 70.1186 99.28C71.1386 99.56 72.1386 99.7 73.1186 99.7C74.1986 99.7 74.9586 99.57 75.3986 99.31C75.8586 99.05 76.0886 98.69 76.0886 98.23C76.0886 97.85 75.9086 97.57 75.5486 97.39C75.2086 97.19 74.7486 97.04 74.1686 96.94C73.5886 96.84 72.9486 96.74 72.2486 96.64C71.5686 96.54 70.8786 96.41 70.1786 96.25C69.4786 96.07 68.8386 95.81 68.2586 95.47C67.6786 95.13 67.2086 94.67 66.8486 94.09C66.5086 93.51 66.3386 92.76 66.3386 91.84C66.3386 90.82 66.6286 89.92 67.2086 89.14C67.8086 88.36 68.6686 87.75 69.7886 87.31C70.9086 86.85 72.2486 86.62 73.8086 86.62C74.9086 86.62 76.0286 86.74 77.1686 86.98C78.3086 87.22 79.2586 87.57 80.0186 88.03L78.4586 91.36C77.6786 90.9 76.8886 90.59 76.0886 90.43C75.3086 90.25 74.5486 90.16 73.8086 90.16C72.7686 90.16 72.0086 90.3 71.5286 90.58C71.0486 90.86 70.8086 91.22 70.8086 91.66C70.8086 92.06 70.9786 92.36 71.3186 92.56C71.6786 92.76 72.1486 92.92 72.7286 93.04C73.3086 93.16 73.9386 93.27 74.6186 93.37C75.3186 93.45 76.0186 93.58 76.7186 93.76C77.4186 93.94 78.0486 94.2 78.6086 94.54C79.1886 94.86 79.6586 95.31 80.0186 95.89C80.3786 96.45 80.5586 97.19 80.5586 98.11C80.5586 99.11 80.2586 100 79.6586 100.78C79.0586 101.54 78.1886 102.14 77.0486 102.58C75.9286 103.02 74.5586 103.24 72.9386 103.24ZM99.5083 92.47C98.7083 92.47 98.0183 92.2 97.4383 91.66C96.8783 91.1 96.5983 90.39 96.5983 89.53C96.5983 88.67 96.8783 87.98 97.4383 87.46C98.0183 86.92 98.7083 86.65 99.5083 86.65C100.328 86.65 101.018 86.92 101.578 87.46C102.138 87.98 102.418 88.67 102.418 89.53C102.418 90.39 102.138 91.1 101.578 91.66C101.018 92.2 100.328 92.47 99.5083 92.47ZM99.5083 103.24C98.7083 103.24 98.0183 102.97 97.4383 102.43C96.8783 101.87 96.5983 101.16 96.5983 100.3C96.5983 99.44 96.8783 98.75 97.4383 98.23C98.0183 97.69 98.7083 97.42 99.5083 97.42C100.328 97.42 101.018 97.69 101.578 98.23C102.138 98.75 102.418 99.44 102.418 100.3C102.418 101.16 102.138 101.87 101.578 102.43C101.018 102.97 100.328 103.24 99.5083 103.24Z" fill="#0C0A72"/>
<path d="M4.03508 173L13.3951 152H18.1951L27.5851 173H22.4851L14.8051 154.46H16.7251L9.01508 173H4.03508ZM8.71508 168.5L10.0051 164.81H20.8051L22.1251 168.5H8.71508ZM35.9773 179.06C34.4573 179.06 32.9873 178.87 31.5673 178.49C30.1673 178.13 28.9973 177.58 28.0573 176.84L29.9173 173.48C30.5973 174.04 31.4573 174.48 32.4973 174.8C33.5573 175.14 34.5973 175.31 35.6173 175.31C37.2773 175.31 38.4773 174.94 39.2173 174.2C39.9773 173.46 40.3573 172.36 40.3573 170.9V168.47L40.6573 164.42L40.5973 160.34V156.86H45.0373V170.3C45.0373 173.3 44.2573 175.51 42.6973 176.93C41.1373 178.35 38.8973 179.06 35.9773 179.06ZM35.2573 172.22C33.7573 172.22 32.3973 171.9 31.1773 171.26C29.9773 170.6 29.0073 169.69 28.2673 168.53C27.5473 167.35 27.1873 165.98 27.1873 164.42C27.1873 162.84 27.5473 161.47 28.2673 160.31C29.0073 159.13 29.9773 158.22 31.1773 157.58C32.3973 156.94 33.7573 156.62 35.2573 156.62C36.6173 156.62 37.8173 156.9 38.8573 157.46C39.8973 158 40.7073 158.85 41.2873 160.01C41.8673 161.15 42.1573 162.62 42.1573 164.42C42.1573 166.2 41.8673 167.67 41.2873 168.83C40.7073 169.97 39.8973 170.82 38.8573 171.38C37.8173 171.94 36.6173 172.22 35.2573 172.22ZM36.1873 168.38C37.0073 168.38 37.7373 168.22 38.3773 167.9C39.0173 167.56 39.5173 167.09 39.8773 166.49C40.2373 165.89 40.4173 165.2 40.4173 164.42C40.4173 163.62 40.2373 162.93 39.8773 162.35C39.5173 161.75 39.0173 161.29 38.3773 160.97C37.7373 160.63 37.0073 160.46 36.1873 160.46C35.3673 160.46 34.6373 160.63 33.9973 160.97C33.3573 161.29 32.8473 161.75 32.4673 162.35C32.1073 162.93 31.9273 163.62 31.9273 164.42C31.9273 165.2 32.1073 165.89 32.4673 166.49C32.8473 167.09 33.3573 167.56 33.9973 167.9C34.6373 168.22 35.3673 168.38 36.1873 168.38ZM56.5032 173.24C54.6632 173.24 53.0432 172.88 51.6432 172.16C50.2632 171.44 49.1932 170.46 48.4332 169.22C47.6732 167.96 47.2932 166.53 47.2932 164.93C47.2932 163.31 47.6632 161.88 48.4032 160.64C49.1632 159.38 50.1932 158.4 51.4932 157.7C52.7932 156.98 54.2632 156.62 55.9032 156.62C57.4832 156.62 58.9032 156.96 60.1632 157.64C61.4432 158.3 62.4532 159.26 63.1932 160.52C63.9332 161.76 64.3032 163.25 64.3032 164.99C64.3032 165.17 64.2932 165.38 64.2732 165.62C64.2532 165.84 64.2332 166.05 64.2132 166.25H51.1032V163.52H61.7532L59.9532 164.33C59.9532 163.49 59.7832 162.76 59.4432 162.14C59.1032 161.52 58.6332 161.04 58.0332 160.7C57.4332 160.34 56.7332 160.16 55.9332 160.16C55.1332 160.16 54.4232 160.34 53.8032 160.7C53.2032 161.04 52.7332 161.53 52.3932 162.17C52.0532 162.79 51.8832 163.53 51.8832 164.39V165.11C51.8832 165.99 52.0732 166.77 52.4532 167.45C52.8532 168.11 53.4032 168.62 54.1032 168.98C54.8232 169.32 55.6632 169.49 56.6232 169.49C57.4832 169.49 58.2332 169.36 58.8732 169.1C59.5332 168.84 60.1332 168.45 60.6732 167.93L63.1632 170.63C62.4232 171.47 61.4932 172.12 60.3732 172.58C59.2532 173.02 57.9632 173.24 56.5032 173.24ZM98.6734 162.47C97.8734 162.47 97.1834 162.2 96.6034 161.66C96.0434 161.1 95.7634 160.39 95.7634 159.53C95.7634 158.67 96.0434 157.98 96.6034 157.46C97.1834 156.92 97.8734 156.65 98.6734 156.65C99.4934 156.65 100.183 156.92 100.743 157.46C101.303 157.98 101.583 158.67 101.583 159.53C101.583 160.39 101.303 161.1 100.743 161.66C100.183 162.2 99.4934 162.47 98.6734 162.47ZM98.6734 173.24C97.8734 173.24 97.1834 172.97 96.6034 172.43C96.0434 171.87 95.7634 171.16 95.7634 170.3C95.7634 169.44 96.0434 168.75 96.6034 168.23C97.1834 167.69 97.8734 167.42 98.6734 167.42C99.4934 167.42 100.183 167.69 100.743 168.23C101.303 168.75 101.583 169.44 101.583 170.3C101.583 171.16 101.303 171.87 100.743 172.43C100.183 172.97 99.4934 173.24 98.6734 173.24Z" fill="#0C0A72"/>
<path d="M11.409 217.46H21.519V221.24H11.409V217.46ZM11.769 226.1H23.199V230H6.93902V209H22.809V212.9H11.769V226.1ZM46.506 213.62C47.786 213.62 48.916 213.88 49.896 214.4C50.896 214.9 51.676 215.68 52.236 216.74C52.816 217.78 53.106 219.12 53.106 220.76V230H48.426V221.48C48.426 220.18 48.156 219.22 47.616 218.6C47.076 217.98 46.316 217.67 45.336 217.67C44.656 217.67 44.046 217.83 43.506 218.15C42.966 218.45 42.546 218.91 42.246 219.53C41.946 220.15 41.796 220.94 41.796 221.9V230H37.116V221.48C37.116 220.18 36.846 219.22 36.306 218.6C35.786 217.98 35.036 217.67 34.056 217.67C33.376 217.67 32.766 217.83 32.226 218.15C31.686 218.45 31.266 218.91 30.966 219.53C30.666 220.15 30.516 220.94 30.516 221.9V230H25.836V213.86H30.306V218.27L29.466 216.98C30.026 215.88 30.816 215.05 31.836 214.49C32.876 213.91 34.056 213.62 35.376 213.62C36.856 213.62 38.146 214 39.246 214.76C40.366 215.5 41.106 216.64 41.466 218.18L39.816 217.73C40.356 216.47 41.216 215.47 42.396 214.73C43.596 213.99 44.966 213.62 46.506 213.62ZM66.3008 230V226.85L66.0008 226.16V220.52C66.0008 219.52 65.6908 218.74 65.0708 218.18C64.4708 217.62 63.5408 217.34 62.2808 217.34C61.4208 217.34 60.5708 217.48 59.7308 217.76C58.9108 218.02 58.2108 218.38 57.6308 218.84L55.9508 215.57C56.8308 214.95 57.8908 214.47 59.1308 214.13C60.3708 213.79 61.6308 213.62 62.9108 213.62C65.3708 213.62 67.2808 214.2 68.6408 215.36C70.0008 216.52 70.6808 218.33 70.6808 220.79V230H66.3008ZM61.3808 230.24C60.1208 230.24 59.0408 230.03 58.1408 229.61C57.2408 229.17 56.5508 228.58 56.0708 227.84C55.5908 227.1 55.3508 226.27 55.3508 225.35C55.3508 224.39 55.5808 223.55 56.0408 222.83C56.5208 222.11 57.2708 221.55 58.2908 221.15C59.3108 220.73 60.6408 220.52 62.2808 220.52H66.5708V223.25H62.7908C61.6908 223.25 60.9308 223.43 60.5108 223.79C60.1108 224.15 59.9108 224.6 59.9108 225.14C59.9108 225.74 60.1408 226.22 60.6008 226.58C61.0808 226.92 61.7308 227.09 62.5508 227.09C63.3308 227.09 64.0308 226.91 64.6508 226.55C65.2708 226.17 65.7208 225.62 66.0008 224.9L66.7208 227.06C66.3808 228.1 65.7608 228.89 64.8608 229.43C63.9608 229.97 62.8008 230.24 61.3808 230.24ZM74.0164 230V213.86H78.6964V230H74.0164ZM76.3564 211.61C75.4964 211.61 74.7964 211.36 74.2564 210.86C73.7164 210.36 73.4464 209.74 73.4464 209C73.4464 208.26 73.7164 207.64 74.2564 207.14C74.7964 206.64 75.4964 206.39 76.3564 206.39C77.2164 206.39 77.9164 206.63 78.4564 207.11C78.9964 207.57 79.2664 208.17 79.2664 208.91C79.2664 209.69 78.9964 210.34 78.4564 210.86C77.9364 211.36 77.2364 211.61 76.3564 211.61ZM82.1399 230V207.74H86.8199V230H82.1399ZM99.6294 219.47C98.8294 219.47 98.1394 219.2 97.5594 218.66C96.9994 218.1 96.7194 217.39 96.7194 216.53C96.7194 215.67 96.9994 214.98 97.5594 214.46C98.1394 213.92 98.8294 213.65 99.6294 213.65C100.449 213.65 101.139 213.92 101.699 214.46C102.259 214.98 102.539 215.67 102.539 216.53C102.539 217.39 102.259 218.1 101.699 218.66C101.139 219.2 100.449 219.47 99.6294 219.47ZM99.6294 230.24C98.8294 230.24 98.1394 229.97 97.5594 229.43C96.9994 228.87 96.7194 228.16 96.7194 227.3C96.7194 226.44 96.9994 225.75 97.5594 225.23C98.1394 224.69 98.8294 224.42 99.6294 224.42C100.449 224.42 101.139 224.69 101.699 225.23C102.259 225.75 102.539 226.44 102.539 227.3C102.539 228.16 102.259 228.87 101.699 229.43C101.139 229.97 100.449 230.24 99.6294 230.24Z" fill="#0C0A72"/>
<path d="M13.7392 307.36C12.0592 307.36 10.4492 307.14 8.90922 306.7C7.36922 306.24 6.12922 305.65 5.18922 304.93L6.83922 301.27C7.73922 301.91 8.79922 302.44 10.0192 302.86C11.2592 303.26 12.5092 303.46 13.7692 303.46C14.7292 303.46 15.4992 303.37 16.0792 303.19C16.6792 302.99 17.1192 302.72 17.3992 302.38C17.6792 302.04 17.8192 301.65 17.8192 301.21C17.8192 300.65 17.5992 300.21 17.1592 299.89C16.7192 299.55 16.1392 299.28 15.4192 299.08C14.6992 298.86 13.8992 298.66 13.0192 298.48C12.1592 298.28 11.2892 298.04 10.4092 297.76C9.54922 297.48 8.75922 297.12 8.03922 296.68C7.31922 296.24 6.72922 295.66 6.26922 294.94C5.82922 294.22 5.60922 293.3 5.60922 292.18C5.60922 290.98 5.92922 289.89 6.56922 288.91C7.22922 287.91 8.20922 287.12 9.50922 286.54C10.8292 285.94 12.4792 285.64 14.4592 285.64C15.7792 285.64 17.0792 285.8 18.3592 286.12C19.6392 286.42 20.7692 286.88 21.7492 287.5L20.2492 291.19C19.2692 290.63 18.2892 290.22 17.3092 289.96C16.3292 289.68 15.3692 289.54 14.4292 289.54C13.4892 289.54 12.7192 289.65 12.1192 289.87C11.5192 290.09 11.0892 290.38 10.8292 290.74C10.5692 291.08 10.4392 291.48 10.4392 291.94C10.4392 292.48 10.6592 292.92 11.0992 293.26C11.5392 293.58 12.1192 293.84 12.8392 294.04C13.5592 294.24 14.3492 294.44 15.2092 294.64C16.0892 294.84 16.9592 295.07 17.8192 295.33C18.6992 295.59 19.4992 295.94 20.2192 296.38C20.9392 296.82 21.5192 297.4 21.9592 298.12C22.4192 298.84 22.6492 299.75 22.6492 300.85C22.6492 302.03 22.3192 303.11 21.6592 304.09C20.9992 305.07 20.0092 305.86 18.6892 306.46C17.3892 307.06 15.7392 307.36 13.7392 307.36ZM31.3401 307.24C29.4401 307.24 27.9601 306.76 26.9001 305.8C25.8401 304.82 25.3101 303.37 25.3101 301.45V287.29H29.9901V301.39C29.9901 302.07 30.1701 302.6 30.5301 302.98C30.8901 303.34 31.3801 303.52 32.0001 303.52C32.7401 303.52 33.3701 303.32 33.8901 302.92L35.1501 306.22C34.6701 306.56 34.0901 306.82 33.4101 307C32.7501 307.16 32.0601 307.24 31.3401 307.24ZM22.8201 294.82V291.22H34.0101V294.82H22.8201ZM46.7772 307V303.85L46.4772 303.16V297.52C46.4772 296.52 46.1672 295.74 45.5472 295.18C44.9472 294.62 44.0172 294.34 42.7572 294.34C41.8972 294.34 41.0472 294.48 40.2072 294.76C39.3872 295.02 38.6872 295.38 38.1072 295.84L36.4272 292.57C37.3072 291.95 38.3672 291.47 39.6072 291.13C40.8472 290.79 42.1072 290.62 43.3872 290.62C45.8472 290.62 47.7572 291.2 49.1172 292.36C50.4772 293.52 51.1572 295.33 51.1572 297.79V307H46.7772ZM41.8572 307.24C40.5972 307.24 39.5172 307.03 38.6172 306.61C37.7172 306.17 37.0272 305.58 36.5472 304.84C36.0672 304.1 35.8272 303.27 35.8272 302.35C35.8272 301.39 36.0572 300.55 36.5172 299.83C36.9972 299.11 37.7472 298.55 38.7672 298.15C39.7872 297.73 41.1172 297.52 42.7572 297.52H47.0472V300.25H43.2672C42.1672 300.25 41.4072 300.43 40.9872 300.79C40.5872 301.15 40.3872 301.6 40.3872 302.14C40.3872 302.74 40.6172 303.22 41.0772 303.58C41.5572 303.92 42.2072 304.09 43.0272 304.09C43.8072 304.09 44.5072 303.91 45.1272 303.55C45.7472 303.17 46.1972 302.62 46.4772 301.9L47.1972 304.06C46.8572 305.1 46.2372 305.89 45.3372 306.43C44.4372 306.97 43.2772 307.24 41.8572 307.24ZM61.0928 307.24C59.1928 307.24 57.7128 306.76 56.6528 305.8C55.5928 304.82 55.0628 303.37 55.0628 301.45V287.29H59.7428V301.39C59.7428 302.07 59.9228 302.6 60.2828 302.98C60.6428 303.34 61.1328 303.52 61.7528 303.52C62.4928 303.52 63.1228 303.32 63.6428 302.92L64.9028 306.22C64.4228 306.56 63.8428 306.82 63.1628 307C62.5028 307.16 61.8128 307.24 61.0928 307.24ZM52.5728 294.82V291.22H63.7628V294.82H52.5728ZM73.4399 307.24C72.0999 307.24 70.8999 306.98 69.8399 306.46C68.7999 305.94 67.9899 305.15 67.4099 304.09C66.8299 303.01 66.5399 301.64 66.5399 299.98V290.86H71.2199V299.29C71.2199 300.63 71.4999 301.62 72.0599 302.26C72.6399 302.88 73.4499 303.19 74.4899 303.19C75.2099 303.19 75.8499 303.04 76.4099 302.74C76.9699 302.42 77.4099 301.94 77.7299 301.3C78.0499 300.64 78.2099 299.82 78.2099 298.84V290.86H82.8899V307H78.4499V302.56L79.2599 303.85C78.7199 304.97 77.9199 305.82 76.8599 306.4C75.8199 306.96 74.6799 307.24 73.4399 307.24ZM91.7556 307.24C90.3756 307.24 89.0456 307.08 87.7656 306.76C86.5056 306.42 85.5056 306 84.7656 305.5L86.3256 302.14C87.0656 302.6 87.9356 302.98 88.9356 303.28C89.9556 303.56 90.9556 303.7 91.9356 303.7C93.0156 303.7 93.7756 303.57 94.2156 303.31C94.6756 303.05 94.9056 302.69 94.9056 302.23C94.9056 301.85 94.7256 301.57 94.3656 301.39C94.0256 301.19 93.5656 301.04 92.9856 300.94C92.4056 300.84 91.7656 300.74 91.0656 300.64C90.3856 300.54 89.6956 300.41 88.9956 300.25C88.2956 300.07 87.6556 299.81 87.0756 299.47C86.4956 299.13 86.0256 298.67 85.6656 298.09C85.3256 297.51 85.1556 296.76 85.1556 295.84C85.1556 294.82 85.4456 293.92 86.0256 293.14C86.6256 292.36 87.4856 291.75 88.6056 291.31C89.7256 290.85 91.0656 290.62 92.6256 290.62C93.7256 290.62 94.8456 290.74 95.9856 290.98C97.1256 291.22 98.0756 291.57 98.8356 292.03L97.2756 295.36C96.4956 294.9 95.7056 294.59 94.9056 294.43C94.1256 294.25 93.3656 294.16 92.6256 294.16C91.5856 294.16 90.8256 294.3 90.3456 294.58C89.8656 294.86 89.6256 295.22 89.6256 295.66C89.6256 296.06 89.7956 296.36 90.1356 296.56C90.4956 296.76 90.9656 296.92 91.5456 297.04C92.1256 297.16 92.7556 297.27 93.4356 297.37C94.1356 297.45 94.8356 297.58 95.5356 297.76C96.2356 297.94 96.8656 298.2 97.4256 298.54C98.0056 298.86 98.4756 299.31 98.8356 299.89C99.1956 300.45 99.3756 301.19 99.3756 302.11C99.3756 303.11 99.0756 304 98.4756 304.78C97.8756 305.54 97.0056 306.14 95.8656 306.58C94.7456 307.02 93.3756 307.24 91.7556 307.24ZM110.729 296.47C109.929 296.47 109.239 296.2 108.659 295.66C108.099 295.1 107.819 294.39 107.819 293.53C107.819 292.67 108.099 291.98 108.659 291.46C109.239 290.92 109.929 290.65 110.729 290.65C111.549 290.65 112.239 290.92 112.799 291.46C113.359 291.98 113.639 292.67 113.639 293.53C113.639 294.39 113.359 295.1 112.799 295.66C112.239 296.2 111.549 296.47 110.729 296.47ZM110.729 307.24C109.929 307.24 109.239 306.97 108.659 306.43C108.099 305.87 107.819 305.16 107.819 304.3C107.819 303.44 108.099 302.75 108.659 302.23C109.239 301.69 109.929 301.42 110.729 301.42C111.549 301.42 112.239 301.69 112.799 302.23C113.359 302.75 113.639 303.44 113.639 304.3C113.639 305.16 113.359 305.87 112.799 306.43C112.239 306.97 111.549 307.24 110.729 307.24Z" fill="#0C0A72"/>
<rect x="169" y="280" width="143" height="36" rx="18" fill="#93F4A8"/>
<path d="M194.291 306V289.2H197.411V306H194.291ZM208.219 293.04C209.243 293.04 210.155 293.24 210.955 293.64C211.771 294.04 212.411 294.656 212.875 295.488C213.339 296.304 213.571 297.36 213.571 298.656V306H210.571V299.04C210.571 297.904 210.299 297.056 209.755 296.496C209.227 295.936 208.483 295.656 207.523 295.656C206.819 295.656 206.195 295.8 205.651 296.088C205.107 296.376 204.683 296.808 204.379 297.384C204.091 297.944 203.947 298.656 203.947 299.52V306H200.947V293.184H203.803V296.64L203.299 295.584C203.747 294.768 204.395 294.144 205.243 293.712C206.107 293.264 207.099 293.04 208.219 293.04ZM222.858 306V289.2H230.202C232.026 289.2 233.626 289.552 235.002 290.256C236.378 290.96 237.45 291.936 238.218 293.184C238.986 294.432 239.37 295.904 239.37 297.6C239.37 299.28 238.986 300.752 238.218 302.016C237.45 303.264 236.378 304.24 235.002 304.944C233.626 305.648 232.026 306 230.202 306H222.858ZM225.978 303.36H230.058C231.322 303.36 232.41 303.12 233.322 302.64C234.25 302.16 234.962 301.488 235.458 300.624C235.97 299.76 236.226 298.752 236.226 297.6C236.226 296.432 235.97 295.424 235.458 294.576C234.962 293.712 234.25 293.04 233.322 292.56C232.41 292.08 231.322 291.84 230.058 291.84H225.978V303.36ZM247.438 306.168C246.126 306.168 244.958 305.888 243.934 305.328C242.91 304.752 242.102 303.968 241.51 302.976C240.918 301.984 240.622 300.856 240.622 299.592C240.622 298.312 240.918 297.184 241.51 296.208C242.102 295.216 242.91 294.44 243.934 293.88C244.958 293.32 246.126 293.04 247.438 293.04C248.766 293.04 249.942 293.32 250.966 293.88C252.006 294.44 252.814 295.208 253.39 296.184C253.982 297.16 254.278 298.296 254.278 299.592C254.278 300.856 253.982 301.984 253.39 302.976C252.814 303.968 252.006 304.752 250.966 305.328C249.942 305.888 248.766 306.168 247.438 306.168ZM247.438 303.6C248.174 303.6 248.83 303.44 249.406 303.12C249.982 302.8 250.43 302.336 250.75 301.728C251.086 301.12 251.254 300.408 251.254 299.592C251.254 298.76 251.086 298.048 250.75 297.456C250.43 296.848 249.982 296.384 249.406 296.064C248.83 295.744 248.182 295.584 247.462 295.584C246.726 295.584 246.07 295.744 245.494 296.064C244.934 296.384 244.486 296.848 244.15 297.456C243.814 298.048 243.646 298.76 243.646 299.592C243.646 300.408 243.814 301.12 244.15 301.728C244.486 302.336 244.934 302.8 245.494 303.12C246.07 303.44 246.718 303.6 247.438 303.6ZM256.426 306V293.184H259.282V296.712L258.946 295.68C259.33 294.816 259.93 294.16 260.746 293.712C261.578 293.264 262.61 293.04 263.842 293.04V295.896C263.714 295.864 263.594 295.848 263.482 295.848C263.37 295.832 263.258 295.824 263.146 295.824C262.01 295.824 261.106 296.16 260.434 296.832C259.762 297.488 259.426 298.472 259.426 299.784V306H256.426ZM281.843 293.04C282.867 293.04 283.771 293.24 284.555 293.64C285.355 294.04 285.979 294.656 286.427 295.488C286.875 296.304 287.099 297.36 287.099 298.656V306H284.099V299.04C284.099 297.904 283.851 297.056 283.355 296.496C282.859 295.936 282.147 295.656 281.219 295.656C280.563 295.656 279.979 295.8 279.467 296.088C278.971 296.376 278.579 296.8 278.291 297.36C278.019 297.92 277.883 298.632 277.883 299.496V306H274.883V299.04C274.883 297.904 274.635 297.056 274.139 296.496C273.643 295.936 272.931 295.656 272.003 295.656C271.347 295.656 270.763 295.8 270.251 296.088C269.755 296.376 269.363 296.8 269.075 297.36C268.803 297.92 268.667 298.632 268.667 299.496V306H265.667V293.184H268.523V296.592L268.019 295.584C268.451 294.752 269.075 294.12 269.891 293.688C270.723 293.256 271.667 293.04 272.723 293.04C273.923 293.04 274.963 293.336 275.843 293.928C276.739 294.52 277.331 295.416 277.619 296.616L276.443 296.208C276.859 295.248 277.547 294.48 278.507 293.904C279.467 293.328 280.579 293.04 281.843 293.04Z" fill="#0C8E48"/>
</svg>
