<svg width="80" height="80" viewBox="0 0 80 80" fill="none" xmlns="http://www.w3.org/2000/svg">
<path d="M20 35H60V12.5C60 11.837 59.7366 11.2011 59.2678 10.7322C58.7989 10.2634 58.163 10 57.5 10H22.5C21.837 10 21.2011 10.2634 20.7322 10.7322C20.2634 11.2011 20 11.837 20 12.5V35ZM20 40V67.5C20 68.163 20.2634 68.7989 20.7322 69.2678C21.2011 69.7366 21.837 70 22.5 70H57.5C58.163 70 58.7989 69.7366 59.2678 69.2678C59.7366 68.7989 60 68.163 60 67.5V40H20ZM22.5 5H57.5C59.4891 5 61.3968 5.79018 62.8033 7.1967C64.2098 8.60322 65 10.5109 65 12.5V67.5C65 69.4891 64.2098 71.3968 62.8033 72.8033C61.3968 74.2098 59.4891 75 57.5 75H22.5C20.5109 75 18.6032 74.2098 17.1967 72.8033C15.7902 71.3968 15 69.4891 15 67.5V12.5C15 10.5109 15.7902 8.60322 17.1967 7.1967C18.6032 5.79018 20.5109 5 22.5 5ZM25 22.5H30V30H25V22.5ZM25 45H30V52.5H25V45Z" fill="black"/>
</svg>
