<svg width="1092" height="774" viewBox="0 0 1092 774" fill="none" xmlns="http://www.w3.org/2000/svg">
<g filter="url(#filter0_d_817_10056)">
<path d="M60 80C60 63.4314 73.4315 50 90 50H1002C1018.57 50 1032 63.4315 1032 80V673.49C1032 690.059 1018.57 703.49 1002 703.49H90C73.4314 703.49 60 690.059 60 673.49V80Z" fill="white"/>
<path d="M62.5 80C62.5 64.8122 74.8122 52.5 90 52.5H1002C1017.19 52.5 1029.5 64.8122 1029.5 80V673.49C1029.5 688.678 1017.19 700.99 1002 700.99H90C74.8122 700.99 62.5 688.678 62.5 673.49V80Z" stroke="#0C0A72" stroke-width="5"/>
</g>
<path d="M102.755 95.7016H107.815V98.1436H99.6752V82.7876H102.755V95.7016ZM111.115 84.5036C110.572 84.5036 110.118 84.3349 109.751 83.9976C109.399 83.6456 109.223 83.2129 109.223 82.6996C109.223 82.1862 109.399 81.7609 109.751 81.4236C110.118 81.0716 110.572 80.8956 111.115 80.8956C111.658 80.8956 112.105 81.0716 112.457 81.4236C112.824 81.7609 113.007 82.1862 113.007 82.6996C113.007 83.2129 112.824 83.6456 112.457 83.9976C112.105 84.3349 111.658 84.5036 111.115 84.5036ZM112.633 85.9556V98.1436H109.553V85.9556H112.633ZM120.12 98.3416C119.123 98.3416 118.228 98.1656 117.436 97.8136C116.644 97.4469 116.013 96.9556 115.544 96.3396C115.089 95.7236 114.84 95.0416 114.796 94.2936H117.898C117.957 94.7629 118.184 95.1516 118.58 95.4596C118.991 95.7676 119.497 95.9216 120.098 95.9216C120.685 95.9216 121.139 95.8042 121.462 95.5696C121.799 95.3349 121.968 95.0342 121.968 94.6676C121.968 94.2716 121.763 93.9782 121.352 93.7876C120.956 93.5822 120.318 93.3622 119.438 93.1276C118.529 92.9076 117.781 92.6802 117.194 92.4456C116.622 92.2109 116.123 91.8516 115.698 91.3676C115.287 90.8836 115.082 90.2309 115.082 89.4096C115.082 88.7349 115.273 88.1189 115.654 87.5616C116.05 87.0042 116.607 86.5642 117.326 86.2416C118.059 85.9189 118.917 85.7576 119.9 85.7576C121.352 85.7576 122.511 86.1242 123.376 86.8576C124.241 87.5762 124.718 88.5516 124.806 89.7836H121.858C121.814 89.2996 121.609 88.9182 121.242 88.6396C120.89 88.3462 120.413 88.1996 119.812 88.1996C119.255 88.1996 118.822 88.3022 118.514 88.5076C118.221 88.7129 118.074 88.9989 118.074 89.3656C118.074 89.7762 118.279 90.0916 118.69 90.3116C119.101 90.5169 119.739 90.7296 120.604 90.9496C121.484 91.1696 122.21 91.3969 122.782 91.6316C123.354 91.8662 123.845 92.2329 124.256 92.7316C124.681 93.2156 124.901 93.8609 124.916 94.6676C124.916 95.3716 124.718 96.0022 124.322 96.5596C123.941 97.1169 123.383 97.5569 122.65 97.8796C121.931 98.1876 121.088 98.3416 120.12 98.3416ZM130.81 88.4856V94.3816C130.81 94.7922 130.906 95.0929 131.096 95.2836C131.302 95.4596 131.639 95.5476 132.108 95.5476H133.538V98.1436H131.602C129.006 98.1436 127.708 96.8822 127.708 94.3596V88.4856H126.256V85.9556H127.708V82.9416H130.81V85.9556H133.538V88.4856H130.81ZM148.476 98.1436L145.088 92.1596H143.636V98.1436H140.556V82.7876H146.32C147.508 82.7876 148.52 83.0002 149.356 83.4256C150.192 83.8362 150.815 84.4009 151.226 85.1196C151.651 85.8236 151.864 86.6156 151.864 87.4956C151.864 88.5076 151.57 89.4242 150.984 90.2456C150.397 91.0522 149.524 91.6096 148.366 91.9176L152.04 98.1436H148.476ZM143.636 89.8496H146.21C147.046 89.8496 147.669 89.6516 148.08 89.2556C148.49 88.8449 148.696 88.2802 148.696 87.5616C148.696 86.8576 148.49 86.3149 148.08 85.9336C147.669 85.5376 147.046 85.3396 146.21 85.3396H143.636V89.8496ZM165.759 91.7856C165.759 92.2256 165.73 92.6216 165.671 92.9736H156.761C156.835 93.8536 157.143 94.5429 157.685 95.0416C158.228 95.5402 158.895 95.7896 159.687 95.7896C160.831 95.7896 161.645 95.2982 162.129 94.3156H165.451C165.099 95.4889 164.425 96.4569 163.427 97.2196C162.43 97.9676 161.205 98.3416 159.753 98.3416C158.58 98.3416 157.524 98.0849 156.585 97.5716C155.661 97.0436 154.935 96.3029 154.407 95.3496C153.894 94.3962 153.637 93.2962 153.637 92.0496C153.637 90.7882 153.894 89.6809 154.407 88.7276C154.921 87.7742 155.639 87.0409 156.563 86.5276C157.487 86.0142 158.551 85.7576 159.753 85.7576C160.912 85.7576 161.946 86.0069 162.855 86.5056C163.779 87.0042 164.491 87.7156 164.989 88.6396C165.503 89.5489 165.759 90.5976 165.759 91.7856ZM162.569 90.9056C162.555 90.1136 162.269 89.4829 161.711 89.0136C161.154 88.5296 160.472 88.2876 159.665 88.2876C158.903 88.2876 158.257 88.5222 157.729 88.9916C157.216 89.4462 156.901 90.0842 156.783 90.9056H162.569ZM170.868 87.7156C171.264 87.1582 171.806 86.6962 172.496 86.3296C173.2 85.9482 173.999 85.7576 174.894 85.7576C175.935 85.7576 176.874 86.0142 177.71 86.5276C178.56 87.0409 179.228 87.7742 179.712 88.7276C180.21 89.6662 180.46 90.7589 180.46 92.0056C180.46 93.2522 180.21 94.3596 179.712 95.3276C179.228 96.2809 178.56 97.0216 177.71 97.5496C176.874 98.0776 175.935 98.3416 174.894 98.3416C173.999 98.3416 173.207 98.1582 172.518 97.7916C171.843 97.4249 171.293 96.9629 170.868 96.4056V103.952H167.788V85.9556H170.868V87.7156ZM177.314 92.0056C177.314 91.2722 177.16 90.6416 176.852 90.1136C176.558 89.5709 176.162 89.1602 175.664 88.8816C175.18 88.6029 174.652 88.4636 174.08 88.4636C173.522 88.4636 172.994 88.6102 172.496 88.9036C172.012 89.1822 171.616 89.5929 171.308 90.1356C171.014 90.6782 170.868 91.3162 170.868 92.0496C170.868 92.7829 171.014 93.4209 171.308 93.9636C171.616 94.5062 172.012 94.9242 172.496 95.2176C172.994 95.4962 173.522 95.6356 174.08 95.6356C174.652 95.6356 175.18 95.4889 175.664 95.1956C176.162 94.9022 176.558 94.4842 176.852 93.9416C177.16 93.3989 177.314 92.7536 177.314 92.0056ZM187.89 98.3416C186.716 98.3416 185.66 98.0849 184.722 97.5716C183.783 97.0436 183.042 96.3029 182.5 95.3496C181.972 94.3962 181.708 93.2962 181.708 92.0496C181.708 90.8029 181.979 89.7029 182.522 88.7496C183.079 87.7962 183.834 87.0629 184.788 86.5496C185.741 86.0216 186.804 85.7576 187.978 85.7576C189.151 85.7576 190.214 86.0216 191.168 86.5496C192.121 87.0629 192.869 87.7962 193.412 88.7496C193.969 89.7029 194.248 90.8029 194.248 92.0496C194.248 93.2962 193.962 94.3962 193.39 95.3496C192.832 96.3029 192.07 97.0436 191.102 97.5716C190.148 98.0849 189.078 98.3416 187.89 98.3416ZM187.89 95.6576C188.447 95.6576 188.968 95.5256 189.452 95.2616C189.95 94.9829 190.346 94.5722 190.64 94.0296C190.933 93.4869 191.08 92.8269 191.08 92.0496C191.08 90.8909 190.772 90.0036 190.156 89.3876C189.554 88.7569 188.814 88.4416 187.934 88.4416C187.054 88.4416 186.313 88.7569 185.712 89.3876C185.125 90.0036 184.832 90.8909 184.832 92.0496C184.832 93.2082 185.118 94.1029 185.69 94.7336C186.276 95.3496 187.01 95.6576 187.89 95.6576ZM199.367 87.8476C199.763 87.2022 200.276 86.6962 200.907 86.3296C201.552 85.9629 202.286 85.7796 203.107 85.7796V89.0136H202.293C201.325 89.0136 200.592 89.2409 200.093 89.6956C199.609 90.1502 199.367 90.9422 199.367 92.0716V98.1436H196.287V85.9556H199.367V87.8476ZM208.548 88.4856V94.3816C208.548 94.7922 208.643 95.0929 208.834 95.2836C209.039 95.4596 209.376 95.5476 209.846 95.5476H211.276V98.1436H209.34C206.744 98.1436 205.446 96.8822 205.446 94.3596V88.4856H203.994V85.9556H205.446V82.9416H208.548V85.9556H211.276V88.4856H208.548Z" fill="black"/>
<path d="M104.933 160.698V162H100.803V164.87H104.023V166.172H100.803V170.428H99.2072V160.698H104.933ZM105.74 166.536C105.74 165.761 105.899 165.075 106.216 164.478C106.543 163.88 106.982 163.418 107.532 163.092C108.092 162.756 108.708 162.588 109.38 162.588C109.987 162.588 110.514 162.709 110.962 162.952C111.42 163.185 111.784 163.479 112.054 163.834V162.714H113.664V170.428H112.054V169.28C111.784 169.644 111.415 169.947 110.948 170.19C110.482 170.432 109.95 170.554 109.352 170.554C108.69 170.554 108.083 170.386 107.532 170.05C106.982 169.704 106.543 169.228 106.216 168.622C105.899 168.006 105.74 167.31 105.74 166.536ZM112.054 166.564C112.054 166.032 111.942 165.57 111.718 165.178C111.504 164.786 111.219 164.487 110.864 164.282C110.51 164.076 110.127 163.974 109.716 163.974C109.306 163.974 108.923 164.076 108.568 164.282C108.214 164.478 107.924 164.772 107.7 165.164C107.486 165.546 107.378 166.004 107.378 166.536C107.378 167.068 107.486 167.534 107.7 167.936C107.924 168.337 108.214 168.645 108.568 168.86C108.932 169.065 109.315 169.168 109.716 169.168C110.127 169.168 110.51 169.065 110.864 168.86C111.219 168.654 111.504 168.356 111.718 167.964C111.942 167.562 112.054 167.096 112.054 166.564ZM115.089 166.564C115.089 165.77 115.247 165.075 115.565 164.478C115.891 163.871 116.339 163.404 116.909 163.078C117.478 162.751 118.131 162.588 118.869 162.588C119.802 162.588 120.572 162.812 121.179 163.26C121.795 163.698 122.21 164.328 122.425 165.15H120.703C120.563 164.767 120.339 164.468 120.031 164.254C119.723 164.039 119.335 163.932 118.869 163.932C118.215 163.932 117.693 164.165 117.301 164.632C116.918 165.089 116.727 165.733 116.727 166.564C116.727 167.394 116.918 168.043 117.301 168.51C117.693 168.976 118.215 169.21 118.869 169.21C119.793 169.21 120.404 168.804 120.703 167.992H122.425C122.201 168.776 121.781 169.401 121.165 169.868C120.549 170.325 119.783 170.554 118.869 170.554C118.131 170.554 117.478 170.39 116.909 170.064C116.339 169.728 115.891 169.261 115.565 168.664C115.247 168.057 115.089 167.357 115.089 166.564ZM124.687 161.692C124.398 161.692 124.155 161.594 123.959 161.398C123.763 161.202 123.665 160.959 123.665 160.67C123.665 160.38 123.763 160.138 123.959 159.942C124.155 159.746 124.398 159.648 124.687 159.648C124.967 159.648 125.205 159.746 125.401 159.942C125.597 160.138 125.695 160.38 125.695 160.67C125.695 160.959 125.597 161.202 125.401 161.398C125.205 161.594 124.967 161.692 124.687 161.692ZM125.471 162.714V170.428H123.875V162.714H125.471ZM129.023 160.068V170.428H127.427V160.068H129.023ZM131.79 161.692C131.501 161.692 131.258 161.594 131.062 161.398C130.866 161.202 130.768 160.959 130.768 160.67C130.768 160.38 130.866 160.138 131.062 159.942C131.258 159.746 131.501 159.648 131.79 159.648C132.07 159.648 132.308 159.746 132.504 159.942C132.7 160.138 132.798 160.38 132.798 160.67C132.798 160.959 132.7 161.202 132.504 161.398C132.308 161.594 132.07 161.692 131.79 161.692ZM132.574 162.714V170.428H130.978V162.714H132.574ZM136.391 164.016V168.286C136.391 168.575 136.457 168.785 136.587 168.916C136.727 169.037 136.961 169.098 137.287 169.098H138.267V170.428H137.007C136.289 170.428 135.738 170.26 135.355 169.924C134.973 169.588 134.781 169.042 134.781 168.286V164.016H133.871V162.714H134.781V160.796H136.391V162.714H138.267V164.016H136.391ZM146.542 162.714L141.81 174.054H140.158L141.726 170.302L138.688 162.714H140.466L142.636 168.594L144.89 162.714H146.542Z" fill="#B5B7C0"/>
<path d="M516.228 158.27C517.264 158.27 518.169 158.471 518.944 158.872C519.728 159.264 520.33 159.833 520.75 160.58C521.179 161.317 521.394 162.181 521.394 163.17C521.394 164.159 521.179 165.018 520.75 165.746C520.33 166.474 519.728 167.034 518.944 167.426C518.169 167.809 517.264 168 516.228 168H513.05V158.27H516.228ZM516.228 166.698C517.367 166.698 518.239 166.39 518.846 165.774C519.453 165.158 519.756 164.29 519.756 163.17C519.756 162.041 519.453 161.159 518.846 160.524C518.239 159.889 517.367 159.572 516.228 159.572H514.646V166.698H516.228ZM522.304 164.108C522.304 163.333 522.462 162.647 522.78 162.05C523.106 161.453 523.545 160.991 524.096 160.664C524.656 160.328 525.272 160.16 525.944 160.16C526.55 160.16 527.078 160.281 527.526 160.524C527.983 160.757 528.347 161.051 528.618 161.406V160.286H530.228V168H528.618V166.852C528.347 167.216 527.978 167.519 527.512 167.762C527.045 168.005 526.513 168.126 525.916 168.126C525.253 168.126 524.646 167.958 524.096 167.622C523.545 167.277 523.106 166.801 522.78 166.194C522.462 165.578 522.304 164.883 522.304 164.108ZM528.618 164.136C528.618 163.604 528.506 163.142 528.282 162.75C528.067 162.358 527.782 162.059 527.428 161.854C527.073 161.649 526.69 161.546 526.28 161.546C525.869 161.546 525.486 161.649 525.132 161.854C524.777 162.05 524.488 162.344 524.264 162.736C524.049 163.119 523.942 163.576 523.942 164.108C523.942 164.64 524.049 165.107 524.264 165.508C524.488 165.909 524.777 166.217 525.132 166.432C525.496 166.637 525.878 166.74 526.28 166.74C526.69 166.74 527.073 166.637 527.428 166.432C527.782 166.227 528.067 165.928 528.282 165.536C528.506 165.135 528.618 164.668 528.618 164.136ZM534.046 161.588V165.858C534.046 166.147 534.111 166.357 534.242 166.488C534.382 166.609 534.615 166.67 534.942 166.67H535.922V168H534.662C533.943 168 533.393 167.832 533.01 167.496C532.627 167.16 532.436 166.614 532.436 165.858V161.588H531.526V160.286H532.436V158.368H534.046V160.286H535.922V161.588H534.046ZM544.323 163.954C544.323 164.243 544.304 164.505 544.267 164.738H538.373C538.42 165.354 538.648 165.849 539.059 166.222C539.47 166.595 539.974 166.782 540.571 166.782C541.43 166.782 542.036 166.423 542.391 165.704H544.113C543.88 166.413 543.455 166.997 542.839 167.454C542.232 167.902 541.476 168.126 540.571 168.126C539.834 168.126 539.171 167.963 538.583 167.636C538.004 167.3 537.547 166.833 537.211 166.236C536.884 165.629 536.721 164.929 536.721 164.136C536.721 163.343 536.88 162.647 537.197 162.05C537.524 161.443 537.976 160.977 538.555 160.65C539.143 160.323 539.815 160.16 540.571 160.16C541.299 160.16 541.948 160.319 542.517 160.636C543.086 160.953 543.53 161.401 543.847 161.98C544.164 162.549 544.323 163.207 544.323 163.954ZM542.657 163.45C542.648 162.862 542.438 162.391 542.027 162.036C541.616 161.681 541.108 161.504 540.501 161.504C539.95 161.504 539.479 161.681 539.087 162.036C538.695 162.381 538.462 162.853 538.387 163.45H542.657Z" fill="#B5B7C0"/>
<path d="M884.736 172.098C884.083 172.098 883.495 171.986 882.972 171.762C882.449 171.529 882.039 171.202 881.74 170.782C881.441 170.362 881.292 169.872 881.292 169.312H883C883.037 169.732 883.201 170.077 883.49 170.348C883.789 170.619 884.204 170.754 884.736 170.754C885.287 170.754 885.716 170.623 886.024 170.362C886.332 170.091 886.486 169.746 886.486 169.326C886.486 168.999 886.388 168.733 886.192 168.528C886.005 168.323 885.767 168.164 885.478 168.052C885.198 167.94 884.806 167.819 884.302 167.688C883.667 167.52 883.149 167.352 882.748 167.184C882.356 167.007 882.02 166.736 881.74 166.372C881.46 166.008 881.32 165.523 881.32 164.916C881.32 164.356 881.46 163.866 881.74 163.446C882.02 163.026 882.412 162.704 882.916 162.48C883.42 162.256 884.003 162.144 884.666 162.144C885.609 162.144 886.379 162.382 886.976 162.858C887.583 163.325 887.919 163.969 887.984 164.79H886.22C886.192 164.435 886.024 164.132 885.716 163.88C885.408 163.628 885.002 163.502 884.498 163.502C884.041 163.502 883.667 163.619 883.378 163.852C883.089 164.085 882.944 164.421 882.944 164.86C882.944 165.159 883.033 165.406 883.21 165.602C883.397 165.789 883.63 165.938 883.91 166.05C884.19 166.162 884.573 166.283 885.058 166.414C885.702 166.591 886.225 166.769 886.626 166.946C887.037 167.123 887.382 167.399 887.662 167.772C887.951 168.136 888.096 168.626 888.096 169.242C888.096 169.737 887.961 170.203 887.69 170.642C887.429 171.081 887.041 171.435 886.528 171.706C886.024 171.967 885.427 172.098 884.736 172.098ZM891.701 165.588V169.858C891.701 170.147 891.767 170.357 891.897 170.488C892.037 170.609 892.271 170.67 892.597 170.67H893.577V172H892.317C891.599 172 891.048 171.832 890.665 171.496C890.283 171.16 890.091 170.614 890.091 169.858V165.588H889.181V164.286H890.091V162.368H891.701V164.286H893.577V165.588H891.701ZM894.376 168.108C894.376 167.333 894.535 166.647 894.852 166.05C895.179 165.453 895.618 164.991 896.168 164.664C896.728 164.328 897.344 164.16 898.016 164.16C898.623 164.16 899.15 164.281 899.598 164.524C900.056 164.757 900.42 165.051 900.69 165.406V164.286H902.3V172H900.69V170.852C900.42 171.216 900.051 171.519 899.584 171.762C899.118 172.005 898.586 172.126 897.988 172.126C897.326 172.126 896.719 171.958 896.168 171.622C895.618 171.277 895.179 170.801 894.852 170.194C894.535 169.578 894.376 168.883 894.376 168.108ZM900.69 168.136C900.69 167.604 900.578 167.142 900.354 166.75C900.14 166.358 899.855 166.059 899.5 165.854C899.146 165.649 898.763 165.546 898.352 165.546C897.942 165.546 897.559 165.649 897.204 165.854C896.85 166.05 896.56 166.344 896.336 166.736C896.122 167.119 896.014 167.576 896.014 168.108C896.014 168.64 896.122 169.107 896.336 169.508C896.56 169.909 896.85 170.217 897.204 170.432C897.568 170.637 897.951 170.74 898.352 170.74C898.763 170.74 899.146 170.637 899.5 170.432C899.855 170.227 900.14 169.928 900.354 169.536C900.578 169.135 900.69 168.668 900.69 168.136ZM906.119 165.588V169.858C906.119 170.147 906.184 170.357 906.315 170.488C906.455 170.609 906.688 170.67 907.015 170.67H907.995V172H906.735C906.016 172 905.465 171.832 905.083 171.496C904.7 171.16 904.509 170.614 904.509 169.858V165.588H903.599V164.286H904.509V162.368H906.119V164.286H907.995V165.588H906.119ZM916.312 164.286V172H914.716V171.09C914.464 171.407 914.132 171.659 913.722 171.846C913.32 172.023 912.891 172.112 912.434 172.112C911.827 172.112 911.281 171.986 910.796 171.734C910.32 171.482 909.942 171.109 909.662 170.614C909.391 170.119 909.256 169.522 909.256 168.822V164.286H910.838V168.584C910.838 169.275 911.01 169.807 911.356 170.18C911.701 170.544 912.172 170.726 912.77 170.726C913.367 170.726 913.838 170.544 914.184 170.18C914.538 169.807 914.716 169.275 914.716 168.584V164.286H916.312ZM921.077 172.126C920.471 172.126 919.925 172.019 919.439 171.804C918.963 171.58 918.585 171.281 918.305 170.908C918.025 170.525 917.876 170.101 917.857 169.634H919.509C919.537 169.961 919.691 170.236 919.971 170.46C920.261 170.675 920.62 170.782 921.049 170.782C921.497 170.782 921.843 170.698 922.085 170.53C922.337 170.353 922.463 170.129 922.463 169.858C922.463 169.569 922.323 169.354 922.043 169.214C921.773 169.074 921.339 168.92 920.741 168.752C920.163 168.593 919.691 168.439 919.327 168.29C918.963 168.141 918.646 167.912 918.375 167.604C918.114 167.296 917.983 166.89 917.983 166.386C917.983 165.975 918.105 165.602 918.347 165.266C918.59 164.921 918.935 164.65 919.383 164.454C919.841 164.258 920.363 164.16 920.951 164.16C921.829 164.16 922.533 164.384 923.065 164.832C923.607 165.271 923.896 165.873 923.933 166.638H922.337C922.309 166.293 922.169 166.017 921.917 165.812C921.665 165.607 921.325 165.504 920.895 165.504C920.475 165.504 920.153 165.583 919.929 165.742C919.705 165.901 919.593 166.111 919.593 166.372C919.593 166.577 919.668 166.75 919.817 166.89C919.967 167.03 920.149 167.142 920.363 167.226C920.578 167.301 920.895 167.399 921.315 167.52C921.875 167.669 922.333 167.823 922.687 167.982C923.051 168.131 923.364 168.355 923.625 168.654C923.887 168.953 924.022 169.349 924.031 169.844C924.031 170.283 923.91 170.675 923.667 171.02C923.425 171.365 923.079 171.636 922.631 171.832C922.193 172.028 921.675 172.126 921.077 172.126Z" fill="#B5B7C0"/>
<path d="M105.073 221.012H100.999L100.299 223H98.6327L102.119 213.256H103.967L107.453 223H105.773L105.073 221.012ZM104.625 219.71L103.043 215.188L101.447 219.71H104.625ZM108.296 218.114C108.296 217.162 108.516 216.308 108.954 215.552C109.402 214.796 110.004 214.208 110.76 213.788C111.526 213.359 112.361 213.144 113.266 213.144C114.302 213.144 115.222 213.401 116.024 213.914C116.836 214.418 117.424 215.137 117.788 216.07H115.87C115.618 215.557 115.268 215.174 114.82 214.922C114.372 214.67 113.854 214.544 113.266 214.544C112.622 214.544 112.048 214.689 111.544 214.978C111.04 215.267 110.644 215.683 110.354 216.224C110.074 216.765 109.934 217.395 109.934 218.114C109.934 218.833 110.074 219.463 110.354 220.004C110.644 220.545 111.04 220.965 111.544 221.264C112.048 221.553 112.622 221.698 113.266 221.698C113.854 221.698 114.372 221.572 114.82 221.32C115.268 221.068 115.618 220.685 115.87 220.172H117.788C117.424 221.105 116.836 221.824 116.024 222.328C115.222 222.832 114.302 223.084 113.266 223.084C112.352 223.084 111.516 222.874 110.76 222.454C110.004 222.025 109.402 221.432 108.954 220.676C108.516 219.92 108.296 219.066 108.296 218.114Z" fill="#292D32"/>
<path d="M512.63 214.25V212.794H515.542V223H513.932V214.25H512.63ZM518.477 220.83C519.373 220.055 520.077 219.421 520.591 218.926C521.113 218.422 521.547 217.899 521.893 217.358C522.238 216.817 522.411 216.275 522.411 215.734C522.411 215.174 522.275 214.735 522.005 214.418C521.743 214.101 521.328 213.942 520.759 213.942C520.208 213.942 519.779 214.119 519.471 214.474C519.172 214.819 519.013 215.286 518.995 215.874H517.455C517.483 214.81 517.8 213.998 518.407 213.438C519.023 212.869 519.802 212.584 520.745 212.584C521.762 212.584 522.555 212.864 523.125 213.424C523.703 213.984 523.993 214.731 523.993 215.664C523.993 216.336 523.82 216.985 523.475 217.61C523.139 218.226 522.733 218.781 522.257 219.276C521.79 219.761 521.193 220.326 520.465 220.97L519.835 221.53H524.273V222.86H517.469V221.698L518.477 220.83ZM539.489 213.27V223H537.893V216.336L534.925 223H533.819L530.837 216.336V223H529.241V213.27H530.963L534.379 220.9L537.781 213.27H539.489ZM548.517 218.954C548.517 219.243 548.498 219.505 548.461 219.738H542.567C542.614 220.354 542.842 220.849 543.253 221.222C543.664 221.595 544.168 221.782 544.765 221.782C545.624 221.782 546.23 221.423 546.585 220.704H548.307C548.074 221.413 547.649 221.997 547.033 222.454C546.426 222.902 545.67 223.126 544.765 223.126C544.028 223.126 543.365 222.963 542.777 222.636C542.198 222.3 541.741 221.833 541.405 221.236C541.078 220.629 540.915 219.929 540.915 219.136C540.915 218.343 541.074 217.647 541.391 217.05C541.718 216.443 542.17 215.977 542.749 215.65C543.337 215.323 544.009 215.16 544.765 215.16C545.493 215.16 546.142 215.319 546.711 215.636C547.28 215.953 547.724 216.401 548.041 216.98C548.358 217.549 548.517 218.207 548.517 218.954ZM546.851 218.45C546.842 217.862 546.632 217.391 546.221 217.036C545.81 216.681 545.302 216.504 544.695 216.504C544.144 216.504 543.673 216.681 543.281 217.036C542.889 217.381 542.656 217.853 542.581 218.45H546.851ZM550.76 214.264C550.47 214.264 550.228 214.166 550.032 213.97C549.836 213.774 549.738 213.531 549.738 213.242C549.738 212.953 549.836 212.71 550.032 212.514C550.228 212.318 550.47 212.22 550.76 212.22C551.04 212.22 551.278 212.318 551.474 212.514C551.67 212.71 551.768 212.953 551.768 213.242C551.768 213.531 551.67 213.774 551.474 213.97C551.278 214.166 551.04 214.264 550.76 214.264ZM551.544 215.286V223H549.948V215.286H551.544ZM557.668 220.83C558.564 220.055 559.268 219.421 559.782 218.926C560.304 218.422 560.738 217.899 561.084 217.358C561.429 216.817 561.602 216.275 561.602 215.734C561.602 215.174 561.466 214.735 561.196 214.418C560.934 214.101 560.519 213.942 559.95 213.942C559.399 213.942 558.97 214.119 558.662 214.474C558.363 214.819 558.204 215.286 558.186 215.874H556.646C556.674 214.81 556.991 213.998 557.598 213.438C558.214 212.869 558.993 212.584 559.936 212.584C560.953 212.584 561.746 212.864 562.316 213.424C562.894 213.984 563.184 214.731 563.184 215.664C563.184 216.336 563.011 216.985 562.666 217.61C562.33 218.226 561.924 218.781 561.448 219.276C560.981 219.761 560.384 220.326 559.656 220.97L559.026 221.53H563.464V222.86H556.66V221.698L557.668 220.83ZM564.726 217.764C564.726 216.149 564.997 214.889 565.538 213.984C566.089 213.069 567.031 212.612 568.366 212.612C569.701 212.612 570.639 213.069 571.18 213.984C571.731 214.889 572.006 216.149 572.006 217.764C572.006 219.397 571.731 220.676 571.18 221.6C570.639 222.515 569.701 222.972 568.366 222.972C567.031 222.972 566.089 222.515 565.538 221.6C564.997 220.676 564.726 219.397 564.726 217.764ZM570.438 217.764C570.438 217.008 570.387 216.369 570.284 215.846C570.191 215.323 569.995 214.899 569.696 214.572C569.397 214.236 568.954 214.068 568.366 214.068C567.778 214.068 567.335 214.236 567.036 214.572C566.737 214.899 566.537 215.323 566.434 215.846C566.341 216.369 566.294 217.008 566.294 217.764C566.294 218.548 566.341 219.206 566.434 219.738C566.527 220.27 566.723 220.699 567.022 221.026C567.33 221.353 567.778 221.516 568.366 221.516C568.954 221.516 569.397 221.353 569.696 221.026C570.004 220.699 570.205 220.27 570.298 219.738C570.391 219.206 570.438 218.548 570.438 217.764ZM574.437 220.83C575.333 220.055 576.037 219.421 576.551 218.926C577.073 218.422 577.507 217.899 577.853 217.358C578.198 216.817 578.371 216.275 578.371 215.734C578.371 215.174 578.235 214.735 577.965 214.418C577.703 214.101 577.288 213.942 576.719 213.942C576.168 213.942 575.739 214.119 575.431 214.474C575.132 214.819 574.973 215.286 574.955 215.874H573.415C573.443 214.81 573.76 213.998 574.367 213.438C574.983 212.869 575.762 212.584 576.705 212.584C577.722 212.584 578.515 212.864 579.085 213.424C579.663 213.984 579.953 214.731 579.953 215.664C579.953 216.336 579.78 216.985 579.435 217.61C579.099 218.226 578.693 218.781 578.217 219.276C577.75 219.761 577.153 220.326 576.425 220.97L575.795 221.53H580.233V222.86H573.429V221.698L574.437 220.83ZM581.299 220.872V219.668L586.003 212.92H587.935V219.486H589.237V220.872H587.935V223H586.367V220.872H581.299ZM586.437 214.544L583.133 219.486H586.437V214.544Z" fill="#292D32"/>
<path d="M98.518 268.114C98.518 267.162 98.7373 266.308 99.176 265.552C99.624 264.796 100.226 264.208 100.982 263.788C101.747 263.359 102.583 263.144 103.488 263.144C104.524 263.144 105.443 263.401 106.246 263.914C107.058 264.418 107.646 265.137 108.01 266.07H106.092C105.84 265.557 105.49 265.174 105.042 264.922C104.594 264.67 104.076 264.544 103.488 264.544C102.844 264.544 102.27 264.689 101.766 264.978C101.262 265.267 100.865 265.683 100.576 266.224C100.296 266.765 100.156 267.395 100.156 268.114C100.156 268.833 100.296 269.463 100.576 270.004C100.865 270.545 101.262 270.965 101.766 271.264C102.27 271.553 102.844 271.698 103.488 271.698C104.076 271.698 104.594 271.572 105.042 271.32C105.49 271.068 105.84 270.685 106.092 270.172H108.01C107.646 271.105 107.058 271.824 106.246 272.328C105.443 272.832 104.524 273.084 103.488 273.084C102.573 273.084 101.738 272.874 100.982 272.454C100.226 272.025 99.624 271.432 99.176 270.676C98.7373 269.92 98.518 269.066 98.518 268.114ZM113.084 273.126C112.356 273.126 111.698 272.963 111.11 272.636C110.522 272.3 110.06 271.833 109.724 271.236C109.388 270.629 109.22 269.929 109.22 269.136C109.22 268.352 109.393 267.657 109.738 267.05C110.083 266.443 110.555 265.977 111.152 265.65C111.749 265.323 112.417 265.16 113.154 265.16C113.891 265.16 114.559 265.323 115.156 265.65C115.753 265.977 116.225 266.443 116.57 267.05C116.915 267.657 117.088 268.352 117.088 269.136C117.088 269.92 116.911 270.615 116.556 271.222C116.201 271.829 115.716 272.3 115.1 272.636C114.493 272.963 113.821 273.126 113.084 273.126ZM113.084 271.74C113.495 271.74 113.877 271.642 114.232 271.446C114.596 271.25 114.89 270.956 115.114 270.564C115.338 270.172 115.45 269.696 115.45 269.136C115.45 268.576 115.343 268.105 115.128 267.722C114.913 267.33 114.629 267.036 114.274 266.84C113.919 266.644 113.537 266.546 113.126 266.546C112.715 266.546 112.333 266.644 111.978 266.84C111.633 267.036 111.357 267.33 111.152 267.722C110.947 268.105 110.844 268.576 110.844 269.136C110.844 269.967 111.054 270.611 111.474 271.068C111.903 271.516 112.44 271.74 113.084 271.74ZM124.448 267.26V268.604H118.694V267.26H124.448ZM139.245 263.27L136.361 273H134.555L132.511 265.636L130.341 273L128.549 273.014L125.791 263.27H127.485L129.501 271.194L131.685 263.27H133.477L135.507 271.152L137.537 263.27H139.245ZM143.768 273.126C143.04 273.126 142.382 272.963 141.794 272.636C141.206 272.3 140.744 271.833 140.408 271.236C140.072 270.629 139.904 269.929 139.904 269.136C139.904 268.352 140.076 267.657 140.422 267.05C140.767 266.443 141.238 265.977 141.836 265.65C142.433 265.323 143.1 265.16 143.838 265.16C144.575 265.16 145.242 265.323 145.84 265.65C146.437 265.977 146.908 266.443 147.254 267.05C147.599 267.657 147.772 268.352 147.772 269.136C147.772 269.92 147.594 270.615 147.24 271.222C146.885 271.829 146.4 272.3 145.784 272.636C145.177 272.963 144.505 273.126 143.768 273.126ZM143.768 271.74C144.178 271.74 144.561 271.642 144.916 271.446C145.28 271.25 145.574 270.956 145.798 270.564C146.022 270.172 146.134 269.696 146.134 269.136C146.134 268.576 146.026 268.105 145.812 267.722C145.597 267.33 145.312 267.036 144.958 266.84C144.603 266.644 144.22 266.546 143.81 266.546C143.399 266.546 143.016 266.644 142.662 266.84C142.316 267.036 142.041 267.33 141.836 267.722C141.63 268.105 141.528 268.576 141.528 269.136C141.528 269.967 141.738 270.611 142.158 271.068C142.587 271.516 143.124 271.74 143.768 271.74ZM150.805 266.406C151.039 266.014 151.347 265.711 151.729 265.496C152.121 265.272 152.583 265.16 153.115 265.16V266.812H152.709C152.084 266.812 151.608 266.971 151.281 267.288C150.964 267.605 150.805 268.156 150.805 268.94V273H149.209V265.286H150.805V266.406ZM157.494 269.15L161.05 273H158.894L156.038 269.682V273H154.442V262.64H156.038V268.66L158.838 265.286H161.05L157.494 269.15ZM162.866 264.264C162.577 264.264 162.334 264.166 162.138 263.97C161.942 263.774 161.844 263.531 161.844 263.242C161.844 262.953 161.942 262.71 162.138 262.514C162.334 262.318 162.577 262.22 162.866 262.22C163.146 262.22 163.384 262.318 163.58 262.514C163.776 262.71 163.874 262.953 163.874 263.242C163.874 263.531 163.776 263.774 163.58 263.97C163.384 264.166 163.146 264.264 162.866 264.264ZM163.65 265.286V273H162.054V265.286H163.65ZM169.498 265.16C170.104 265.16 170.646 265.286 171.122 265.538C171.607 265.79 171.985 266.163 172.256 266.658C172.526 267.153 172.662 267.75 172.662 268.45V273H171.08V268.688C171.08 267.997 170.907 267.47 170.562 267.106C170.216 266.733 169.745 266.546 169.148 266.546C168.55 266.546 168.074 266.733 167.72 267.106C167.374 267.47 167.202 267.997 167.202 268.688V273H165.606V265.286H167.202V266.168C167.463 265.851 167.794 265.603 168.196 265.426C168.606 265.249 169.04 265.16 169.498 265.16ZM177.666 265.16C178.263 265.16 178.79 265.281 179.248 265.524C179.714 265.757 180.078 266.051 180.34 266.406V265.286H181.95V273.126C181.95 273.835 181.8 274.465 181.502 275.016C181.203 275.576 180.769 276.015 180.2 276.332C179.64 276.649 178.968 276.808 178.184 276.808C177.138 276.808 176.27 276.561 175.58 276.066C174.889 275.581 174.497 274.918 174.404 274.078H175.986C176.107 274.479 176.364 274.801 176.756 275.044C177.157 275.296 177.633 275.422 178.184 275.422C178.828 275.422 179.346 275.226 179.738 274.834C180.139 274.442 180.34 273.873 180.34 273.126V271.838C180.069 272.202 179.7 272.51 179.234 272.762C178.776 273.005 178.254 273.126 177.666 273.126C176.994 273.126 176.378 272.958 175.818 272.622C175.267 272.277 174.828 271.801 174.502 271.194C174.184 270.578 174.026 269.883 174.026 269.108C174.026 268.333 174.184 267.647 174.502 267.05C174.828 266.453 175.267 265.991 175.818 265.664C176.378 265.328 176.994 265.16 177.666 265.16ZM180.34 269.136C180.34 268.604 180.228 268.142 180.004 267.75C179.789 267.358 179.504 267.059 179.15 266.854C178.795 266.649 178.412 266.546 178.002 266.546C177.591 266.546 177.208 266.649 176.854 266.854C176.499 267.05 176.21 267.344 175.986 267.736C175.771 268.119 175.664 268.576 175.664 269.108C175.664 269.64 175.771 270.107 175.986 270.508C176.21 270.909 176.499 271.217 176.854 271.432C177.218 271.637 177.6 271.74 178.002 271.74C178.412 271.74 178.795 271.637 179.15 271.432C179.504 271.227 179.789 270.928 180.004 270.536C180.228 270.135 180.34 269.668 180.34 269.136ZM190.609 273.098C189.955 273.098 189.367 272.986 188.845 272.762C188.322 272.529 187.911 272.202 187.613 271.782C187.314 271.362 187.165 270.872 187.165 270.312H188.873C188.91 270.732 189.073 271.077 189.363 271.348C189.661 271.619 190.077 271.754 190.609 271.754C191.159 271.754 191.589 271.623 191.897 271.362C192.205 271.091 192.359 270.746 192.359 270.326C192.359 269.999 192.261 269.733 192.065 269.528C191.878 269.323 191.64 269.164 191.351 269.052C191.071 268.94 190.679 268.819 190.175 268.688C189.54 268.52 189.022 268.352 188.621 268.184C188.229 268.007 187.893 267.736 187.613 267.372C187.333 267.008 187.193 266.523 187.193 265.916C187.193 265.356 187.333 264.866 187.613 264.446C187.893 264.026 188.285 263.704 188.789 263.48C189.293 263.256 189.876 263.144 190.539 263.144C191.481 263.144 192.251 263.382 192.849 263.858C193.455 264.325 193.791 264.969 193.857 265.79H192.093C192.065 265.435 191.897 265.132 191.589 264.88C191.281 264.628 190.875 264.502 190.371 264.502C189.913 264.502 189.54 264.619 189.251 264.852C188.961 265.085 188.817 265.421 188.817 265.86C188.817 266.159 188.905 266.406 189.083 266.602C189.269 266.789 189.503 266.938 189.783 267.05C190.063 267.162 190.445 267.283 190.931 267.414C191.575 267.591 192.097 267.769 192.499 267.946C192.909 268.123 193.255 268.399 193.535 268.772C193.824 269.136 193.969 269.626 193.969 270.242C193.969 270.737 193.833 271.203 193.563 271.642C193.301 272.081 192.914 272.435 192.401 272.706C191.897 272.967 191.299 273.098 190.609 273.098ZM197.308 266.42C197.578 266.065 197.947 265.767 198.414 265.524C198.88 265.281 199.408 265.16 199.996 265.16C200.668 265.16 201.279 265.328 201.83 265.664C202.39 265.991 202.828 266.453 203.146 267.05C203.463 267.647 203.622 268.333 203.622 269.108C203.622 269.883 203.463 270.578 203.146 271.194C202.828 271.801 202.39 272.277 201.83 272.622C201.279 272.958 200.668 273.126 199.996 273.126C199.408 273.126 198.885 273.009 198.428 272.776C197.97 272.533 197.597 272.235 197.308 271.88V276.668H195.712V265.286H197.308V266.42ZM201.998 269.108C201.998 268.576 201.886 268.119 201.662 267.736C201.447 267.344 201.158 267.05 200.794 266.854C200.439 266.649 200.056 266.546 199.646 266.546C199.244 266.546 198.862 266.649 198.498 266.854C198.143 267.059 197.854 267.358 197.63 267.75C197.415 268.142 197.308 268.604 197.308 269.136C197.308 269.668 197.415 270.135 197.63 270.536C197.854 270.928 198.143 271.227 198.498 271.432C198.862 271.637 199.244 271.74 199.646 271.74C200.056 271.74 200.439 271.637 200.794 271.432C201.158 271.217 201.447 270.909 201.662 270.508C201.886 270.107 201.998 269.64 201.998 269.108ZM204.528 269.108C204.528 268.333 204.687 267.647 205.004 267.05C205.331 266.453 205.769 265.991 206.32 265.664C206.88 265.328 207.496 265.16 208.168 265.16C208.775 265.16 209.302 265.281 209.75 265.524C210.207 265.757 210.571 266.051 210.842 266.406V265.286H212.452V273H210.842V271.852C210.571 272.216 210.203 272.519 209.736 272.762C209.269 273.005 208.737 273.126 208.14 273.126C207.477 273.126 206.871 272.958 206.32 272.622C205.769 272.277 205.331 271.801 205.004 271.194C204.687 270.578 204.528 269.883 204.528 269.108ZM210.842 269.136C210.842 268.604 210.73 268.142 210.506 267.75C210.291 267.358 210.007 267.059 209.652 266.854C209.297 266.649 208.915 266.546 208.504 266.546C208.093 266.546 207.711 266.649 207.356 266.854C207.001 267.05 206.712 267.344 206.488 267.736C206.273 268.119 206.166 268.576 206.166 269.108C206.166 269.64 206.273 270.107 206.488 270.508C206.712 270.909 207.001 271.217 207.356 271.432C207.72 271.637 208.103 271.74 208.504 271.74C208.915 271.74 209.297 271.637 209.652 271.432C210.007 271.227 210.291 270.928 210.506 270.536C210.73 270.135 210.842 269.668 210.842 269.136ZM213.876 269.136C213.876 268.343 214.035 267.647 214.352 267.05C214.679 266.443 215.127 265.977 215.696 265.65C216.266 265.323 216.919 265.16 217.656 265.16C218.59 265.16 219.36 265.384 219.966 265.832C220.582 266.271 220.998 266.901 221.212 267.722H219.49C219.35 267.339 219.126 267.041 218.818 266.826C218.51 266.611 218.123 266.504 217.656 266.504C217.003 266.504 216.48 266.737 216.088 267.204C215.706 267.661 215.514 268.305 215.514 269.136C215.514 269.967 215.706 270.615 216.088 271.082C216.48 271.549 217.003 271.782 217.656 271.782C218.58 271.782 219.192 271.376 219.49 270.564H221.212C220.988 271.348 220.568 271.973 219.952 272.44C219.336 272.897 218.571 273.126 217.656 273.126C216.919 273.126 216.266 272.963 215.696 272.636C215.127 272.3 214.679 271.833 214.352 271.236C214.035 270.629 213.876 269.929 213.876 269.136ZM229.733 268.954C229.733 269.243 229.714 269.505 229.677 269.738H223.783C223.83 270.354 224.058 270.849 224.469 271.222C224.88 271.595 225.384 271.782 225.981 271.782C226.84 271.782 227.446 271.423 227.801 270.704H229.523C229.29 271.413 228.865 271.997 228.249 272.454C227.642 272.902 226.886 273.126 225.981 273.126C225.244 273.126 224.581 272.963 223.993 272.636C223.414 272.3 222.957 271.833 222.621 271.236C222.294 270.629 222.131 269.929 222.131 269.136C222.131 268.343 222.29 267.647 222.607 267.05C222.934 266.443 223.386 265.977 223.965 265.65C224.553 265.323 225.225 265.16 225.981 265.16C226.709 265.16 227.358 265.319 227.927 265.636C228.496 265.953 228.94 266.401 229.257 266.98C229.574 267.549 229.733 268.207 229.733 268.954ZM228.067 268.45C228.058 267.862 227.848 267.391 227.437 267.036C227.026 266.681 226.518 266.504 225.911 266.504C225.36 266.504 224.889 266.681 224.497 267.036C224.105 267.381 223.872 267.853 223.797 268.45H228.067Z" fill="#292D32"/>
<path d="M512.63 264.25V262.794H515.542V273H513.932V264.25H512.63ZM517.567 265.314C517.623 264.446 517.954 263.769 518.561 263.284C519.177 262.799 519.961 262.556 520.913 262.556C521.566 262.556 522.131 262.673 522.607 262.906C523.083 263.139 523.442 263.457 523.685 263.858C523.927 264.259 524.049 264.712 524.049 265.216C524.049 265.795 523.895 266.289 523.587 266.7C523.279 267.111 522.91 267.386 522.481 267.526V267.582C523.031 267.75 523.461 268.058 523.769 268.506C524.077 268.945 524.231 269.509 524.231 270.2C524.231 270.751 524.105 271.241 523.853 271.67C523.601 272.099 523.227 272.44 522.733 272.692C522.238 272.935 521.645 273.056 520.955 273.056C519.947 273.056 519.116 272.799 518.463 272.286C517.819 271.763 517.473 271.017 517.427 270.046H518.967C519.004 270.541 519.195 270.947 519.541 271.264C519.886 271.572 520.353 271.726 520.941 271.726C521.51 271.726 521.949 271.572 522.257 271.264C522.565 270.947 522.719 270.541 522.719 270.046C522.719 269.393 522.509 268.931 522.089 268.66C521.678 268.38 521.043 268.24 520.185 268.24H519.821V266.924H520.199C520.955 266.915 521.529 266.789 521.921 266.546C522.322 266.303 522.523 265.921 522.523 265.398C522.523 264.95 522.378 264.595 522.089 264.334C521.799 264.063 521.389 263.928 520.857 263.928C520.334 263.928 519.928 264.063 519.639 264.334C519.349 264.595 519.177 264.922 519.121 265.314H517.567ZM539.722 263.27V273H538.126V266.336L535.158 273H534.052L531.07 266.336V273H529.474V263.27H531.196L534.612 270.9L538.014 263.27H539.722ZM548.749 268.954C548.749 269.243 548.731 269.505 548.693 269.738H542.799C542.846 270.354 543.075 270.849 543.485 271.222C543.896 271.595 544.4 271.782 544.997 271.782C545.856 271.782 546.463 271.423 546.817 270.704H548.539C548.306 271.413 547.881 271.997 547.265 272.454C546.659 272.902 545.903 273.126 544.997 273.126C544.26 273.126 543.597 272.963 543.009 272.636C542.431 272.3 541.973 271.833 541.637 271.236C541.311 270.629 541.147 269.929 541.147 269.136C541.147 268.343 541.306 267.647 541.623 267.05C541.95 266.443 542.403 265.977 542.981 265.65C543.569 265.323 544.241 265.16 544.997 265.16C545.725 265.16 546.374 265.319 546.943 265.636C547.513 265.953 547.956 266.401 548.273 266.98C548.591 267.549 548.749 268.207 548.749 268.954ZM547.083 268.45C547.074 267.862 546.864 267.391 546.453 267.036C546.043 266.681 545.534 266.504 544.927 266.504C544.377 266.504 543.905 266.681 543.513 267.036C543.121 267.381 542.888 267.853 542.813 268.45H547.083ZM550.992 264.264C550.703 264.264 550.46 264.166 550.264 263.97C550.068 263.774 549.97 263.531 549.97 263.242C549.97 262.953 550.068 262.71 550.264 262.514C550.46 262.318 550.703 262.22 550.992 262.22C551.272 262.22 551.51 262.318 551.706 262.514C551.902 262.71 552 262.953 552 263.242C552 263.531 551.902 263.774 551.706 263.97C551.51 264.166 551.272 264.264 550.992 264.264ZM551.776 265.286V273H550.18V265.286H551.776ZM557.9 270.83C558.796 270.055 559.501 269.421 560.014 268.926C560.537 268.422 560.971 267.899 561.316 267.358C561.662 266.817 561.834 266.275 561.834 265.734C561.834 265.174 561.699 264.735 561.428 264.418C561.167 264.101 560.752 263.942 560.182 263.942C559.632 263.942 559.202 264.119 558.894 264.474C558.596 264.819 558.437 265.286 558.418 265.874H556.878C556.906 264.81 557.224 263.998 557.83 263.438C558.446 262.869 559.226 262.584 560.168 262.584C561.186 262.584 561.979 262.864 562.548 263.424C563.127 263.984 563.416 264.731 563.416 265.664C563.416 266.336 563.244 266.985 562.898 267.61C562.562 268.226 562.156 268.781 561.68 269.276C561.214 269.761 560.616 270.326 559.888 270.97L559.258 271.53H563.696V272.86H556.892V271.698L557.9 270.83ZM564.958 267.764C564.958 266.149 565.229 264.889 565.77 263.984C566.321 263.069 567.264 262.612 568.598 262.612C569.933 262.612 570.871 263.069 571.412 263.984C571.963 264.889 572.238 266.149 572.238 267.764C572.238 269.397 571.963 270.676 571.412 271.6C570.871 272.515 569.933 272.972 568.598 272.972C567.264 272.972 566.321 272.515 565.77 271.6C565.229 270.676 564.958 269.397 564.958 267.764ZM570.67 267.764C570.67 267.008 570.619 266.369 570.516 265.846C570.423 265.323 570.227 264.899 569.928 264.572C569.63 264.236 569.186 264.068 568.598 264.068C568.01 264.068 567.567 264.236 567.268 264.572C566.97 264.899 566.769 265.323 566.666 265.846C566.573 266.369 566.526 267.008 566.526 267.764C566.526 268.548 566.573 269.206 566.666 269.738C566.76 270.27 566.956 270.699 567.254 271.026C567.562 271.353 568.01 271.516 568.598 271.516C569.186 271.516 569.63 271.353 569.928 271.026C570.236 270.699 570.437 270.27 570.53 269.738C570.624 269.206 570.67 268.548 570.67 267.764ZM574.669 270.83C575.565 270.055 576.27 269.421 576.783 268.926C577.306 268.422 577.74 267.899 578.085 267.358C578.43 266.817 578.603 266.275 578.603 265.734C578.603 265.174 578.468 264.735 578.197 264.418C577.936 264.101 577.52 263.942 576.951 263.942C576.4 263.942 575.971 264.119 575.663 264.474C575.364 264.819 575.206 265.286 575.187 265.874H573.647C573.675 264.81 573.992 263.998 574.599 263.438C575.215 262.869 575.994 262.584 576.937 262.584C577.954 262.584 578.748 262.864 579.317 263.424C579.896 263.984 580.185 264.731 580.185 265.664C580.185 266.336 580.012 266.985 579.667 267.61C579.331 268.226 578.925 268.781 578.449 269.276C577.982 269.761 577.385 270.326 576.657 270.97L576.027 271.53H580.465V272.86H573.661V271.698L574.669 270.83ZM581.531 270.872V269.668L586.235 262.92H588.167V269.486H589.469V270.872H588.167V273H586.599V270.872H581.531ZM586.669 264.544L583.365 269.486H586.669V264.544Z" fill="#292D32"/>
<rect x="880.5" y="252.5" width="107" height="28" rx="3.5" fill="#FFC5C5"/>
<rect x="880.5" y="252.5" width="107" height="28" rx="3.5" stroke="#DF0404"/>
<path d="M913.354 264.168C913.354 264.663 913.237 265.129 913.004 265.568C912.771 266.007 912.397 266.366 911.884 266.646C911.371 266.917 910.713 267.052 909.91 267.052H908.146V271H906.55V261.27H909.91C910.657 261.27 911.287 261.401 911.8 261.662C912.323 261.914 912.71 262.259 912.962 262.698C913.223 263.137 913.354 263.627 913.354 264.168ZM909.91 265.75C910.517 265.75 910.969 265.615 911.268 265.344C911.567 265.064 911.716 264.672 911.716 264.168C911.716 263.104 911.114 262.572 909.91 262.572H908.146V265.75H909.91ZM921.806 266.954C921.806 267.243 921.788 267.505 921.75 267.738H915.856C915.903 268.354 916.132 268.849 916.542 269.222C916.953 269.595 917.457 269.782 918.054 269.782C918.913 269.782 919.52 269.423 919.874 268.704H921.596C921.363 269.413 920.938 269.997 920.322 270.454C919.716 270.902 918.96 271.126 918.054 271.126C917.317 271.126 916.654 270.963 916.066 270.636C915.488 270.3 915.03 269.833 914.694 269.236C914.368 268.629 914.204 267.929 914.204 267.136C914.204 266.343 914.363 265.647 914.68 265.05C915.007 264.443 915.46 263.977 916.038 263.65C916.626 263.323 917.298 263.16 918.054 263.16C918.782 263.16 919.431 263.319 920 263.636C920.57 263.953 921.013 264.401 921.33 264.98C921.648 265.549 921.806 266.207 921.806 266.954ZM920.14 266.45C920.131 265.862 919.921 265.391 919.51 265.036C919.1 264.681 918.591 264.504 917.984 264.504C917.434 264.504 916.962 264.681 916.57 265.036C916.178 265.381 915.945 265.853 915.87 266.45H920.14ZM927.129 263.16C927.735 263.16 928.277 263.286 928.753 263.538C929.238 263.79 929.616 264.163 929.887 264.658C930.157 265.153 930.293 265.75 930.293 266.45V271H928.711V266.688C928.711 265.997 928.538 265.47 928.193 265.106C927.847 264.733 927.376 264.546 926.779 264.546C926.181 264.546 925.705 264.733 925.351 265.106C925.005 265.47 924.833 265.997 924.833 266.688V271H923.237V263.286H924.833V264.168C925.094 263.851 925.425 263.603 925.827 263.426C926.237 263.249 926.671 263.16 927.129 263.16ZM931.657 267.108C931.657 266.333 931.815 265.647 932.133 265.05C932.459 264.453 932.898 263.991 933.449 263.664C934.009 263.328 934.629 263.16 935.311 263.16C935.815 263.16 936.309 263.272 936.795 263.496C937.289 263.711 937.681 264 937.971 264.364V260.64H939.581V271H937.971V269.838C937.709 270.211 937.345 270.519 936.879 270.762C936.421 271.005 935.894 271.126 935.297 271.126C934.625 271.126 934.009 270.958 933.449 270.622C932.898 270.277 932.459 269.801 932.133 269.194C931.815 268.578 931.657 267.883 931.657 267.108ZM937.971 267.136C937.971 266.604 937.859 266.142 937.635 265.75C937.42 265.358 937.135 265.059 936.781 264.854C936.426 264.649 936.043 264.546 935.633 264.546C935.222 264.546 934.839 264.649 934.485 264.854C934.13 265.05 933.841 265.344 933.617 265.736C933.402 266.119 933.295 266.576 933.295 267.108C933.295 267.64 933.402 268.107 933.617 268.508C933.841 268.909 934.13 269.217 934.485 269.432C934.849 269.637 935.231 269.74 935.633 269.74C936.043 269.74 936.426 269.637 936.781 269.432C937.135 269.227 937.42 268.928 937.635 268.536C937.859 268.135 937.971 267.668 937.971 267.136ZM942.349 262.264C942.06 262.264 941.817 262.166 941.621 261.97C941.425 261.774 941.327 261.531 941.327 261.242C941.327 260.953 941.425 260.71 941.621 260.514C941.817 260.318 942.06 260.22 942.349 260.22C942.629 260.22 942.867 260.318 943.063 260.514C943.259 260.71 943.357 260.953 943.357 261.242C943.357 261.531 943.259 261.774 943.063 261.97C942.867 262.166 942.629 262.264 942.349 262.264ZM943.133 263.286V271H941.537V263.286H943.133ZM948.98 263.16C949.587 263.16 950.128 263.286 950.604 263.538C951.09 263.79 951.468 264.163 951.738 264.658C952.009 265.153 952.144 265.75 952.144 266.45V271H950.562V266.688C950.562 265.997 950.39 265.47 950.044 265.106C949.699 264.733 949.228 264.546 948.63 264.546C948.033 264.546 947.557 264.733 947.202 265.106C946.857 265.47 946.684 265.997 946.684 266.688V271H945.088V263.286H946.684V264.168C946.946 263.851 947.277 263.603 947.678 263.426C948.089 263.249 948.523 263.16 948.98 263.16ZM957.148 263.16C957.745 263.16 958.273 263.281 958.73 263.524C959.197 263.757 959.561 264.051 959.822 264.406V263.286H961.432V271.126C961.432 271.835 961.283 272.465 960.984 273.016C960.685 273.576 960.251 274.015 959.682 274.332C959.122 274.649 958.45 274.808 957.666 274.808C956.621 274.808 955.753 274.561 955.062 274.066C954.371 273.581 953.979 272.918 953.886 272.078H955.468C955.589 272.479 955.846 272.801 956.238 273.044C956.639 273.296 957.115 273.422 957.666 273.422C958.31 273.422 958.828 273.226 959.22 272.834C959.621 272.442 959.822 271.873 959.822 271.126V269.838C959.551 270.202 959.183 270.51 958.716 270.762C958.259 271.005 957.736 271.126 957.148 271.126C956.476 271.126 955.86 270.958 955.3 270.622C954.749 270.277 954.311 269.801 953.984 269.194C953.667 268.578 953.508 267.883 953.508 267.108C953.508 266.333 953.667 265.647 953.984 265.05C954.311 264.453 954.749 263.991 955.3 263.664C955.86 263.328 956.476 263.16 957.148 263.16ZM959.822 267.136C959.822 266.604 959.71 266.142 959.486 265.75C959.271 265.358 958.987 265.059 958.632 264.854C958.277 264.649 957.895 264.546 957.484 264.546C957.073 264.546 956.691 264.649 956.336 264.854C955.981 265.05 955.692 265.344 955.468 265.736C955.253 266.119 955.146 266.576 955.146 267.108C955.146 267.64 955.253 268.107 955.468 268.508C955.692 268.909 955.981 269.217 956.336 269.432C956.7 269.637 957.083 269.74 957.484 269.74C957.895 269.74 958.277 269.637 958.632 269.432C958.987 269.227 959.271 268.928 959.486 268.536C959.71 268.135 959.822 267.668 959.822 267.136Z" fill="#DF0404"/>
<path d="M98.6747 324.114C98.6747 323.162 98.8941 322.308 99.3327 321.552C99.7807 320.796 100.383 320.208 101.139 319.788C101.904 319.359 102.739 319.144 103.645 319.144C104.681 319.144 105.6 319.401 106.403 319.914C107.215 320.418 107.803 321.137 108.167 322.07H106.249C105.997 321.557 105.647 321.174 105.199 320.922C104.751 320.67 104.233 320.544 103.645 320.544C103.001 320.544 102.427 320.689 101.923 320.978C101.419 321.267 101.022 321.683 100.733 322.224C100.453 322.765 100.313 323.395 100.313 324.114C100.313 324.833 100.453 325.463 100.733 326.004C101.022 326.545 101.419 326.965 101.923 327.264C102.427 327.553 103.001 327.698 103.645 327.698C104.233 327.698 104.751 327.572 105.199 327.32C105.647 327.068 105.997 326.685 106.249 326.172H108.167C107.803 327.105 107.215 327.824 106.403 328.328C105.6 328.832 104.681 329.084 103.645 329.084C102.73 329.084 101.895 328.874 101.139 328.454C100.383 328.025 99.7807 327.432 99.3327 326.676C98.8941 325.92 98.6747 325.066 98.6747 324.114ZM113.241 329.126C112.513 329.126 111.855 328.963 111.267 328.636C110.679 328.3 110.217 327.833 109.881 327.236C109.545 326.629 109.377 325.929 109.377 325.136C109.377 324.352 109.55 323.657 109.895 323.05C110.24 322.443 110.712 321.977 111.309 321.65C111.906 321.323 112.574 321.16 113.311 321.16C114.048 321.16 114.716 321.323 115.313 321.65C115.91 321.977 116.382 322.443 116.727 323.05C117.072 323.657 117.245 324.352 117.245 325.136C117.245 325.92 117.068 326.615 116.713 327.222C116.358 327.829 115.873 328.3 115.257 328.636C114.65 328.963 113.978 329.126 113.241 329.126ZM113.241 327.74C113.652 327.74 114.034 327.642 114.389 327.446C114.753 327.25 115.047 326.956 115.271 326.564C115.495 326.172 115.607 325.696 115.607 325.136C115.607 324.576 115.5 324.105 115.285 323.722C115.07 323.33 114.786 323.036 114.431 322.84C114.076 322.644 113.694 322.546 113.283 322.546C112.872 322.546 112.49 322.644 112.135 322.84C111.79 323.036 111.514 323.33 111.309 323.722C111.104 324.105 111.001 324.576 111.001 325.136C111.001 325.967 111.211 326.611 111.631 327.068C112.06 327.516 112.597 327.74 113.241 327.74ZM128.021 321.16C128.627 321.16 129.169 321.286 129.645 321.538C130.13 321.79 130.508 322.163 130.779 322.658C131.059 323.153 131.199 323.75 131.199 324.45V329H129.617V324.688C129.617 323.997 129.444 323.47 129.099 323.106C128.753 322.733 128.282 322.546 127.685 322.546C127.087 322.546 126.611 322.733 126.257 323.106C125.911 323.47 125.739 323.997 125.739 324.688V329H124.157V324.688C124.157 323.997 123.984 323.47 123.639 323.106C123.293 322.733 122.822 322.546 122.225 322.546C121.627 322.546 121.151 322.733 120.797 323.106C120.451 323.47 120.279 323.997 120.279 324.688V329H118.683V321.286H120.279V322.168C120.54 321.851 120.871 321.603 121.273 321.426C121.674 321.249 122.103 321.16 122.561 321.16C123.177 321.16 123.727 321.291 124.213 321.552C124.698 321.813 125.071 322.191 125.333 322.686C125.566 322.219 125.93 321.851 126.425 321.58C126.919 321.3 127.451 321.16 128.021 321.16ZM142.427 321.16C143.034 321.16 143.575 321.286 144.051 321.538C144.537 321.79 144.915 322.163 145.185 322.658C145.465 323.153 145.605 323.75 145.605 324.45V329H144.023V324.688C144.023 323.997 143.851 323.47 143.505 323.106C143.16 322.733 142.689 322.546 142.091 322.546C141.494 322.546 141.018 322.733 140.663 323.106C140.318 323.47 140.145 323.997 140.145 324.688V329H138.563V324.688C138.563 323.997 138.391 323.47 138.045 323.106C137.7 322.733 137.229 322.546 136.631 322.546C136.034 322.546 135.558 322.733 135.203 323.106C134.858 323.47 134.685 323.997 134.685 324.688V329H133.089V321.286H134.685V322.168C134.947 321.851 135.278 321.603 135.679 321.426C136.081 321.249 136.51 321.16 136.967 321.16C137.583 321.16 138.134 321.291 138.619 321.552C139.105 321.813 139.478 322.191 139.739 322.686C139.973 322.219 140.337 321.851 140.831 321.58C141.326 321.3 141.858 321.16 142.427 321.16ZM154.482 321.286V329H152.886V328.09C152.634 328.407 152.303 328.659 151.892 328.846C151.491 329.023 151.062 329.112 150.604 329.112C149.998 329.112 149.452 328.986 148.966 328.734C148.49 328.482 148.112 328.109 147.832 327.614C147.562 327.119 147.426 326.522 147.426 325.822V321.286H149.008V325.584C149.008 326.275 149.181 326.807 149.526 327.18C149.872 327.544 150.343 327.726 150.94 327.726C151.538 327.726 152.009 327.544 152.354 327.18C152.709 326.807 152.886 326.275 152.886 325.584V321.286H154.482ZM160.34 321.16C160.947 321.16 161.488 321.286 161.964 321.538C162.449 321.79 162.827 322.163 163.098 322.658C163.369 323.153 163.504 323.75 163.504 324.45V329H161.922V324.688C161.922 323.997 161.749 323.47 161.404 323.106C161.059 322.733 160.587 322.546 159.99 322.546C159.393 322.546 158.917 322.733 158.562 323.106C158.217 323.47 158.044 323.997 158.044 324.688V329H156.448V321.286H158.044V322.168C158.305 321.851 158.637 321.603 159.038 321.426C159.449 321.249 159.883 321.16 160.34 321.16ZM164.868 325.108C164.868 324.333 165.027 323.647 165.344 323.05C165.671 322.453 166.109 321.991 166.66 321.664C167.22 321.328 167.836 321.16 168.508 321.16C169.115 321.16 169.642 321.281 170.09 321.524C170.547 321.757 170.911 322.051 171.182 322.406V321.286H172.792V329H171.182V327.852C170.911 328.216 170.543 328.519 170.076 328.762C169.609 329.005 169.077 329.126 168.48 329.126C167.817 329.126 167.211 328.958 166.66 328.622C166.109 328.277 165.671 327.801 165.344 327.194C165.027 326.578 164.868 325.883 164.868 325.108ZM171.182 325.136C171.182 324.604 171.07 324.142 170.846 323.75C170.631 323.358 170.347 323.059 169.992 322.854C169.637 322.649 169.255 322.546 168.844 322.546C168.433 322.546 168.051 322.649 167.696 322.854C167.341 323.05 167.052 323.344 166.828 323.736C166.613 324.119 166.506 324.576 166.506 325.108C166.506 325.64 166.613 326.107 166.828 326.508C167.052 326.909 167.341 327.217 167.696 327.432C168.06 327.637 168.443 327.74 168.844 327.74C169.255 327.74 169.637 327.637 169.992 327.432C170.347 327.227 170.631 326.928 170.846 326.536C171.07 326.135 171.182 325.668 171.182 325.136ZM176.344 318.64V329H174.748V318.64H176.344ZM181.376 320.25V318.794H184.288V329H182.678V320.25H181.376Z" fill="#292D32"/>
<path d="M512.63 320.25V318.794H515.542V329H513.932V320.25H512.63ZM517.398 326.872V325.668L522.102 318.92H524.034V325.486H525.336V326.872H524.034V329H522.466V326.872H517.398ZM522.536 320.544L519.232 325.486H522.536V320.544ZM540.473 319.27V329H538.877V322.336L535.909 329H534.803L531.821 322.336V329H530.225V319.27H531.947L535.363 326.9L538.765 319.27H540.473ZM549.501 324.954C549.501 325.243 549.482 325.505 549.445 325.738H543.551C543.598 326.354 543.826 326.849 544.237 327.222C544.648 327.595 545.152 327.782 545.749 327.782C546.608 327.782 547.214 327.423 547.569 326.704H549.291C549.058 327.413 548.633 327.997 548.017 328.454C547.41 328.902 546.654 329.126 545.749 329.126C545.012 329.126 544.349 328.963 543.761 328.636C543.182 328.3 542.725 327.833 542.389 327.236C542.062 326.629 541.899 325.929 541.899 325.136C541.899 324.343 542.058 323.647 542.375 323.05C542.702 322.443 543.154 321.977 543.733 321.65C544.321 321.323 544.993 321.16 545.749 321.16C546.477 321.16 547.126 321.319 547.695 321.636C548.264 321.953 548.708 322.401 549.025 322.98C549.342 323.549 549.501 324.207 549.501 324.954ZM547.835 324.45C547.826 323.862 547.616 323.391 547.205 323.036C546.794 322.681 546.286 322.504 545.679 322.504C545.128 322.504 544.657 322.681 544.265 323.036C543.873 323.381 543.64 323.853 543.565 324.45H547.835ZM551.744 320.264C551.454 320.264 551.212 320.166 551.016 319.97C550.82 319.774 550.722 319.531 550.722 319.242C550.722 318.953 550.82 318.71 551.016 318.514C551.212 318.318 551.454 318.22 551.744 318.22C552.024 318.22 552.262 318.318 552.458 318.514C552.654 318.71 552.752 318.953 552.752 319.242C552.752 319.531 552.654 319.774 552.458 319.97C552.262 320.166 552.024 320.264 551.744 320.264ZM552.528 321.286V329H550.932V321.286H552.528ZM558.652 326.83C559.548 326.055 560.252 325.421 560.766 324.926C561.288 324.422 561.722 323.899 562.068 323.358C562.413 322.817 562.586 322.275 562.586 321.734C562.586 321.174 562.45 320.735 562.18 320.418C561.918 320.101 561.503 319.942 560.934 319.942C560.383 319.942 559.954 320.119 559.646 320.474C559.347 320.819 559.188 321.286 559.17 321.874H557.63C557.658 320.81 557.975 319.998 558.582 319.438C559.198 318.869 559.977 318.584 560.92 318.584C561.937 318.584 562.73 318.864 563.3 319.424C563.878 319.984 564.168 320.731 564.168 321.664C564.168 322.336 563.995 322.985 563.65 323.61C563.314 324.226 562.908 324.781 562.432 325.276C561.965 325.761 561.368 326.326 560.64 326.97L560.01 327.53H564.448V328.86H557.644V327.698L558.652 326.83ZM565.71 323.764C565.71 322.149 565.98 320.889 566.522 319.984C567.072 319.069 568.015 318.612 569.35 318.612C570.684 318.612 571.622 319.069 572.164 319.984C572.714 320.889 572.99 322.149 572.99 323.764C572.99 325.397 572.714 326.676 572.164 327.6C571.622 328.515 570.684 328.972 569.35 328.972C568.015 328.972 567.072 328.515 566.522 327.6C565.98 326.676 565.71 325.397 565.71 323.764ZM571.422 323.764C571.422 323.008 571.37 322.369 571.268 321.846C571.174 321.323 570.978 320.899 570.68 320.572C570.381 320.236 569.938 320.068 569.35 320.068C568.762 320.068 568.318 320.236 568.02 320.572C567.721 320.899 567.52 321.323 567.418 321.846C567.324 322.369 567.278 323.008 567.278 323.764C567.278 324.548 567.324 325.206 567.418 325.738C567.511 326.27 567.707 326.699 568.006 327.026C568.314 327.353 568.762 327.516 569.35 327.516C569.938 327.516 570.381 327.353 570.68 327.026C570.988 326.699 571.188 326.27 571.282 325.738C571.375 325.206 571.422 324.548 571.422 323.764ZM575.42 326.83C576.316 326.055 577.021 325.421 577.534 324.926C578.057 324.422 578.491 323.899 578.836 323.358C579.182 322.817 579.354 322.275 579.354 321.734C579.354 321.174 579.219 320.735 578.948 320.418C578.687 320.101 578.272 319.942 577.702 319.942C577.152 319.942 576.722 320.119 576.414 320.474C576.116 320.819 575.957 321.286 575.938 321.874H574.398C574.426 320.81 574.744 319.998 575.35 319.438C575.966 318.869 576.746 318.584 577.688 318.584C578.706 318.584 579.499 318.864 580.068 319.424C580.647 319.984 580.936 320.731 580.936 321.664C580.936 322.336 580.764 322.985 580.418 323.61C580.082 324.226 579.676 324.781 579.2 325.276C578.734 325.761 578.136 326.326 577.408 326.97L576.778 327.53H581.216V328.86H574.412V327.698L575.42 326.83ZM582.283 326.872V325.668L586.987 318.92H588.919V325.486H590.221V326.872H588.919V329H587.351V326.872H582.283ZM587.421 320.544L584.117 325.486H587.421V320.544Z" fill="#292D32"/>
<rect x="879.5" y="307.5" width="108" height="28" rx="3.5" fill="#FFC5C5"/>
<rect x="879.5" y="307.5" width="108" height="28" rx="3.5" stroke="#DF0404"/>
<path d="M912.854 319.168C912.854 319.663 912.737 320.129 912.504 320.568C912.271 321.007 911.897 321.366 911.384 321.646C910.871 321.917 910.213 322.052 909.41 322.052H907.646V326H906.05V316.27H909.41C910.157 316.27 910.787 316.401 911.3 316.662C911.823 316.914 912.21 317.259 912.462 317.698C912.723 318.137 912.854 318.627 912.854 319.168ZM909.41 320.75C910.017 320.75 910.469 320.615 910.768 320.344C911.067 320.064 911.216 319.672 911.216 319.168C911.216 318.104 910.614 317.572 909.41 317.572H907.646V320.75H909.41ZM921.306 321.954C921.306 322.243 921.288 322.505 921.25 322.738H915.356C915.403 323.354 915.632 323.849 916.042 324.222C916.453 324.595 916.957 324.782 917.554 324.782C918.413 324.782 919.02 324.423 919.374 323.704H921.096C920.863 324.413 920.438 324.997 919.822 325.454C919.216 325.902 918.46 326.126 917.554 326.126C916.817 326.126 916.154 325.963 915.566 325.636C914.988 325.3 914.53 324.833 914.194 324.236C913.868 323.629 913.704 322.929 913.704 322.136C913.704 321.343 913.863 320.647 914.18 320.05C914.507 319.443 914.96 318.977 915.538 318.65C916.126 318.323 916.798 318.16 917.554 318.16C918.282 318.16 918.931 318.319 919.5 318.636C920.07 318.953 920.513 319.401 920.83 319.98C921.148 320.549 921.306 321.207 921.306 321.954ZM919.64 321.45C919.631 320.862 919.421 320.391 919.01 320.036C918.6 319.681 918.091 319.504 917.484 319.504C916.934 319.504 916.462 319.681 916.07 320.036C915.678 320.381 915.445 320.853 915.37 321.45H919.64ZM926.629 318.16C927.235 318.16 927.777 318.286 928.253 318.538C928.738 318.79 929.116 319.163 929.387 319.658C929.657 320.153 929.793 320.75 929.793 321.45V326H928.211V321.688C928.211 320.997 928.038 320.47 927.693 320.106C927.347 319.733 926.876 319.546 926.279 319.546C925.681 319.546 925.205 319.733 924.851 320.106C924.505 320.47 924.333 320.997 924.333 321.688V326H922.737V318.286H924.333V319.168C924.594 318.851 924.925 318.603 925.327 318.426C925.737 318.249 926.171 318.16 926.629 318.16ZM931.157 322.108C931.157 321.333 931.315 320.647 931.633 320.05C931.959 319.453 932.398 318.991 932.949 318.664C933.509 318.328 934.129 318.16 934.811 318.16C935.315 318.16 935.809 318.272 936.295 318.496C936.789 318.711 937.181 319 937.471 319.364V315.64H939.081V326H937.471V324.838C937.209 325.211 936.845 325.519 936.379 325.762C935.921 326.005 935.394 326.126 934.797 326.126C934.125 326.126 933.509 325.958 932.949 325.622C932.398 325.277 931.959 324.801 931.633 324.194C931.315 323.578 931.157 322.883 931.157 322.108ZM937.471 322.136C937.471 321.604 937.359 321.142 937.135 320.75C936.92 320.358 936.635 320.059 936.281 319.854C935.926 319.649 935.543 319.546 935.133 319.546C934.722 319.546 934.339 319.649 933.985 319.854C933.63 320.05 933.341 320.344 933.117 320.736C932.902 321.119 932.795 321.576 932.795 322.108C932.795 322.64 932.902 323.107 933.117 323.508C933.341 323.909 933.63 324.217 933.985 324.432C934.349 324.637 934.731 324.74 935.133 324.74C935.543 324.74 935.926 324.637 936.281 324.432C936.635 324.227 936.92 323.928 937.135 323.536C937.359 323.135 937.471 322.668 937.471 322.136ZM941.849 317.264C941.56 317.264 941.317 317.166 941.121 316.97C940.925 316.774 940.827 316.531 940.827 316.242C940.827 315.953 940.925 315.71 941.121 315.514C941.317 315.318 941.56 315.22 941.849 315.22C942.129 315.22 942.367 315.318 942.563 315.514C942.759 315.71 942.857 315.953 942.857 316.242C942.857 316.531 942.759 316.774 942.563 316.97C942.367 317.166 942.129 317.264 941.849 317.264ZM942.633 318.286V326H941.037V318.286H942.633ZM948.48 318.16C949.087 318.16 949.628 318.286 950.104 318.538C950.59 318.79 950.968 319.163 951.238 319.658C951.509 320.153 951.644 320.75 951.644 321.45V326H950.062V321.688C950.062 320.997 949.89 320.47 949.544 320.106C949.199 319.733 948.728 319.546 948.13 319.546C947.533 319.546 947.057 319.733 946.702 320.106C946.357 320.47 946.184 320.997 946.184 321.688V326H944.588V318.286H946.184V319.168C946.446 318.851 946.777 318.603 947.178 318.426C947.589 318.249 948.023 318.16 948.48 318.16ZM956.648 318.16C957.245 318.16 957.773 318.281 958.23 318.524C958.697 318.757 959.061 319.051 959.322 319.406V318.286H960.932V326.126C960.932 326.835 960.783 327.465 960.484 328.016C960.185 328.576 959.751 329.015 959.182 329.332C958.622 329.649 957.95 329.808 957.166 329.808C956.121 329.808 955.253 329.561 954.562 329.066C953.871 328.581 953.479 327.918 953.386 327.078H954.968C955.089 327.479 955.346 327.801 955.738 328.044C956.139 328.296 956.615 328.422 957.166 328.422C957.81 328.422 958.328 328.226 958.72 327.834C959.121 327.442 959.322 326.873 959.322 326.126V324.838C959.051 325.202 958.683 325.51 958.216 325.762C957.759 326.005 957.236 326.126 956.648 326.126C955.976 326.126 955.36 325.958 954.8 325.622C954.249 325.277 953.811 324.801 953.484 324.194C953.167 323.578 953.008 322.883 953.008 322.108C953.008 321.333 953.167 320.647 953.484 320.05C953.811 319.453 954.249 318.991 954.8 318.664C955.36 318.328 955.976 318.16 956.648 318.16ZM959.322 322.136C959.322 321.604 959.21 321.142 958.986 320.75C958.771 320.358 958.487 320.059 958.132 319.854C957.777 319.649 957.395 319.546 956.984 319.546C956.573 319.546 956.191 319.649 955.836 319.854C955.481 320.05 955.192 320.344 954.968 320.736C954.753 321.119 954.646 321.576 954.646 322.108C954.646 322.64 954.753 323.107 954.968 323.508C955.192 323.909 955.481 324.217 955.836 324.432C956.2 324.637 956.583 324.74 956.984 324.74C957.395 324.74 957.777 324.637 958.132 324.432C958.487 324.227 958.771 323.928 958.986 323.536C959.21 323.135 959.322 322.668 959.322 322.136Z" fill="#DF0404"/>
<line x1="60" y1="183.095" x2="1032" y2="183.095" stroke="#0C0A72"/>
<line x1="60" y1="183.095" x2="1032" y2="183.095" stroke="#0C0A72"/>
<line x1="100.166" y1="238.626" x2="991.835" y2="238.626" stroke="#528FD6" stroke-opacity="0.8"/>
<line x1="100.166" y1="294.156" x2="991.835" y2="294.156" stroke="#528FD6" stroke-opacity="0.8"/>
<line x1="100.166" y1="349.687" x2="991.835" y2="349.687" stroke="#528FD6" stroke-opacity="0.8"/>
<rect x="880.5" y="198.5" width="107" height="28" rx="3.5" fill="#93F4A8"/>
<rect x="880.5" y="198.5" width="107" height="28" rx="3.5" stroke="#00B087"/>
<path d="M897.488 217.098C896.583 217.098 895.747 216.888 894.982 216.468C894.226 216.039 893.624 215.446 893.176 214.69C892.737 213.925 892.518 213.066 892.518 212.114C892.518 211.162 892.737 210.308 893.176 209.552C893.624 208.796 894.226 208.208 894.982 207.788C895.747 207.359 896.583 207.144 897.488 207.144C898.403 207.144 899.238 207.359 899.994 207.788C900.759 208.208 901.361 208.796 901.8 209.552C902.239 210.308 902.458 211.162 902.458 212.114C902.458 213.066 902.239 213.925 901.8 214.69C901.361 215.446 900.759 216.039 899.994 216.468C899.238 216.888 898.403 217.098 897.488 217.098ZM897.488 215.712C898.132 215.712 898.706 215.567 899.21 215.278C899.714 214.979 900.106 214.559 900.386 214.018C900.675 213.467 900.82 212.833 900.82 212.114C900.82 211.395 900.675 210.765 900.386 210.224C900.106 209.683 899.714 209.267 899.21 208.978C898.706 208.689 898.132 208.544 897.488 208.544C896.844 208.544 896.27 208.689 895.766 208.978C895.262 209.267 894.865 209.683 894.576 210.224C894.296 210.765 894.156 211.395 894.156 212.114C894.156 212.833 894.296 213.467 894.576 214.018C894.865 214.559 895.262 214.979 895.766 215.278C896.27 215.567 896.844 215.712 897.488 215.712ZM907.781 209.16C908.387 209.16 908.929 209.286 909.405 209.538C909.89 209.79 910.268 210.163 910.539 210.658C910.809 211.153 910.945 211.75 910.945 212.45V217H909.363V212.688C909.363 211.997 909.19 211.47 908.845 211.106C908.499 210.733 908.028 210.546 907.431 210.546C906.833 210.546 906.357 210.733 906.003 211.106C905.657 211.47 905.485 211.997 905.485 212.688V217H903.889V209.286H905.485V210.168C905.746 209.851 906.077 209.603 906.479 209.426C906.889 209.249 907.323 209.16 907.781 209.16ZM923.141 210.168C923.141 210.663 923.024 211.129 922.791 211.568C922.558 212.007 922.184 212.366 921.671 212.646C921.158 212.917 920.5 213.052 919.697 213.052H917.933V217H916.337V207.27H919.697C920.444 207.27 921.074 207.401 921.587 207.662C922.11 207.914 922.497 208.259 922.749 208.698C923.01 209.137 923.141 209.627 923.141 210.168ZM919.697 211.75C920.304 211.75 920.756 211.615 921.055 211.344C921.354 211.064 921.503 210.672 921.503 210.168C921.503 209.104 920.901 208.572 919.697 208.572H917.933V211.75H919.697ZM926.119 210.406C926.353 210.014 926.661 209.711 927.043 209.496C927.435 209.272 927.897 209.16 928.429 209.16V210.812H928.023C927.398 210.812 926.922 210.971 926.595 211.288C926.278 211.605 926.119 212.156 926.119 212.94V217H924.523V209.286H926.119V210.406ZM933.102 217.126C932.374 217.126 931.716 216.963 931.128 216.636C930.54 216.3 930.078 215.833 929.742 215.236C929.406 214.629 929.238 213.929 929.238 213.136C929.238 212.352 929.411 211.657 929.756 211.05C930.102 210.443 930.573 209.977 931.17 209.65C931.768 209.323 932.435 209.16 933.172 209.16C933.91 209.16 934.577 209.323 935.174 209.65C935.772 209.977 936.243 210.443 936.588 211.05C936.934 211.657 937.106 212.352 937.106 213.136C937.106 213.92 936.929 214.615 936.574 215.222C936.22 215.829 935.734 216.3 935.118 216.636C934.512 216.963 933.84 217.126 933.102 217.126ZM933.102 215.74C933.513 215.74 933.896 215.642 934.25 215.446C934.614 215.25 934.908 214.956 935.132 214.564C935.356 214.172 935.468 213.696 935.468 213.136C935.468 212.576 935.361 212.105 935.146 211.722C934.932 211.33 934.647 211.036 934.292 210.84C933.938 210.644 933.555 210.546 933.144 210.546C932.734 210.546 932.351 210.644 931.996 210.84C931.651 211.036 931.376 211.33 931.17 211.722C930.965 212.105 930.862 212.576 930.862 213.136C930.862 213.967 931.072 214.611 931.492 215.068C931.922 215.516 932.458 215.74 933.102 215.74ZM941.652 209.16C942.249 209.16 942.777 209.281 943.234 209.524C943.701 209.757 944.065 210.051 944.326 210.406V209.286H945.936V217.126C945.936 217.835 945.787 218.465 945.488 219.016C945.189 219.576 944.755 220.015 944.186 220.332C943.626 220.649 942.954 220.808 942.17 220.808C941.125 220.808 940.257 220.561 939.566 220.066C938.875 219.581 938.483 218.918 938.39 218.078H939.972C940.093 218.479 940.35 218.801 940.742 219.044C941.143 219.296 941.619 219.422 942.17 219.422C942.814 219.422 943.332 219.226 943.724 218.834C944.125 218.442 944.326 217.873 944.326 217.126V215.838C944.055 216.202 943.687 216.51 943.22 216.762C942.763 217.005 942.24 217.126 941.652 217.126C940.98 217.126 940.364 216.958 939.804 216.622C939.253 216.277 938.815 215.801 938.488 215.194C938.171 214.578 938.012 213.883 938.012 213.108C938.012 212.333 938.171 211.647 938.488 211.05C938.815 210.453 939.253 209.991 939.804 209.664C940.364 209.328 940.98 209.16 941.652 209.16ZM944.326 213.136C944.326 212.604 944.214 212.142 943.99 211.75C943.775 211.358 943.491 211.059 943.136 210.854C942.781 210.649 942.399 210.546 941.988 210.546C941.577 210.546 941.195 210.649 940.84 210.854C940.485 211.05 940.196 211.344 939.972 211.736C939.757 212.119 939.65 212.576 939.65 213.108C939.65 213.64 939.757 214.107 939.972 214.508C940.196 214.909 940.485 215.217 940.84 215.432C941.204 215.637 941.587 215.74 941.988 215.74C942.399 215.74 942.781 215.637 943.136 215.432C943.491 215.227 943.775 214.928 943.99 214.536C944.214 214.135 944.326 213.668 944.326 213.136ZM949.488 210.406C949.722 210.014 950.03 209.711 950.412 209.496C950.804 209.272 951.266 209.16 951.798 209.16V210.812H951.392C950.767 210.812 950.291 210.971 949.964 211.288C949.647 211.605 949.488 212.156 949.488 212.94V217H947.892V209.286H949.488V210.406ZM960.195 212.954C960.195 213.243 960.177 213.505 960.139 213.738H954.245C954.292 214.354 954.521 214.849 954.931 215.222C955.342 215.595 955.846 215.782 956.443 215.782C957.302 215.782 957.909 215.423 958.263 214.704H959.985C959.752 215.413 959.327 215.997 958.711 216.454C958.105 216.902 957.349 217.126 956.443 217.126C955.706 217.126 955.043 216.963 954.455 216.636C953.877 216.3 953.419 215.833 953.083 215.236C952.757 214.629 952.593 213.929 952.593 213.136C952.593 212.343 952.752 211.647 953.069 211.05C953.396 210.443 953.849 209.977 954.427 209.65C955.015 209.323 955.687 209.16 956.443 209.16C957.171 209.16 957.82 209.319 958.389 209.636C958.959 209.953 959.402 210.401 959.719 210.98C960.037 211.549 960.195 212.207 960.195 212.954ZM958.529 212.45C958.52 211.862 958.31 211.391 957.899 211.036C957.489 210.681 956.98 210.504 956.373 210.504C955.823 210.504 955.351 210.681 954.959 211.036C954.567 211.381 954.334 211.853 954.259 212.45H958.529ZM964.426 217.126C963.819 217.126 963.273 217.019 962.788 216.804C962.312 216.58 961.934 216.281 961.654 215.908C961.374 215.525 961.225 215.101 961.206 214.634H962.858C962.886 214.961 963.04 215.236 963.32 215.46C963.609 215.675 963.969 215.782 964.398 215.782C964.846 215.782 965.191 215.698 965.434 215.53C965.686 215.353 965.812 215.129 965.812 214.858C965.812 214.569 965.672 214.354 965.392 214.214C965.121 214.074 964.687 213.92 964.09 213.752C963.511 213.593 963.04 213.439 962.676 213.29C962.312 213.141 961.995 212.912 961.724 212.604C961.463 212.296 961.332 211.89 961.332 211.386C961.332 210.975 961.453 210.602 961.696 210.266C961.939 209.921 962.284 209.65 962.732 209.454C963.189 209.258 963.712 209.16 964.3 209.16C965.177 209.16 965.882 209.384 966.414 209.832C966.955 210.271 967.245 210.873 967.282 211.638H965.686C965.658 211.293 965.518 211.017 965.266 210.812C965.014 210.607 964.673 210.504 964.244 210.504C963.824 210.504 963.502 210.583 963.278 210.742C963.054 210.901 962.942 211.111 962.942 211.372C962.942 211.577 963.017 211.75 963.166 211.89C963.315 212.03 963.497 212.142 963.712 212.226C963.927 212.301 964.244 212.399 964.664 212.52C965.224 212.669 965.681 212.823 966.036 212.982C966.4 213.131 966.713 213.355 966.974 213.654C967.235 213.953 967.371 214.349 967.38 214.844C967.38 215.283 967.259 215.675 967.016 216.02C966.773 216.365 966.428 216.636 965.98 216.832C965.541 217.028 965.023 217.126 964.426 217.126ZM971.764 217.126C971.158 217.126 970.612 217.019 970.126 216.804C969.65 216.58 969.272 216.281 968.992 215.908C968.712 215.525 968.563 215.101 968.544 214.634H970.196C970.224 214.961 970.378 215.236 970.658 215.46C970.948 215.675 971.307 215.782 971.736 215.782C972.184 215.782 972.53 215.698 972.772 215.53C973.024 215.353 973.15 215.129 973.15 214.858C973.15 214.569 973.01 214.354 972.73 214.214C972.46 214.074 972.026 213.92 971.428 213.752C970.85 213.593 970.378 213.439 970.014 213.29C969.65 213.141 969.333 212.912 969.062 212.604C968.801 212.296 968.67 211.89 968.67 211.386C968.67 210.975 968.792 210.602 969.034 210.266C969.277 209.921 969.622 209.65 970.07 209.454C970.528 209.258 971.05 209.16 971.638 209.16C972.516 209.16 973.22 209.384 973.752 209.832C974.294 210.271 974.583 210.873 974.62 211.638H973.024C972.996 211.293 972.856 211.017 972.604 210.812C972.352 210.607 972.012 210.504 971.582 210.504C971.162 210.504 970.84 210.583 970.616 210.742C970.392 210.901 970.28 211.111 970.28 211.372C970.28 211.577 970.355 211.75 970.504 211.89C970.654 212.03 970.836 212.142 971.05 212.226C971.265 212.301 971.582 212.399 972.002 212.52C972.562 212.669 973.02 212.823 973.374 212.982C973.738 213.131 974.051 213.355 974.312 213.654C974.574 213.953 974.709 214.349 974.718 214.844C974.718 215.283 974.597 215.675 974.354 216.02C974.112 216.365 973.766 216.636 973.318 216.832C972.88 217.028 972.362 217.126 971.764 217.126Z" fill="#00B087"/>
<defs>
<filter id="filter0_d_817_10056" x="0" y="0" width="1092" height="773.49" filterUnits="userSpaceOnUse" color-interpolation-filters="sRGB">
<feFlood flood-opacity="0" result="BackgroundImageFix"/>
<feColorMatrix in="SourceAlpha" type="matrix" values="0 0 0 0 0 0 0 0 0 0 0 0 0 0 0 0 0 0 127 0" result="hardAlpha"/>
<feOffset dy="10"/>
<feGaussianBlur stdDeviation="30"/>
<feComposite in2="hardAlpha" operator="out"/>
<feColorMatrix type="matrix" values="0 0 0 0 0.885625 0 0 0 0 0.92625 0 0 0 0 0.975 0 0 0 0.5 0"/>
<feBlend mode="normal" in2="BackgroundImageFix" result="effect1_dropShadow_817_10056"/>
<feBlend mode="normal" in="SourceGraphic" in2="effect1_dropShadow_817_10056" result="shape"/>
</filter>
</defs>
</svg>
