<svg width="80" height="80" viewBox="0 0 80 80" fill="none" xmlns="http://www.w3.org/2000/svg">
<path d="M52.5 2.5C51.1739 2.5 49.9021 3.02678 48.9645 3.96447C48.0268 4.90215 47.5 6.17392 47.5 7.5V30H8.75C7.0924 30 5.50269 30.6585 4.33058 31.8306C3.15848 33.0027 2.5 34.5924 2.5 36.25V41.25C2.4997 42.2075 2.86571 43.1289 3.52299 43.8253C4.18028 44.5216 5.07903 44.9401 6.035 44.995C7.50197 50.1688 10.4537 54.799 14.525 58.3125C15.8975 59.4975 17.3875 60.5525 18.98 61.4525L15.2425 68.925C15.01 69.39 14.675 70.0575 14.4225 70.7575C14.1725 71.45 13.8975 72.4525 14.0275 73.5325C14.1775 74.7825 14.8575 75.93 16.1075 76.6575C17.2075 77.2925 18.5625 77.5 20 77.5H55C57.0625 77.5 58.9175 76.495 60.205 75.205C61.4925 73.9175 62.5 72.0625 62.5 70V50C62.5 49.33 62.8875 48.4325 63.6125 47.44C66.0571 47.1663 68.3151 46.0012 69.9547 44.1674C71.5943 42.3337 72.5005 39.9599 72.5 37.5V7.5C72.5 6.17392 71.9732 4.90215 71.0355 3.96447C70.0979 3.02678 68.8261 2.5 67.5 2.5H52.5ZM23.54 63.5075C26.4232 64.4987 29.4512 65.0031 32.5 65C43.05 65 52.785 59.7975 57.5 51.045V70C57.5 70.4375 57.255 71.0825 56.67 71.67C56.0825 72.2575 55.4375 72.5 55 72.5H20C19.635 72.5 19.3475 72.48 19.1275 72.45C19.2725 72.0525 19.4825 71.625 19.735 71.1175L23.54 63.5075ZM51.25 42.5C52.085 43.6125 53.285 44.4375 54.67 44.8C52.0275 53.9675 43.0575 60 32.5 60C26.775 60 21.55 57.8625 17.58 54.3425C14.0586 51.2259 11.6019 47.0845 10.555 42.5H51.25ZM50.125 40H7.5V36.25C7.5 35.9185 7.6317 35.6005 7.86612 35.3661C8.10054 35.1317 8.41848 35 8.75 35H50V38.75C50 39.1775 50.0425 39.595 50.125 40ZM67.5 37.5C67.5 38.8261 66.9732 40.0979 66.0355 41.0355C65.0979 41.9732 63.8261 42.5 62.5 42.5H56.25C55.2554 42.5 54.3016 42.1049 53.5984 41.4016C52.8951 40.6984 52.5 39.7446 52.5 38.75V7.5H67.5V37.5Z" fill="black"/>
</svg>
