<svg width="80" height="80" viewBox="0 0 80 80" fill="none" xmlns="http://www.w3.org/2000/svg">
<path d="M70 70H10C10 66.3333 13 63.3333 16.6667 63.3333H63.3333C67.0333 63.3333 70 66.3 70 70ZM63.3333 23.3333C63.3333 17.9667 59.7667 10 50 10C40.2333 10 36.6667 17.9667 36.6667 23.3333V60H43.3333V23.3333C43.3333 21.8 43.9 16.6667 50 16.6667C56.1 16.6667 56.6667 21.8 56.6667 23.3333H55V30H65V23.3333H63.3333ZM23.3333 40C21.5 40 20 41.5 20 43.3333V46.6667H10V50H20V60H26.6667V43.3333C26.6667 41.5 25.1667 40 23.3333 40ZM70 46.6667H60V43.3333C60 41.5 58.5 40 56.6667 40C54.8333 40 53.3333 41.5 53.3333 43.3333V60H60V50H70V46.6667Z" fill="black"/>
</svg>
