<svg width="80" height="80" viewBox="0 0 80 80" fill="none" xmlns="http://www.w3.org/2000/svg">
<mask id="mask0_559_10542" style="mask-type:luminance" maskUnits="userSpaceOnUse" x="12" y="4" width="57" height="72">
<path d="M63.3111 6.66663H17.5968C15.7935 6.66663 14.3315 8.15901 14.3315 9.99996V70C14.3315 71.8409 15.7935 73.3333 17.5968 73.3333H63.3111C65.1145 73.3333 66.5764 71.8409 66.5764 70V9.99996C66.5764 8.15901 65.1145 6.66663 63.3111 6.66663Z" stroke="white" stroke-width="4"/>
<path d="M14.3315 25.8333H66.5764" stroke="white" stroke-width="4" stroke-linecap="round" stroke-linejoin="round"/>
<path d="M46.9845 19.9999C48.7879 19.9999 50.2499 18.5075 50.2499 16.6666C50.2499 14.8256 48.7879 13.3333 46.9845 13.3333C45.1812 13.3333 43.7192 14.8256 43.7192 16.6666C43.7192 18.5075 45.1812 19.9999 46.9845 19.9999Z" fill="white"/>
<path d="M56.7804 19.9999C58.5838 19.9999 60.0457 18.5075 60.0457 16.6666C60.0457 14.8256 58.5838 13.3333 56.7804 13.3333C54.9771 13.3333 53.5151 14.8256 53.5151 16.6666C53.5151 18.5075 54.9771 19.9999 56.7804 19.9999Z" fill="white"/>
<path d="M40.454 61.6666C46.7658 61.6666 51.8825 56.4432 51.8825 49.9999C51.8825 43.5566 46.7658 38.3333 40.454 38.3333C34.1421 38.3333 29.0254 43.5566 29.0254 49.9999C29.0254 56.4432 34.1421 61.6666 40.454 61.6666Z" fill="#555555" stroke="white" stroke-width="4"/>
</mask>
<g mask="url(#mask0_559_10542)">
<path d="M0 0H80V80H0V0Z" fill="black"/>
</g>
</svg>
