<svg width="80" height="80" viewBox="0 0 80 80" fill="none" xmlns="http://www.w3.org/2000/svg">
<path d="M0 40C0 17.9086 17.9086 0 40 0C62.0914 0 80 17.9086 80 40C80 62.0914 62.0914 80 40 80C17.9086 80 0 62.0914 0 40Z" fill="#0C0A72"/>
<path d="M51.4733 47.9476C51.8086 48.2829 51.997 48.7377 51.997 49.2119C51.997 49.6862 51.8086 50.141 51.4733 50.4763C51.1379 50.8116 50.6831 51 50.2089 51C49.7346 51 49.2798 50.8116 48.9445 50.4763L39.5 41.0294L30.0526 50.4733C29.7172 50.8086 29.2624 50.997 28.7882 50.997C28.3139 50.997 27.8591 50.8086 27.5237 50.4733C27.1884 50.138 27 49.6832 27 49.209C27 48.7348 27.1884 48.28 27.5237 47.9446L36.9712 38.5007L27.5267 29.0539C27.1914 28.7186 27.003 28.2638 27.003 27.7895C27.003 27.3153 27.1914 26.8605 27.5267 26.5252C27.8621 26.1899 28.3169 26.0015 28.7911 26.0015C29.2654 26.0015 29.7202 26.1899 30.0555 26.5252L39.5 35.9721L48.9474 26.5237C49.2828 26.1884 49.7376 26 50.2118 26C50.6861 26 51.1409 26.1884 51.4763 26.5237C51.8116 26.859 52 27.3138 52 27.788C52 28.2623 51.8116 28.7171 51.4763 29.0524L42.0288 38.5007L51.4733 47.9476Z" fill="white"/>
</svg>
