<svg width="75" height="75" viewBox="0 0 75 75" fill="none" xmlns="http://www.w3.org/2000/svg">
<g clip-path="url(#clip0_498_10132)">
<path d="M22.5 55.45L37.5 40.45L52.5 55.45L55.45 52.5L40.45 37.5L55.45 22.5L52.5 19.55L37.5 34.55L22.5 19.55L19.55 22.5L34.55 37.5L19.55 52.5L22.5 55.45ZM37.5125 75C32.3292 75 27.4542 74.0167 22.8875 72.05C18.3236 70.0806 14.3528 67.4083 10.975 64.0333C7.59722 60.6611 4.92361 56.6944 2.95417 52.1333C0.984723 47.5722 0 42.6986 0 37.5125C0 32.3292 0.983333 27.4542 2.95 22.8875C4.91944 18.3236 7.59167 14.3528 10.9667 10.975C14.3389 7.59722 18.3056 4.92361 22.8667 2.95417C27.4278 0.984723 32.3014 0 37.4875 0C42.6708 0 47.5458 0.983333 52.1125 2.95C56.6764 4.91944 60.6472 7.59167 64.025 10.9667C67.4028 14.3389 70.0764 18.3056 72.0458 22.8667C74.0153 27.4278 75 32.3014 75 37.4875C75 42.6708 74.0167 47.5458 72.05 52.1125C70.0806 56.6764 67.4083 60.6472 64.0333 64.025C60.6611 67.4028 56.6944 70.0764 52.1333 72.0458C47.5722 74.0153 42.6986 75 37.5125 75ZM37.5 70.8333C46.8056 70.8333 54.6875 67.6042 61.1458 61.1458C67.6042 54.6875 70.8333 46.8056 70.8333 37.5C70.8333 28.1944 67.6042 20.3125 61.1458 13.8542C54.6875 7.39583 46.8056 4.16667 37.5 4.16667C28.1944 4.16667 20.3125 7.39583 13.8542 13.8542C7.39583 20.3125 4.16667 28.1944 4.16667 37.5C4.16667 46.8056 7.39583 54.6875 13.8542 61.1458C20.3125 67.6042 28.1944 70.8333 37.5 70.8333Z" fill="black"/>
</g>
<defs>
<clipPath id="clip0_498_10132">
<rect width="75" height="75" fill="white"/>
</clipPath>
</defs>
</svg>
